%TF.GenerationSoftware,KiCad,Pcbnew,(5.1.9)-1*%
%TF.CreationDate,2021-01-19T18:40:37+01:00*%
%TF.ProjectId,Track-your-cat,54726163-6b2d-4796-9f75-722d6361742e,1*%
%TF.SameCoordinates,Original*%
%TF.FileFunction,Legend,Top*%
%TF.FilePolarity,Positive*%
%FSLAX46Y46*%
G04 Gerber Fmt 4.6, Leading zero omitted, Abs format (unit mm)*
G04 Created by KiCad (PCBNEW (5.1.9)-1) date 2021-01-19 18:40:37*
%MOMM*%
%LPD*%
G01*
G04 APERTURE LIST*
%ADD10C,0.100000*%
%ADD11C,0.300000*%
%ADD12C,0.254000*%
%ADD13C,0.150000*%
%ADD14C,0.250000*%
%ADD15C,0.200000*%
%ADD16C,0.127000*%
%ADD17C,0.120000*%
%ADD18C,0.203200*%
%ADD19C,0.175000*%
G04 APERTURE END LIST*
D10*
X66497619Y-86744047D02*
X66497619Y-87208333D01*
X66466666Y-87301190D01*
X66404761Y-87363095D01*
X66311904Y-87394047D01*
X66250000Y-87394047D01*
X67116666Y-87394047D02*
X66807142Y-87394047D01*
X66807142Y-86744047D01*
X67704761Y-87332142D02*
X67673809Y-87363095D01*
X67580952Y-87394047D01*
X67519047Y-87394047D01*
X67426190Y-87363095D01*
X67364285Y-87301190D01*
X67333333Y-87239285D01*
X67302380Y-87115476D01*
X67302380Y-87022619D01*
X67333333Y-86898809D01*
X67364285Y-86836904D01*
X67426190Y-86775000D01*
X67519047Y-86744047D01*
X67580952Y-86744047D01*
X67673809Y-86775000D01*
X67704761Y-86805952D01*
X68169047Y-86744047D02*
X68169047Y-87208333D01*
X68138095Y-87301190D01*
X68076190Y-87363095D01*
X67983333Y-87394047D01*
X67921428Y-87394047D01*
X68788095Y-87394047D02*
X68478571Y-87394047D01*
X68478571Y-86744047D01*
X69376190Y-87332142D02*
X69345238Y-87363095D01*
X69252380Y-87394047D01*
X69190476Y-87394047D01*
X69097619Y-87363095D01*
X69035714Y-87301190D01*
X69004761Y-87239285D01*
X68973809Y-87115476D01*
X68973809Y-87022619D01*
X69004761Y-86898809D01*
X69035714Y-86836904D01*
X69097619Y-86775000D01*
X69190476Y-86744047D01*
X69252380Y-86744047D01*
X69345238Y-86775000D01*
X69376190Y-86805952D01*
X69840476Y-86744047D02*
X69840476Y-87208333D01*
X69809523Y-87301190D01*
X69747619Y-87363095D01*
X69654761Y-87394047D01*
X69592857Y-87394047D01*
X70459523Y-87394047D02*
X70150000Y-87394047D01*
X70150000Y-86744047D01*
X71047619Y-87332142D02*
X71016666Y-87363095D01*
X70923809Y-87394047D01*
X70861904Y-87394047D01*
X70769047Y-87363095D01*
X70707142Y-87301190D01*
X70676190Y-87239285D01*
X70645238Y-87115476D01*
X70645238Y-87022619D01*
X70676190Y-86898809D01*
X70707142Y-86836904D01*
X70769047Y-86775000D01*
X70861904Y-86744047D01*
X70923809Y-86744047D01*
X71016666Y-86775000D01*
X71047619Y-86805952D01*
X71511904Y-86744047D02*
X71511904Y-87208333D01*
X71480952Y-87301190D01*
X71419047Y-87363095D01*
X71326190Y-87394047D01*
X71264285Y-87394047D01*
X72130952Y-87394047D02*
X71821428Y-87394047D01*
X71821428Y-86744047D01*
X72719047Y-87332142D02*
X72688095Y-87363095D01*
X72595238Y-87394047D01*
X72533333Y-87394047D01*
X72440476Y-87363095D01*
X72378571Y-87301190D01*
X72347619Y-87239285D01*
X72316666Y-87115476D01*
X72316666Y-87022619D01*
X72347619Y-86898809D01*
X72378571Y-86836904D01*
X72440476Y-86775000D01*
X72533333Y-86744047D01*
X72595238Y-86744047D01*
X72688095Y-86775000D01*
X72719047Y-86805952D01*
X61928571Y-81425000D02*
X61857142Y-81389285D01*
X61750000Y-81389285D01*
X61642857Y-81425000D01*
X61571428Y-81496428D01*
X61535714Y-81567857D01*
X61500000Y-81710714D01*
X61500000Y-81817857D01*
X61535714Y-81960714D01*
X61571428Y-82032142D01*
X61642857Y-82103571D01*
X61750000Y-82139285D01*
X61821428Y-82139285D01*
X61928571Y-82103571D01*
X61964285Y-82067857D01*
X61964285Y-81817857D01*
X61821428Y-81817857D01*
X62285714Y-82139285D02*
X62285714Y-81389285D01*
X62714285Y-82139285D01*
X62714285Y-81389285D01*
X63071428Y-82139285D02*
X63071428Y-81389285D01*
X63250000Y-81389285D01*
X63357142Y-81425000D01*
X63428571Y-81496428D01*
X63464285Y-81567857D01*
X63500000Y-81710714D01*
X63500000Y-81817857D01*
X63464285Y-81960714D01*
X63428571Y-82032142D01*
X63357142Y-82103571D01*
X63250000Y-82139285D01*
X63071428Y-82139285D01*
X59789285Y-82067857D02*
X59753571Y-82103571D01*
X59646428Y-82139285D01*
X59575000Y-82139285D01*
X59467857Y-82103571D01*
X59396428Y-82032142D01*
X59360714Y-81960714D01*
X59325000Y-81817857D01*
X59325000Y-81710714D01*
X59360714Y-81567857D01*
X59396428Y-81496428D01*
X59467857Y-81425000D01*
X59575000Y-81389285D01*
X59646428Y-81389285D01*
X59753571Y-81425000D01*
X59789285Y-81460714D01*
X60003571Y-81389285D02*
X60432142Y-81389285D01*
X60217857Y-82139285D02*
X60217857Y-81389285D01*
X60646428Y-82103571D02*
X60753571Y-82139285D01*
X60932142Y-82139285D01*
X61003571Y-82103571D01*
X61039285Y-82067857D01*
X61075000Y-81996428D01*
X61075000Y-81925000D01*
X61039285Y-81853571D01*
X61003571Y-81817857D01*
X60932142Y-81782142D01*
X60789285Y-81746428D01*
X60717857Y-81710714D01*
X60682142Y-81675000D01*
X60646428Y-81603571D01*
X60646428Y-81532142D01*
X60682142Y-81460714D01*
X60717857Y-81425000D01*
X60789285Y-81389285D01*
X60967857Y-81389285D01*
X61075000Y-81425000D01*
X57071428Y-81389285D02*
X57535714Y-81389285D01*
X57285714Y-81675000D01*
X57392857Y-81675000D01*
X57464285Y-81710714D01*
X57500000Y-81746428D01*
X57535714Y-81817857D01*
X57535714Y-81996428D01*
X57500000Y-82067857D01*
X57464285Y-82103571D01*
X57392857Y-82139285D01*
X57178571Y-82139285D01*
X57107142Y-82103571D01*
X57071428Y-82067857D01*
X57750000Y-81389285D02*
X58000000Y-82139285D01*
X58250000Y-81389285D01*
X58428571Y-81389285D02*
X58892857Y-81389285D01*
X58642857Y-81675000D01*
X58750000Y-81675000D01*
X58821428Y-81710714D01*
X58857142Y-81746428D01*
X58892857Y-81817857D01*
X58892857Y-81996428D01*
X58857142Y-82067857D01*
X58821428Y-82103571D01*
X58750000Y-82139285D01*
X58535714Y-82139285D01*
X58464285Y-82103571D01*
X58428571Y-82067857D01*
X55775000Y-82139285D02*
X55525000Y-81782142D01*
X55346428Y-82139285D02*
X55346428Y-81389285D01*
X55632142Y-81389285D01*
X55703571Y-81425000D01*
X55739285Y-81460714D01*
X55775000Y-81532142D01*
X55775000Y-81639285D01*
X55739285Y-81710714D01*
X55703571Y-81746428D01*
X55632142Y-81782142D01*
X55346428Y-81782142D01*
X56025000Y-81389285D02*
X56525000Y-82139285D01*
X56525000Y-81389285D02*
X56025000Y-82139285D01*
X53328571Y-81389285D02*
X53757142Y-81389285D01*
X53542857Y-82139285D02*
X53542857Y-81389285D01*
X53935714Y-81389285D02*
X54435714Y-82139285D01*
X54435714Y-81389285D02*
X53935714Y-82139285D01*
X51042857Y-82139285D02*
X51042857Y-81389285D01*
X51221428Y-81389285D01*
X51328571Y-81425000D01*
X51400000Y-81496428D01*
X51435714Y-81567857D01*
X51471428Y-81710714D01*
X51471428Y-81817857D01*
X51435714Y-81960714D01*
X51400000Y-82032142D01*
X51328571Y-82103571D01*
X51221428Y-82139285D01*
X51042857Y-82139285D01*
X51685714Y-81389285D02*
X52114285Y-81389285D01*
X51900000Y-82139285D02*
X51900000Y-81389285D01*
X52792857Y-82139285D02*
X52542857Y-81782142D01*
X52364285Y-82139285D02*
X52364285Y-81389285D01*
X52650000Y-81389285D01*
X52721428Y-81425000D01*
X52757142Y-81460714D01*
X52792857Y-81532142D01*
X52792857Y-81639285D01*
X52757142Y-81710714D01*
X52721428Y-81746428D01*
X52650000Y-81782142D01*
X52364285Y-81782142D01*
D11*
X70800000Y-76500000D02*
G75*
G03*
X70800000Y-76500000I-100000J0D01*
G01*
X65400000Y-85600000D02*
G75*
G03*
X65400000Y-85600000I-100000J0D01*
G01*
D12*
%TO.C,D2*%
X71104800Y-112542860D02*
X71104800Y-112088200D01*
X71104800Y-109957140D02*
X71104800Y-110462600D01*
X71104800Y-112542860D02*
X71104800Y-112088200D01*
X71104800Y-109957140D02*
X71104800Y-110462600D01*
X67766701Y-112259851D02*
G75*
G03*
X69530000Y-113282000I1763299J1009851D01*
G01*
X69532552Y-113279386D02*
G75*
G03*
X71079400Y-112560640I-2552J2029386D01*
G01*
X69529025Y-109220540D02*
G75*
G03*
X67739300Y-110294960I975J-2029460D01*
G01*
X71088880Y-109946574D02*
G75*
G03*
X69530000Y-109218000I-1558880J-1303426D01*
G01*
X67766701Y-112259851D02*
G75*
G03*
X69530000Y-113282000I1763299J1009851D01*
G01*
X69532552Y-113279386D02*
G75*
G03*
X71079400Y-112560640I-2552J2029386D01*
G01*
X69529025Y-109220540D02*
G75*
G03*
X67739300Y-110294960I975J-2029460D01*
G01*
X71088880Y-109946574D02*
G75*
G03*
X69530000Y-109218000I-1558880J-1303426D01*
G01*
D13*
%TO.C,J3*%
X73850000Y-99725000D02*
X74845000Y-99725000D01*
X77495000Y-99725000D02*
X80815000Y-99725000D01*
X83465000Y-99725000D02*
X85950000Y-99725000D01*
X85950000Y-109775000D02*
X85950000Y-105675000D01*
X85950000Y-103925000D02*
X85950000Y-101975001D01*
X85950000Y-100225001D02*
X85950000Y-99725000D01*
X83805000Y-111275000D02*
X84315000Y-111275000D01*
X73850000Y-109325000D02*
X73850000Y-99725000D01*
D14*
X83130000Y-112050000D02*
G75*
G03*
X83130000Y-112050000I-125000J0D01*
G01*
%TO.C,IC1*%
X81625000Y-84600000D02*
G75*
G03*
X81625000Y-84600000I-125000J0D01*
G01*
D15*
%TO.C,U3*%
X78400000Y-87200000D02*
G75*
G03*
X78400000Y-87200000I-100000J0D01*
G01*
D16*
X77250000Y-85086500D02*
X77650000Y-85086500D01*
X76350000Y-85086500D02*
X75950000Y-85086500D01*
X76350000Y-87513500D02*
X75950000Y-87513500D01*
D17*
%TO.C,R10*%
X76177500Y-77667224D02*
X76177500Y-77157776D01*
X77222500Y-77667224D02*
X77222500Y-77157776D01*
D16*
%TO.C,Y2*%
X67100000Y-76460000D02*
X67100000Y-77340000D01*
X65600000Y-76460000D02*
X65600000Y-77340000D01*
D11*
X66450000Y-74300000D02*
G75*
G03*
X66450000Y-74300000I-100000J0D01*
G01*
D10*
%TO.C,U2*%
X66350000Y-85600000D02*
X66250000Y-85600000D01*
X66250000Y-85600000D02*
X65900000Y-85950000D01*
X65900000Y-85950000D02*
X65900000Y-86050000D01*
X65900000Y-86050000D02*
X64600000Y-86050000D01*
X73100000Y-85600000D02*
X72650000Y-85600000D01*
X73100000Y-85600000D02*
X73100000Y-86050000D01*
X73100000Y-92800000D02*
X73100000Y-92350000D01*
X73100000Y-92800000D02*
X72650000Y-92800000D01*
X65900000Y-92800000D02*
X66350000Y-92800000D01*
X65900000Y-92800000D02*
X65900000Y-92350000D01*
D12*
%TO.C,D1*%
X65944800Y-110007140D02*
X65944800Y-110512600D01*
X65944800Y-112592860D02*
X65944800Y-112138200D01*
X65944800Y-110007140D02*
X65944800Y-110512600D01*
X65944800Y-112592860D02*
X65944800Y-112138200D01*
X65928880Y-109996574D02*
G75*
G03*
X64370000Y-109268000I-1558880J-1303426D01*
G01*
X64369025Y-109270540D02*
G75*
G03*
X62579300Y-110344960I975J-2029460D01*
G01*
X64372552Y-113329386D02*
G75*
G03*
X65919400Y-112610640I-2552J2029386D01*
G01*
X62606701Y-112309851D02*
G75*
G03*
X64370000Y-113332000I1763299J1009851D01*
G01*
X65928880Y-109996574D02*
G75*
G03*
X64370000Y-109268000I-1558880J-1303426D01*
G01*
X64369025Y-109270540D02*
G75*
G03*
X62579300Y-110344960I975J-2029460D01*
G01*
X64372552Y-113329386D02*
G75*
G03*
X65919400Y-112610640I-2552J2029386D01*
G01*
X62606701Y-112309851D02*
G75*
G03*
X64370000Y-113332000I1763299J1009851D01*
G01*
D17*
%TO.C,R8*%
X98477500Y-101854724D02*
X98477500Y-101345276D01*
X99522500Y-101854724D02*
X99522500Y-101345276D01*
%TO.C,C1*%
X90335000Y-101401248D02*
X90335000Y-101923752D01*
X88865000Y-101401248D02*
X88865000Y-101923752D01*
%TO.C,C2*%
X92946267Y-104310000D02*
X92653733Y-104310000D01*
X92946267Y-103290000D02*
X92653733Y-103290000D01*
%TO.C,C3*%
X78335000Y-93101248D02*
X78335000Y-93623752D01*
X76865000Y-93101248D02*
X76865000Y-93623752D01*
%TO.C,C4*%
X63760000Y-88958767D02*
X63760000Y-88666233D01*
X62740000Y-88958767D02*
X62740000Y-88666233D01*
%TO.C,C5*%
X60990000Y-88958767D02*
X60990000Y-88666233D01*
X62010000Y-88958767D02*
X62010000Y-88666233D01*
%TO.C,C6*%
X75090000Y-92716233D02*
X75090000Y-93008767D01*
X76110000Y-92716233D02*
X76110000Y-93008767D01*
%TO.C,C8*%
X53683767Y-77390000D02*
X53391233Y-77390000D01*
X53683767Y-78410000D02*
X53391233Y-78410000D01*
%TO.C,C9*%
X57610000Y-94608767D02*
X57610000Y-94316233D01*
X56590000Y-94608767D02*
X56590000Y-94316233D01*
%TO.C,C10*%
X61283767Y-98810000D02*
X60991233Y-98810000D01*
X61283767Y-97790000D02*
X60991233Y-97790000D01*
%TO.C,C11*%
X52610000Y-95016233D02*
X52610000Y-95308767D01*
X51590000Y-95016233D02*
X51590000Y-95308767D01*
%TO.C,C12*%
X75190000Y-89683767D02*
X75190000Y-89391233D01*
X76210000Y-89683767D02*
X76210000Y-89391233D01*
%TO.C,C13*%
X51990000Y-86516233D02*
X51990000Y-86808767D01*
X53010000Y-86516233D02*
X53010000Y-86808767D01*
%TO.C,C15*%
X80908767Y-89190000D02*
X80616233Y-89190000D01*
X80908767Y-90210000D02*
X80616233Y-90210000D01*
%TO.C,C16*%
X102410000Y-85846267D02*
X102410000Y-85553733D01*
X101390000Y-85846267D02*
X101390000Y-85553733D01*
%TO.C,C17*%
X100760000Y-85846267D02*
X100760000Y-85553733D01*
X99740000Y-85846267D02*
X99740000Y-85553733D01*
%TO.C,C18*%
X101583767Y-101210000D02*
X101291233Y-101210000D01*
X101583767Y-100190000D02*
X101291233Y-100190000D01*
%TO.C,C20*%
X73091233Y-74290000D02*
X73383767Y-74290000D01*
X73091233Y-75310000D02*
X73383767Y-75310000D01*
%TO.C,C21*%
X69883767Y-74290000D02*
X69591233Y-74290000D01*
X69883767Y-75310000D02*
X69591233Y-75310000D01*
%TO.C,C22*%
X65991233Y-79390000D02*
X66283767Y-79390000D01*
X65991233Y-80410000D02*
X66283767Y-80410000D01*
%TO.C,C23*%
X86665000Y-107176248D02*
X86665000Y-107698752D01*
X88135000Y-107176248D02*
X88135000Y-107698752D01*
D16*
%TO.C,IC2*%
X100201780Y-96975160D02*
X102198220Y-96975160D01*
X102198220Y-96975160D02*
X102198220Y-98224840D01*
X100201780Y-98224840D02*
X102198220Y-98224840D01*
X100201780Y-98224840D02*
X100201780Y-96975160D01*
D18*
%TO.C,J1*%
X45998220Y-90597960D02*
X49498340Y-90597960D01*
X49498340Y-90597960D02*
X49498340Y-89797860D01*
X49498340Y-89797860D02*
X46998980Y-89797860D01*
X46998980Y-89797860D02*
X46998980Y-88598980D01*
X46998980Y-84601020D02*
X46998980Y-83402140D01*
X46998980Y-83402140D02*
X49498340Y-83402140D01*
X49498340Y-83402140D02*
X49498340Y-82602040D01*
X49498340Y-82602040D02*
X45998220Y-82602040D01*
X42000260Y-84601020D02*
X42000260Y-88598980D01*
D14*
%TO.C,LDO1*%
X91025000Y-100875000D02*
G75*
G03*
X91025000Y-100875000I-125000J0D01*
G01*
D17*
%TO.C,R1*%
X57254724Y-77377500D02*
X56745276Y-77377500D01*
X57254724Y-78422500D02*
X56745276Y-78422500D01*
%TO.C,R2*%
X46177500Y-93445276D02*
X46177500Y-93954724D01*
X47222500Y-93445276D02*
X47222500Y-93954724D01*
%TO.C,R3*%
X47242224Y-96722500D02*
X46732776Y-96722500D01*
X47242224Y-95677500D02*
X46732776Y-95677500D01*
%TO.C,R4*%
X65277500Y-107342224D02*
X65277500Y-106832776D01*
X66322500Y-107342224D02*
X66322500Y-106832776D01*
%TO.C,R5*%
X71622500Y-107342224D02*
X71622500Y-106832776D01*
X70577500Y-107342224D02*
X70577500Y-106832776D01*
%TO.C,R6*%
X100077500Y-103232776D02*
X100077500Y-103742224D01*
X101122500Y-103232776D02*
X101122500Y-103742224D01*
%TO.C,R7*%
X79377500Y-87542224D02*
X79377500Y-87032776D01*
X80422500Y-87542224D02*
X80422500Y-87032776D01*
%TO.C,R9*%
X80942224Y-113022500D02*
X80432776Y-113022500D01*
X80942224Y-111977500D02*
X80432776Y-111977500D01*
%TO.C,R11*%
X78177500Y-77667224D02*
X78177500Y-77157776D01*
X79222500Y-77667224D02*
X79222500Y-77157776D01*
%TO.C,R12*%
X77432776Y-80922500D02*
X77942224Y-80922500D01*
X77432776Y-79877500D02*
X77942224Y-79877500D01*
D10*
%TO.C,RTC1*%
X70400000Y-75800000D02*
X70000000Y-75800000D01*
X70000000Y-75800000D02*
X69700000Y-76100000D01*
X69700000Y-76100000D02*
X68900000Y-76100000D01*
X69500000Y-80700000D02*
X69500000Y-81000000D01*
X69500000Y-81000000D02*
X69800000Y-81000000D01*
X73700000Y-76100000D02*
X73700000Y-75800000D01*
X73700000Y-75800000D02*
X73400000Y-75800000D01*
X73700000Y-80700000D02*
X73700000Y-81000000D01*
X73700000Y-81000000D02*
X73400000Y-81000000D01*
%TO.C,SW1*%
X90800000Y-113000000D02*
X96600000Y-113000000D01*
D15*
X91400000Y-108500000D02*
X91400000Y-108500000D01*
X91400000Y-108600000D02*
X91400000Y-108600000D01*
X91400000Y-108500000D02*
X91400000Y-108500000D01*
X91400000Y-108600000D02*
G75*
G02*
X91400000Y-108500000I0J50000D01*
G01*
X91400000Y-108500000D02*
G75*
G02*
X91400000Y-108600000I0J-50000D01*
G01*
X91400000Y-108600000D02*
G75*
G02*
X91400000Y-108500000I0J50000D01*
G01*
D18*
%TO.C,SW2*%
X59259000Y-107091400D02*
X54941000Y-107091400D01*
X54941000Y-113187400D02*
X59259000Y-113187400D01*
X60148000Y-109143720D02*
X60148000Y-111155400D01*
X54052000Y-109113240D02*
X54052000Y-111155400D01*
X58878000Y-110139400D02*
G75*
G03*
X58878000Y-110139400I-1778000J0D01*
G01*
D16*
%TO.C,TH1*%
X43750000Y-93050000D02*
X41750000Y-93050000D01*
X41750000Y-93050000D02*
X41750000Y-97250000D01*
X41750000Y-97250000D02*
X43750000Y-97250000D01*
X43750000Y-97250000D02*
X43750000Y-93050000D01*
D13*
%TO.C,U1*%
X48800000Y-94800000D02*
X48800000Y-94800000D01*
X48800000Y-94800000D02*
X50800000Y-94800000D01*
X50800000Y-94800000D02*
X50800000Y-94800000D01*
X48800000Y-92800000D02*
X48800000Y-92800000D01*
X48800000Y-92800000D02*
X50800000Y-92800000D01*
X50800000Y-92800000D02*
X50800000Y-92800000D01*
D14*
X48268934Y-93000000D02*
G75*
G03*
X48268934Y-93000000I-125000J0D01*
G01*
D17*
%TO.C,Y1*%
X63250000Y-97000000D02*
X63250000Y-91600000D01*
X58750000Y-97000000D02*
X63250000Y-97000000D01*
D16*
%TO.C,J2*%
X51700000Y-112850000D02*
X51700000Y-113150000D01*
X44100000Y-112850000D02*
X44100000Y-113150000D01*
X51700000Y-110650000D02*
X51700000Y-110250000D01*
X44100000Y-110250000D02*
X44100000Y-110650000D01*
X44100000Y-113200000D02*
X51700000Y-113200000D01*
D15*
X46000000Y-108250000D02*
G75*
G03*
X46000000Y-108250000I-100000J0D01*
G01*
D17*
%TO.C,C19*%
X100891233Y-95710000D02*
X101183767Y-95710000D01*
X100891233Y-94690000D02*
X101183767Y-94690000D01*
%TO.C,D2*%
D16*
X69080057Y-108937511D02*
X69080057Y-108327911D01*
X69225200Y-108327911D01*
X69312285Y-108356940D01*
X69370342Y-108414997D01*
X69399371Y-108473054D01*
X69428400Y-108589168D01*
X69428400Y-108676254D01*
X69399371Y-108792368D01*
X69370342Y-108850425D01*
X69312285Y-108908482D01*
X69225200Y-108937511D01*
X69080057Y-108937511D01*
X69660628Y-108385968D02*
X69689657Y-108356940D01*
X69747714Y-108327911D01*
X69892857Y-108327911D01*
X69950914Y-108356940D01*
X69979942Y-108385968D01*
X70008971Y-108444025D01*
X70008971Y-108502082D01*
X69979942Y-108589168D01*
X69631600Y-108937511D01*
X70008971Y-108937511D01*
%TO.C,J3*%
D13*
X84121309Y-107552380D02*
X84121309Y-108266666D01*
X84073690Y-108409523D01*
X83978452Y-108504761D01*
X83835595Y-108552380D01*
X83740357Y-108552380D01*
X84502261Y-107552380D02*
X85121309Y-107552380D01*
X84787976Y-107933333D01*
X84930833Y-107933333D01*
X85026071Y-107980952D01*
X85073690Y-108028571D01*
X85121309Y-108123809D01*
X85121309Y-108361904D01*
X85073690Y-108457142D01*
X85026071Y-108504761D01*
X84930833Y-108552380D01*
X84645119Y-108552380D01*
X84549880Y-108504761D01*
X84502261Y-108457142D01*
%TO.C,IC1*%
D12*
X82460238Y-84074523D02*
X82460238Y-82804523D01*
X83790714Y-83953571D02*
X83730238Y-84014047D01*
X83548809Y-84074523D01*
X83427857Y-84074523D01*
X83246428Y-84014047D01*
X83125476Y-83893095D01*
X83065000Y-83772142D01*
X83004523Y-83530238D01*
X83004523Y-83348809D01*
X83065000Y-83106904D01*
X83125476Y-82985952D01*
X83246428Y-82865000D01*
X83427857Y-82804523D01*
X83548809Y-82804523D01*
X83730238Y-82865000D01*
X83790714Y-82925476D01*
X85000238Y-84074523D02*
X84274523Y-84074523D01*
X84637380Y-84074523D02*
X84637380Y-82804523D01*
X84516428Y-82985952D01*
X84395476Y-83106904D01*
X84274523Y-83167380D01*
%TO.C,U3*%
D13*
X76338095Y-83552380D02*
X76338095Y-84361904D01*
X76385714Y-84457142D01*
X76433333Y-84504761D01*
X76528571Y-84552380D01*
X76719047Y-84552380D01*
X76814285Y-84504761D01*
X76861904Y-84457142D01*
X76909523Y-84361904D01*
X76909523Y-83552380D01*
X77290476Y-83552380D02*
X77909523Y-83552380D01*
X77576190Y-83933333D01*
X77719047Y-83933333D01*
X77814285Y-83980952D01*
X77861904Y-84028571D01*
X77909523Y-84123809D01*
X77909523Y-84361904D01*
X77861904Y-84457142D01*
X77814285Y-84504761D01*
X77719047Y-84552380D01*
X77433333Y-84552380D01*
X77338095Y-84504761D01*
X77290476Y-84457142D01*
%TO.C,GPS1*%
X85909523Y-95900000D02*
X85814285Y-95852380D01*
X85671428Y-95852380D01*
X85528571Y-95900000D01*
X85433333Y-95995238D01*
X85385714Y-96090476D01*
X85338095Y-96280952D01*
X85338095Y-96423809D01*
X85385714Y-96614285D01*
X85433333Y-96709523D01*
X85528571Y-96804761D01*
X85671428Y-96852380D01*
X85766666Y-96852380D01*
X85909523Y-96804761D01*
X85957142Y-96757142D01*
X85957142Y-96423809D01*
X85766666Y-96423809D01*
X86385714Y-96852380D02*
X86385714Y-95852380D01*
X86766666Y-95852380D01*
X86861904Y-95900000D01*
X86909523Y-95947619D01*
X86957142Y-96042857D01*
X86957142Y-96185714D01*
X86909523Y-96280952D01*
X86861904Y-96328571D01*
X86766666Y-96376190D01*
X86385714Y-96376190D01*
X87338095Y-96804761D02*
X87480952Y-96852380D01*
X87719047Y-96852380D01*
X87814285Y-96804761D01*
X87861904Y-96757142D01*
X87909523Y-96661904D01*
X87909523Y-96566666D01*
X87861904Y-96471428D01*
X87814285Y-96423809D01*
X87719047Y-96376190D01*
X87528571Y-96328571D01*
X87433333Y-96280952D01*
X87385714Y-96233333D01*
X87338095Y-96138095D01*
X87338095Y-96042857D01*
X87385714Y-95947619D01*
X87433333Y-95900000D01*
X87528571Y-95852380D01*
X87766666Y-95852380D01*
X87909523Y-95900000D01*
X88861904Y-96852380D02*
X88290476Y-96852380D01*
X88576190Y-96852380D02*
X88576190Y-95852380D01*
X88480952Y-95995238D01*
X88385714Y-96090476D01*
X88290476Y-96138095D01*
%TO.C,R10*%
X77152380Y-74842857D02*
X76676190Y-75176190D01*
X77152380Y-75414285D02*
X76152380Y-75414285D01*
X76152380Y-75033333D01*
X76200000Y-74938095D01*
X76247619Y-74890476D01*
X76342857Y-74842857D01*
X76485714Y-74842857D01*
X76580952Y-74890476D01*
X76628571Y-74938095D01*
X76676190Y-75033333D01*
X76676190Y-75414285D01*
X77152380Y-73890476D02*
X77152380Y-74461904D01*
X77152380Y-74176190D02*
X76152380Y-74176190D01*
X76295238Y-74271428D01*
X76390476Y-74366666D01*
X76438095Y-74461904D01*
X76152380Y-73271428D02*
X76152380Y-73176190D01*
X76200000Y-73080952D01*
X76247619Y-73033333D01*
X76342857Y-72985714D01*
X76533333Y-72938095D01*
X76771428Y-72938095D01*
X76961904Y-72985714D01*
X77057142Y-73033333D01*
X77104761Y-73080952D01*
X77152380Y-73176190D01*
X77152380Y-73271428D01*
X77104761Y-73366666D01*
X77057142Y-73414285D01*
X76961904Y-73461904D01*
X76771428Y-73509523D01*
X76533333Y-73509523D01*
X76342857Y-73461904D01*
X76247619Y-73414285D01*
X76200000Y-73366666D01*
X76152380Y-73271428D01*
%TO.C,Y2*%
X64326190Y-77376190D02*
X64802380Y-77376190D01*
X63802380Y-77709523D02*
X64326190Y-77376190D01*
X63802380Y-77042857D01*
X63897619Y-76757142D02*
X63850000Y-76709523D01*
X63802380Y-76614285D01*
X63802380Y-76376190D01*
X63850000Y-76280952D01*
X63897619Y-76233333D01*
X63992857Y-76185714D01*
X64088095Y-76185714D01*
X64230952Y-76233333D01*
X64802380Y-76804761D01*
X64802380Y-76185714D01*
%TO.C,U2*%
X64238095Y-92952380D02*
X64238095Y-93761904D01*
X64285714Y-93857142D01*
X64333333Y-93904761D01*
X64428571Y-93952380D01*
X64619047Y-93952380D01*
X64714285Y-93904761D01*
X64761904Y-93857142D01*
X64809523Y-93761904D01*
X64809523Y-92952380D01*
X65238095Y-93047619D02*
X65285714Y-93000000D01*
X65380952Y-92952380D01*
X65619047Y-92952380D01*
X65714285Y-93000000D01*
X65761904Y-93047619D01*
X65809523Y-93142857D01*
X65809523Y-93238095D01*
X65761904Y-93380952D01*
X65190476Y-93952380D01*
X65809523Y-93952380D01*
%TO.C,D1*%
D16*
X63920057Y-108987511D02*
X63920057Y-108377911D01*
X64065200Y-108377911D01*
X64152285Y-108406940D01*
X64210342Y-108464997D01*
X64239371Y-108523054D01*
X64268400Y-108639168D01*
X64268400Y-108726254D01*
X64239371Y-108842368D01*
X64210342Y-108900425D01*
X64152285Y-108958482D01*
X64065200Y-108987511D01*
X63920057Y-108987511D01*
X64848971Y-108987511D02*
X64500628Y-108987511D01*
X64674800Y-108987511D02*
X64674800Y-108377911D01*
X64616742Y-108464997D01*
X64558685Y-108523054D01*
X64500628Y-108552082D01*
%TO.C,R8*%
D13*
X98052380Y-102366666D02*
X97576190Y-102700000D01*
X98052380Y-102938095D02*
X97052380Y-102938095D01*
X97052380Y-102557142D01*
X97100000Y-102461904D01*
X97147619Y-102414285D01*
X97242857Y-102366666D01*
X97385714Y-102366666D01*
X97480952Y-102414285D01*
X97528571Y-102461904D01*
X97576190Y-102557142D01*
X97576190Y-102938095D01*
X97480952Y-101795238D02*
X97433333Y-101890476D01*
X97385714Y-101938095D01*
X97290476Y-101985714D01*
X97242857Y-101985714D01*
X97147619Y-101938095D01*
X97100000Y-101890476D01*
X97052380Y-101795238D01*
X97052380Y-101604761D01*
X97100000Y-101509523D01*
X97147619Y-101461904D01*
X97242857Y-101414285D01*
X97290476Y-101414285D01*
X97385714Y-101461904D01*
X97433333Y-101509523D01*
X97480952Y-101604761D01*
X97480952Y-101795238D01*
X97528571Y-101890476D01*
X97576190Y-101938095D01*
X97671428Y-101985714D01*
X97861904Y-101985714D01*
X97957142Y-101938095D01*
X98004761Y-101890476D01*
X98052380Y-101795238D01*
X98052380Y-101604761D01*
X98004761Y-101509523D01*
X97957142Y-101461904D01*
X97861904Y-101414285D01*
X97671428Y-101414285D01*
X97576190Y-101461904D01*
X97528571Y-101509523D01*
X97480952Y-101604761D01*
%TO.C,C1*%
X88357142Y-101966666D02*
X88404761Y-102014285D01*
X88452380Y-102157142D01*
X88452380Y-102252380D01*
X88404761Y-102395238D01*
X88309523Y-102490476D01*
X88214285Y-102538095D01*
X88023809Y-102585714D01*
X87880952Y-102585714D01*
X87690476Y-102538095D01*
X87595238Y-102490476D01*
X87500000Y-102395238D01*
X87452380Y-102252380D01*
X87452380Y-102157142D01*
X87500000Y-102014285D01*
X87547619Y-101966666D01*
X88452380Y-101014285D02*
X88452380Y-101585714D01*
X88452380Y-101300000D02*
X87452380Y-101300000D01*
X87595238Y-101395238D01*
X87690476Y-101490476D01*
X87738095Y-101585714D01*
%TO.C,C2*%
X91933333Y-105657142D02*
X91885714Y-105704761D01*
X91742857Y-105752380D01*
X91647619Y-105752380D01*
X91504761Y-105704761D01*
X91409523Y-105609523D01*
X91361904Y-105514285D01*
X91314285Y-105323809D01*
X91314285Y-105180952D01*
X91361904Y-104990476D01*
X91409523Y-104895238D01*
X91504761Y-104800000D01*
X91647619Y-104752380D01*
X91742857Y-104752380D01*
X91885714Y-104800000D01*
X91933333Y-104847619D01*
X92314285Y-104847619D02*
X92361904Y-104800000D01*
X92457142Y-104752380D01*
X92695238Y-104752380D01*
X92790476Y-104800000D01*
X92838095Y-104847619D01*
X92885714Y-104942857D01*
X92885714Y-105038095D01*
X92838095Y-105180952D01*
X92266666Y-105752380D01*
X92885714Y-105752380D01*
%TO.C,C3*%
X79757142Y-93866666D02*
X79804761Y-93914285D01*
X79852380Y-94057142D01*
X79852380Y-94152380D01*
X79804761Y-94295238D01*
X79709523Y-94390476D01*
X79614285Y-94438095D01*
X79423809Y-94485714D01*
X79280952Y-94485714D01*
X79090476Y-94438095D01*
X78995238Y-94390476D01*
X78900000Y-94295238D01*
X78852380Y-94152380D01*
X78852380Y-94057142D01*
X78900000Y-93914285D01*
X78947619Y-93866666D01*
X78852380Y-93533333D02*
X78852380Y-92914285D01*
X79233333Y-93247619D01*
X79233333Y-93104761D01*
X79280952Y-93009523D01*
X79328571Y-92961904D01*
X79423809Y-92914285D01*
X79661904Y-92914285D01*
X79757142Y-92961904D01*
X79804761Y-93009523D01*
X79852380Y-93104761D01*
X79852380Y-93390476D01*
X79804761Y-93485714D01*
X79757142Y-93533333D01*
%TO.C,C4*%
X63033333Y-86657142D02*
X62985714Y-86704761D01*
X62842857Y-86752380D01*
X62747619Y-86752380D01*
X62604761Y-86704761D01*
X62509523Y-86609523D01*
X62461904Y-86514285D01*
X62414285Y-86323809D01*
X62414285Y-86180952D01*
X62461904Y-85990476D01*
X62509523Y-85895238D01*
X62604761Y-85800000D01*
X62747619Y-85752380D01*
X62842857Y-85752380D01*
X62985714Y-85800000D01*
X63033333Y-85847619D01*
X63890476Y-86085714D02*
X63890476Y-86752380D01*
X63652380Y-85704761D02*
X63414285Y-86419047D01*
X64033333Y-86419047D01*
%TO.C,C5*%
X59533333Y-88057142D02*
X59485714Y-88104761D01*
X59342857Y-88152380D01*
X59247619Y-88152380D01*
X59104761Y-88104761D01*
X59009523Y-88009523D01*
X58961904Y-87914285D01*
X58914285Y-87723809D01*
X58914285Y-87580952D01*
X58961904Y-87390476D01*
X59009523Y-87295238D01*
X59104761Y-87200000D01*
X59247619Y-87152380D01*
X59342857Y-87152380D01*
X59485714Y-87200000D01*
X59533333Y-87247619D01*
X60438095Y-87152380D02*
X59961904Y-87152380D01*
X59914285Y-87628571D01*
X59961904Y-87580952D01*
X60057142Y-87533333D01*
X60295238Y-87533333D01*
X60390476Y-87580952D01*
X60438095Y-87628571D01*
X60485714Y-87723809D01*
X60485714Y-87961904D01*
X60438095Y-88057142D01*
X60390476Y-88104761D01*
X60295238Y-88152380D01*
X60057142Y-88152380D01*
X59961904Y-88104761D01*
X59914285Y-88057142D01*
%TO.C,C6*%
X75733333Y-90819642D02*
X75685714Y-90867261D01*
X75542857Y-90914880D01*
X75447619Y-90914880D01*
X75304761Y-90867261D01*
X75209523Y-90772023D01*
X75161904Y-90676785D01*
X75114285Y-90486309D01*
X75114285Y-90343452D01*
X75161904Y-90152976D01*
X75209523Y-90057738D01*
X75304761Y-89962500D01*
X75447619Y-89914880D01*
X75542857Y-89914880D01*
X75685714Y-89962500D01*
X75733333Y-90010119D01*
X76590476Y-89914880D02*
X76400000Y-89914880D01*
X76304761Y-89962500D01*
X76257142Y-90010119D01*
X76161904Y-90152976D01*
X76114285Y-90343452D01*
X76114285Y-90724404D01*
X76161904Y-90819642D01*
X76209523Y-90867261D01*
X76304761Y-90914880D01*
X76495238Y-90914880D01*
X76590476Y-90867261D01*
X76638095Y-90819642D01*
X76685714Y-90724404D01*
X76685714Y-90486309D01*
X76638095Y-90391071D01*
X76590476Y-90343452D01*
X76495238Y-90295833D01*
X76304761Y-90295833D01*
X76209523Y-90343452D01*
X76161904Y-90391071D01*
X76114285Y-90486309D01*
%TO.C,C8*%
X50733333Y-78357142D02*
X50685714Y-78404761D01*
X50542857Y-78452380D01*
X50447619Y-78452380D01*
X50304761Y-78404761D01*
X50209523Y-78309523D01*
X50161904Y-78214285D01*
X50114285Y-78023809D01*
X50114285Y-77880952D01*
X50161904Y-77690476D01*
X50209523Y-77595238D01*
X50304761Y-77500000D01*
X50447619Y-77452380D01*
X50542857Y-77452380D01*
X50685714Y-77500000D01*
X50733333Y-77547619D01*
X51304761Y-77880952D02*
X51209523Y-77833333D01*
X51161904Y-77785714D01*
X51114285Y-77690476D01*
X51114285Y-77642857D01*
X51161904Y-77547619D01*
X51209523Y-77500000D01*
X51304761Y-77452380D01*
X51495238Y-77452380D01*
X51590476Y-77500000D01*
X51638095Y-77547619D01*
X51685714Y-77642857D01*
X51685714Y-77690476D01*
X51638095Y-77785714D01*
X51590476Y-77833333D01*
X51495238Y-77880952D01*
X51304761Y-77880952D01*
X51209523Y-77928571D01*
X51161904Y-77976190D01*
X51114285Y-78071428D01*
X51114285Y-78261904D01*
X51161904Y-78357142D01*
X51209523Y-78404761D01*
X51304761Y-78452380D01*
X51495238Y-78452380D01*
X51590476Y-78404761D01*
X51638095Y-78357142D01*
X51685714Y-78261904D01*
X51685714Y-78071428D01*
X51638095Y-77976190D01*
X51590476Y-77928571D01*
X51495238Y-77880952D01*
%TO.C,C9*%
X56933333Y-92257142D02*
X56885714Y-92304761D01*
X56742857Y-92352380D01*
X56647619Y-92352380D01*
X56504761Y-92304761D01*
X56409523Y-92209523D01*
X56361904Y-92114285D01*
X56314285Y-91923809D01*
X56314285Y-91780952D01*
X56361904Y-91590476D01*
X56409523Y-91495238D01*
X56504761Y-91400000D01*
X56647619Y-91352380D01*
X56742857Y-91352380D01*
X56885714Y-91400000D01*
X56933333Y-91447619D01*
X57409523Y-92352380D02*
X57600000Y-92352380D01*
X57695238Y-92304761D01*
X57742857Y-92257142D01*
X57838095Y-92114285D01*
X57885714Y-91923809D01*
X57885714Y-91542857D01*
X57838095Y-91447619D01*
X57790476Y-91400000D01*
X57695238Y-91352380D01*
X57504761Y-91352380D01*
X57409523Y-91400000D01*
X57361904Y-91447619D01*
X57314285Y-91542857D01*
X57314285Y-91780952D01*
X57361904Y-91876190D01*
X57409523Y-91923809D01*
X57504761Y-91971428D01*
X57695238Y-91971428D01*
X57790476Y-91923809D01*
X57838095Y-91876190D01*
X57885714Y-91780952D01*
%TO.C,C10*%
X60494642Y-100087142D02*
X60447023Y-100134761D01*
X60304166Y-100182380D01*
X60208928Y-100182380D01*
X60066071Y-100134761D01*
X59970833Y-100039523D01*
X59923214Y-99944285D01*
X59875595Y-99753809D01*
X59875595Y-99610952D01*
X59923214Y-99420476D01*
X59970833Y-99325238D01*
X60066071Y-99230000D01*
X60208928Y-99182380D01*
X60304166Y-99182380D01*
X60447023Y-99230000D01*
X60494642Y-99277619D01*
X61447023Y-100182380D02*
X60875595Y-100182380D01*
X61161309Y-100182380D02*
X61161309Y-99182380D01*
X61066071Y-99325238D01*
X60970833Y-99420476D01*
X60875595Y-99468095D01*
X62066071Y-99182380D02*
X62161309Y-99182380D01*
X62256547Y-99230000D01*
X62304166Y-99277619D01*
X62351785Y-99372857D01*
X62399404Y-99563333D01*
X62399404Y-99801428D01*
X62351785Y-99991904D01*
X62304166Y-100087142D01*
X62256547Y-100134761D01*
X62161309Y-100182380D01*
X62066071Y-100182380D01*
X61970833Y-100134761D01*
X61923214Y-100087142D01*
X61875595Y-99991904D01*
X61827976Y-99801428D01*
X61827976Y-99563333D01*
X61875595Y-99372857D01*
X61923214Y-99277619D01*
X61970833Y-99230000D01*
X62066071Y-99182380D01*
%TO.C,C11*%
X51457142Y-97857142D02*
X51409523Y-97904761D01*
X51266666Y-97952380D01*
X51171428Y-97952380D01*
X51028571Y-97904761D01*
X50933333Y-97809523D01*
X50885714Y-97714285D01*
X50838095Y-97523809D01*
X50838095Y-97380952D01*
X50885714Y-97190476D01*
X50933333Y-97095238D01*
X51028571Y-97000000D01*
X51171428Y-96952380D01*
X51266666Y-96952380D01*
X51409523Y-97000000D01*
X51457142Y-97047619D01*
X52409523Y-97952380D02*
X51838095Y-97952380D01*
X52123809Y-97952380D02*
X52123809Y-96952380D01*
X52028571Y-97095238D01*
X51933333Y-97190476D01*
X51838095Y-97238095D01*
X53361904Y-97952380D02*
X52790476Y-97952380D01*
X53076190Y-97952380D02*
X53076190Y-96952380D01*
X52980952Y-97095238D01*
X52885714Y-97190476D01*
X52790476Y-97238095D01*
%TO.C,C12*%
X78457142Y-90742857D02*
X78504761Y-90790476D01*
X78552380Y-90933333D01*
X78552380Y-91028571D01*
X78504761Y-91171428D01*
X78409523Y-91266666D01*
X78314285Y-91314285D01*
X78123809Y-91361904D01*
X77980952Y-91361904D01*
X77790476Y-91314285D01*
X77695238Y-91266666D01*
X77600000Y-91171428D01*
X77552380Y-91028571D01*
X77552380Y-90933333D01*
X77600000Y-90790476D01*
X77647619Y-90742857D01*
X78552380Y-89790476D02*
X78552380Y-90361904D01*
X78552380Y-90076190D02*
X77552380Y-90076190D01*
X77695238Y-90171428D01*
X77790476Y-90266666D01*
X77838095Y-90361904D01*
X77647619Y-89409523D02*
X77600000Y-89361904D01*
X77552380Y-89266666D01*
X77552380Y-89028571D01*
X77600000Y-88933333D01*
X77647619Y-88885714D01*
X77742857Y-88838095D01*
X77838095Y-88838095D01*
X77980952Y-88885714D01*
X78552380Y-89457142D01*
X78552380Y-88838095D01*
%TO.C,C13*%
X52057142Y-84257142D02*
X52009523Y-84304761D01*
X51866666Y-84352380D01*
X51771428Y-84352380D01*
X51628571Y-84304761D01*
X51533333Y-84209523D01*
X51485714Y-84114285D01*
X51438095Y-83923809D01*
X51438095Y-83780952D01*
X51485714Y-83590476D01*
X51533333Y-83495238D01*
X51628571Y-83400000D01*
X51771428Y-83352380D01*
X51866666Y-83352380D01*
X52009523Y-83400000D01*
X52057142Y-83447619D01*
X53009523Y-84352380D02*
X52438095Y-84352380D01*
X52723809Y-84352380D02*
X52723809Y-83352380D01*
X52628571Y-83495238D01*
X52533333Y-83590476D01*
X52438095Y-83638095D01*
X53342857Y-83352380D02*
X53961904Y-83352380D01*
X53628571Y-83733333D01*
X53771428Y-83733333D01*
X53866666Y-83780952D01*
X53914285Y-83828571D01*
X53961904Y-83923809D01*
X53961904Y-84161904D01*
X53914285Y-84257142D01*
X53866666Y-84304761D01*
X53771428Y-84352380D01*
X53485714Y-84352380D01*
X53390476Y-84304761D01*
X53342857Y-84257142D01*
%TO.C,C15*%
X83017857Y-89967857D02*
X82982142Y-90003571D01*
X82875000Y-90039285D01*
X82803571Y-90039285D01*
X82696428Y-90003571D01*
X82625000Y-89932142D01*
X82589285Y-89860714D01*
X82553571Y-89717857D01*
X82553571Y-89610714D01*
X82589285Y-89467857D01*
X82625000Y-89396428D01*
X82696428Y-89325000D01*
X82803571Y-89289285D01*
X82875000Y-89289285D01*
X82982142Y-89325000D01*
X83017857Y-89360714D01*
X83732142Y-90039285D02*
X83303571Y-90039285D01*
X83517857Y-90039285D02*
X83517857Y-89289285D01*
X83446428Y-89396428D01*
X83375000Y-89467857D01*
X83303571Y-89503571D01*
X84410714Y-89289285D02*
X84053571Y-89289285D01*
X84017857Y-89646428D01*
X84053571Y-89610714D01*
X84125000Y-89575000D01*
X84303571Y-89575000D01*
X84375000Y-89610714D01*
X84410714Y-89646428D01*
X84446428Y-89717857D01*
X84446428Y-89896428D01*
X84410714Y-89967857D01*
X84375000Y-90003571D01*
X84303571Y-90039285D01*
X84125000Y-90039285D01*
X84053571Y-90003571D01*
X84017857Y-89967857D01*
%TO.C,C16*%
X102257142Y-83242857D02*
X102304761Y-83290476D01*
X102352380Y-83433333D01*
X102352380Y-83528571D01*
X102304761Y-83671428D01*
X102209523Y-83766666D01*
X102114285Y-83814285D01*
X101923809Y-83861904D01*
X101780952Y-83861904D01*
X101590476Y-83814285D01*
X101495238Y-83766666D01*
X101400000Y-83671428D01*
X101352380Y-83528571D01*
X101352380Y-83433333D01*
X101400000Y-83290476D01*
X101447619Y-83242857D01*
X102352380Y-82290476D02*
X102352380Y-82861904D01*
X102352380Y-82576190D02*
X101352380Y-82576190D01*
X101495238Y-82671428D01*
X101590476Y-82766666D01*
X101638095Y-82861904D01*
X101352380Y-81433333D02*
X101352380Y-81623809D01*
X101400000Y-81719047D01*
X101447619Y-81766666D01*
X101590476Y-81861904D01*
X101780952Y-81909523D01*
X102161904Y-81909523D01*
X102257142Y-81861904D01*
X102304761Y-81814285D01*
X102352380Y-81719047D01*
X102352380Y-81528571D01*
X102304761Y-81433333D01*
X102257142Y-81385714D01*
X102161904Y-81338095D01*
X101923809Y-81338095D01*
X101828571Y-81385714D01*
X101780952Y-81433333D01*
X101733333Y-81528571D01*
X101733333Y-81719047D01*
X101780952Y-81814285D01*
X101828571Y-81861904D01*
X101923809Y-81909523D01*
%TO.C,C17*%
X100657142Y-83242857D02*
X100704761Y-83290476D01*
X100752380Y-83433333D01*
X100752380Y-83528571D01*
X100704761Y-83671428D01*
X100609523Y-83766666D01*
X100514285Y-83814285D01*
X100323809Y-83861904D01*
X100180952Y-83861904D01*
X99990476Y-83814285D01*
X99895238Y-83766666D01*
X99800000Y-83671428D01*
X99752380Y-83528571D01*
X99752380Y-83433333D01*
X99800000Y-83290476D01*
X99847619Y-83242857D01*
X100752380Y-82290476D02*
X100752380Y-82861904D01*
X100752380Y-82576190D02*
X99752380Y-82576190D01*
X99895238Y-82671428D01*
X99990476Y-82766666D01*
X100038095Y-82861904D01*
X99752380Y-81957142D02*
X99752380Y-81290476D01*
X100752380Y-81719047D01*
%TO.C,C18*%
X102657142Y-103542857D02*
X102704761Y-103590476D01*
X102752380Y-103733333D01*
X102752380Y-103828571D01*
X102704761Y-103971428D01*
X102609523Y-104066666D01*
X102514285Y-104114285D01*
X102323809Y-104161904D01*
X102180952Y-104161904D01*
X101990476Y-104114285D01*
X101895238Y-104066666D01*
X101800000Y-103971428D01*
X101752380Y-103828571D01*
X101752380Y-103733333D01*
X101800000Y-103590476D01*
X101847619Y-103542857D01*
X102752380Y-102590476D02*
X102752380Y-103161904D01*
X102752380Y-102876190D02*
X101752380Y-102876190D01*
X101895238Y-102971428D01*
X101990476Y-103066666D01*
X102038095Y-103161904D01*
X102180952Y-102019047D02*
X102133333Y-102114285D01*
X102085714Y-102161904D01*
X101990476Y-102209523D01*
X101942857Y-102209523D01*
X101847619Y-102161904D01*
X101800000Y-102114285D01*
X101752380Y-102019047D01*
X101752380Y-101828571D01*
X101800000Y-101733333D01*
X101847619Y-101685714D01*
X101942857Y-101638095D01*
X101990476Y-101638095D01*
X102085714Y-101685714D01*
X102133333Y-101733333D01*
X102180952Y-101828571D01*
X102180952Y-102019047D01*
X102228571Y-102114285D01*
X102276190Y-102161904D01*
X102371428Y-102209523D01*
X102561904Y-102209523D01*
X102657142Y-102161904D01*
X102704761Y-102114285D01*
X102752380Y-102019047D01*
X102752380Y-101828571D01*
X102704761Y-101733333D01*
X102657142Y-101685714D01*
X102561904Y-101638095D01*
X102371428Y-101638095D01*
X102276190Y-101685714D01*
X102228571Y-101733333D01*
X102180952Y-101828571D01*
%TO.C,C20*%
X72594642Y-73757142D02*
X72547023Y-73804761D01*
X72404166Y-73852380D01*
X72308928Y-73852380D01*
X72166071Y-73804761D01*
X72070833Y-73709523D01*
X72023214Y-73614285D01*
X71975595Y-73423809D01*
X71975595Y-73280952D01*
X72023214Y-73090476D01*
X72070833Y-72995238D01*
X72166071Y-72900000D01*
X72308928Y-72852380D01*
X72404166Y-72852380D01*
X72547023Y-72900000D01*
X72594642Y-72947619D01*
X72975595Y-72947619D02*
X73023214Y-72900000D01*
X73118452Y-72852380D01*
X73356547Y-72852380D01*
X73451785Y-72900000D01*
X73499404Y-72947619D01*
X73547023Y-73042857D01*
X73547023Y-73138095D01*
X73499404Y-73280952D01*
X72927976Y-73852380D01*
X73547023Y-73852380D01*
X74166071Y-72852380D02*
X74261309Y-72852380D01*
X74356547Y-72900000D01*
X74404166Y-72947619D01*
X74451785Y-73042857D01*
X74499404Y-73233333D01*
X74499404Y-73471428D01*
X74451785Y-73661904D01*
X74404166Y-73757142D01*
X74356547Y-73804761D01*
X74261309Y-73852380D01*
X74166071Y-73852380D01*
X74070833Y-73804761D01*
X74023214Y-73757142D01*
X73975595Y-73661904D01*
X73927976Y-73471428D01*
X73927976Y-73233333D01*
X73975595Y-73042857D01*
X74023214Y-72947619D01*
X74070833Y-72900000D01*
X74166071Y-72852380D01*
%TO.C,C21*%
X69094642Y-73657142D02*
X69047023Y-73704761D01*
X68904166Y-73752380D01*
X68808928Y-73752380D01*
X68666071Y-73704761D01*
X68570833Y-73609523D01*
X68523214Y-73514285D01*
X68475595Y-73323809D01*
X68475595Y-73180952D01*
X68523214Y-72990476D01*
X68570833Y-72895238D01*
X68666071Y-72800000D01*
X68808928Y-72752380D01*
X68904166Y-72752380D01*
X69047023Y-72800000D01*
X69094642Y-72847619D01*
X69475595Y-72847619D02*
X69523214Y-72800000D01*
X69618452Y-72752380D01*
X69856547Y-72752380D01*
X69951785Y-72800000D01*
X69999404Y-72847619D01*
X70047023Y-72942857D01*
X70047023Y-73038095D01*
X69999404Y-73180952D01*
X69427976Y-73752380D01*
X70047023Y-73752380D01*
X70999404Y-73752380D02*
X70427976Y-73752380D01*
X70713690Y-73752380D02*
X70713690Y-72752380D01*
X70618452Y-72895238D01*
X70523214Y-72990476D01*
X70427976Y-73038095D01*
%TO.C,C22*%
X65494642Y-81757142D02*
X65447023Y-81804761D01*
X65304166Y-81852380D01*
X65208928Y-81852380D01*
X65066071Y-81804761D01*
X64970833Y-81709523D01*
X64923214Y-81614285D01*
X64875595Y-81423809D01*
X64875595Y-81280952D01*
X64923214Y-81090476D01*
X64970833Y-80995238D01*
X65066071Y-80900000D01*
X65208928Y-80852380D01*
X65304166Y-80852380D01*
X65447023Y-80900000D01*
X65494642Y-80947619D01*
X65875595Y-80947619D02*
X65923214Y-80900000D01*
X66018452Y-80852380D01*
X66256547Y-80852380D01*
X66351785Y-80900000D01*
X66399404Y-80947619D01*
X66447023Y-81042857D01*
X66447023Y-81138095D01*
X66399404Y-81280952D01*
X65827976Y-81852380D01*
X66447023Y-81852380D01*
X66827976Y-80947619D02*
X66875595Y-80900000D01*
X66970833Y-80852380D01*
X67208928Y-80852380D01*
X67304166Y-80900000D01*
X67351785Y-80947619D01*
X67399404Y-81042857D01*
X67399404Y-81138095D01*
X67351785Y-81280952D01*
X66780357Y-81852380D01*
X67399404Y-81852380D01*
%TO.C,C23*%
X89457142Y-110317857D02*
X89504761Y-110365476D01*
X89552380Y-110508333D01*
X89552380Y-110603571D01*
X89504761Y-110746428D01*
X89409523Y-110841666D01*
X89314285Y-110889285D01*
X89123809Y-110936904D01*
X88980952Y-110936904D01*
X88790476Y-110889285D01*
X88695238Y-110841666D01*
X88600000Y-110746428D01*
X88552380Y-110603571D01*
X88552380Y-110508333D01*
X88600000Y-110365476D01*
X88647619Y-110317857D01*
X88647619Y-109936904D02*
X88600000Y-109889285D01*
X88552380Y-109794047D01*
X88552380Y-109555952D01*
X88600000Y-109460714D01*
X88647619Y-109413095D01*
X88742857Y-109365476D01*
X88838095Y-109365476D01*
X88980952Y-109413095D01*
X89552380Y-109984523D01*
X89552380Y-109365476D01*
X88552380Y-109032142D02*
X88552380Y-108413095D01*
X88933333Y-108746428D01*
X88933333Y-108603571D01*
X88980952Y-108508333D01*
X89028571Y-108460714D01*
X89123809Y-108413095D01*
X89361904Y-108413095D01*
X89457142Y-108460714D01*
X89504761Y-108508333D01*
X89552380Y-108603571D01*
X89552380Y-108889285D01*
X89504761Y-108984523D01*
X89457142Y-109032142D01*
%TO.C,IC2*%
X99639285Y-98432142D02*
X98889285Y-98432142D01*
X99567857Y-97646428D02*
X99603571Y-97682142D01*
X99639285Y-97789285D01*
X99639285Y-97860714D01*
X99603571Y-97967857D01*
X99532142Y-98039285D01*
X99460714Y-98075000D01*
X99317857Y-98110714D01*
X99210714Y-98110714D01*
X99067857Y-98075000D01*
X98996428Y-98039285D01*
X98925000Y-97967857D01*
X98889285Y-97860714D01*
X98889285Y-97789285D01*
X98925000Y-97682142D01*
X98960714Y-97646428D01*
X98960714Y-97360714D02*
X98925000Y-97325000D01*
X98889285Y-97253571D01*
X98889285Y-97075000D01*
X98925000Y-97003571D01*
X98960714Y-96967857D01*
X99032142Y-96932142D01*
X99103571Y-96932142D01*
X99210714Y-96967857D01*
X99639285Y-97396428D01*
X99639285Y-96932142D01*
%TO.C,J1*%
D16*
X48296800Y-88766171D02*
X48296800Y-89201600D01*
X48267771Y-89288685D01*
X48209714Y-89346742D01*
X48122628Y-89375771D01*
X48064571Y-89375771D01*
X48906400Y-89375771D02*
X48558057Y-89375771D01*
X48732228Y-89375771D02*
X48732228Y-88766171D01*
X48674171Y-88853257D01*
X48616114Y-88911314D01*
X48558057Y-88940342D01*
%TO.C,LDO1*%
D13*
X92709523Y-99952380D02*
X92233333Y-99952380D01*
X92233333Y-98952380D01*
X93042857Y-99952380D02*
X93042857Y-98952380D01*
X93280952Y-98952380D01*
X93423809Y-99000000D01*
X93519047Y-99095238D01*
X93566666Y-99190476D01*
X93614285Y-99380952D01*
X93614285Y-99523809D01*
X93566666Y-99714285D01*
X93519047Y-99809523D01*
X93423809Y-99904761D01*
X93280952Y-99952380D01*
X93042857Y-99952380D01*
X94233333Y-98952380D02*
X94423809Y-98952380D01*
X94519047Y-99000000D01*
X94614285Y-99095238D01*
X94661904Y-99285714D01*
X94661904Y-99619047D01*
X94614285Y-99809523D01*
X94519047Y-99904761D01*
X94423809Y-99952380D01*
X94233333Y-99952380D01*
X94138095Y-99904761D01*
X94042857Y-99809523D01*
X93995238Y-99619047D01*
X93995238Y-99285714D01*
X94042857Y-99095238D01*
X94138095Y-99000000D01*
X94233333Y-98952380D01*
X95614285Y-99952380D02*
X95042857Y-99952380D01*
X95328571Y-99952380D02*
X95328571Y-98952380D01*
X95233333Y-99095238D01*
X95138095Y-99190476D01*
X95042857Y-99238095D01*
%TO.C,R1*%
X59533333Y-78352380D02*
X59200000Y-77876190D01*
X58961904Y-78352380D02*
X58961904Y-77352380D01*
X59342857Y-77352380D01*
X59438095Y-77400000D01*
X59485714Y-77447619D01*
X59533333Y-77542857D01*
X59533333Y-77685714D01*
X59485714Y-77780952D01*
X59438095Y-77828571D01*
X59342857Y-77876190D01*
X58961904Y-77876190D01*
X60485714Y-78352380D02*
X59914285Y-78352380D01*
X60200000Y-78352380D02*
X60200000Y-77352380D01*
X60104761Y-77495238D01*
X60009523Y-77590476D01*
X59914285Y-77638095D01*
%TO.C,R2*%
X45552380Y-93666666D02*
X45076190Y-94000000D01*
X45552380Y-94238095D02*
X44552380Y-94238095D01*
X44552380Y-93857142D01*
X44600000Y-93761904D01*
X44647619Y-93714285D01*
X44742857Y-93666666D01*
X44885714Y-93666666D01*
X44980952Y-93714285D01*
X45028571Y-93761904D01*
X45076190Y-93857142D01*
X45076190Y-94238095D01*
X44647619Y-93285714D02*
X44600000Y-93238095D01*
X44552380Y-93142857D01*
X44552380Y-92904761D01*
X44600000Y-92809523D01*
X44647619Y-92761904D01*
X44742857Y-92714285D01*
X44838095Y-92714285D01*
X44980952Y-92761904D01*
X45552380Y-93333333D01*
X45552380Y-92714285D01*
%TO.C,R3*%
X46820833Y-98082380D02*
X46487500Y-97606190D01*
X46249404Y-98082380D02*
X46249404Y-97082380D01*
X46630357Y-97082380D01*
X46725595Y-97130000D01*
X46773214Y-97177619D01*
X46820833Y-97272857D01*
X46820833Y-97415714D01*
X46773214Y-97510952D01*
X46725595Y-97558571D01*
X46630357Y-97606190D01*
X46249404Y-97606190D01*
X47154166Y-97082380D02*
X47773214Y-97082380D01*
X47439880Y-97463333D01*
X47582738Y-97463333D01*
X47677976Y-97510952D01*
X47725595Y-97558571D01*
X47773214Y-97653809D01*
X47773214Y-97891904D01*
X47725595Y-97987142D01*
X47677976Y-98034761D01*
X47582738Y-98082380D01*
X47297023Y-98082380D01*
X47201785Y-98034761D01*
X47154166Y-97987142D01*
%TO.C,R4*%
X64822380Y-106566666D02*
X64346190Y-106900000D01*
X64822380Y-107138095D02*
X63822380Y-107138095D01*
X63822380Y-106757142D01*
X63870000Y-106661904D01*
X63917619Y-106614285D01*
X64012857Y-106566666D01*
X64155714Y-106566666D01*
X64250952Y-106614285D01*
X64298571Y-106661904D01*
X64346190Y-106757142D01*
X64346190Y-107138095D01*
X64155714Y-105709523D02*
X64822380Y-105709523D01*
X63774761Y-105947619D02*
X64489047Y-106185714D01*
X64489047Y-105566666D01*
%TO.C,R5*%
X70122380Y-106566666D02*
X69646190Y-106900000D01*
X70122380Y-107138095D02*
X69122380Y-107138095D01*
X69122380Y-106757142D01*
X69170000Y-106661904D01*
X69217619Y-106614285D01*
X69312857Y-106566666D01*
X69455714Y-106566666D01*
X69550952Y-106614285D01*
X69598571Y-106661904D01*
X69646190Y-106757142D01*
X69646190Y-107138095D01*
X69122380Y-105661904D02*
X69122380Y-106138095D01*
X69598571Y-106185714D01*
X69550952Y-106138095D01*
X69503333Y-106042857D01*
X69503333Y-105804761D01*
X69550952Y-105709523D01*
X69598571Y-105661904D01*
X69693809Y-105614285D01*
X69931904Y-105614285D01*
X70027142Y-105661904D01*
X70074761Y-105709523D01*
X70122380Y-105804761D01*
X70122380Y-106042857D01*
X70074761Y-106138095D01*
X70027142Y-106185714D01*
%TO.C,R6*%
X98733333Y-105752380D02*
X98400000Y-105276190D01*
X98161904Y-105752380D02*
X98161904Y-104752380D01*
X98542857Y-104752380D01*
X98638095Y-104800000D01*
X98685714Y-104847619D01*
X98733333Y-104942857D01*
X98733333Y-105085714D01*
X98685714Y-105180952D01*
X98638095Y-105228571D01*
X98542857Y-105276190D01*
X98161904Y-105276190D01*
X99590476Y-104752380D02*
X99400000Y-104752380D01*
X99304761Y-104800000D01*
X99257142Y-104847619D01*
X99161904Y-104990476D01*
X99114285Y-105180952D01*
X99114285Y-105561904D01*
X99161904Y-105657142D01*
X99209523Y-105704761D01*
X99304761Y-105752380D01*
X99495238Y-105752380D01*
X99590476Y-105704761D01*
X99638095Y-105657142D01*
X99685714Y-105561904D01*
X99685714Y-105323809D01*
X99638095Y-105228571D01*
X99590476Y-105180952D01*
X99495238Y-105133333D01*
X99304761Y-105133333D01*
X99209523Y-105180952D01*
X99161904Y-105228571D01*
X99114285Y-105323809D01*
%TO.C,R7*%
X81633333Y-88552380D02*
X81300000Y-88076190D01*
X81061904Y-88552380D02*
X81061904Y-87552380D01*
X81442857Y-87552380D01*
X81538095Y-87600000D01*
X81585714Y-87647619D01*
X81633333Y-87742857D01*
X81633333Y-87885714D01*
X81585714Y-87980952D01*
X81538095Y-88028571D01*
X81442857Y-88076190D01*
X81061904Y-88076190D01*
X81966666Y-87552380D02*
X82633333Y-87552380D01*
X82204761Y-88552380D01*
%TO.C,R9*%
X82933333Y-113952380D02*
X82600000Y-113476190D01*
X82361904Y-113952380D02*
X82361904Y-112952380D01*
X82742857Y-112952380D01*
X82838095Y-113000000D01*
X82885714Y-113047619D01*
X82933333Y-113142857D01*
X82933333Y-113285714D01*
X82885714Y-113380952D01*
X82838095Y-113428571D01*
X82742857Y-113476190D01*
X82361904Y-113476190D01*
X83409523Y-113952380D02*
X83600000Y-113952380D01*
X83695238Y-113904761D01*
X83742857Y-113857142D01*
X83838095Y-113714285D01*
X83885714Y-113523809D01*
X83885714Y-113142857D01*
X83838095Y-113047619D01*
X83790476Y-113000000D01*
X83695238Y-112952380D01*
X83504761Y-112952380D01*
X83409523Y-113000000D01*
X83361904Y-113047619D01*
X83314285Y-113142857D01*
X83314285Y-113380952D01*
X83361904Y-113476190D01*
X83409523Y-113523809D01*
X83504761Y-113571428D01*
X83695238Y-113571428D01*
X83790476Y-113523809D01*
X83838095Y-113476190D01*
X83885714Y-113380952D01*
%TO.C,R11*%
X79152380Y-74942857D02*
X78676190Y-75276190D01*
X79152380Y-75514285D02*
X78152380Y-75514285D01*
X78152380Y-75133333D01*
X78200000Y-75038095D01*
X78247619Y-74990476D01*
X78342857Y-74942857D01*
X78485714Y-74942857D01*
X78580952Y-74990476D01*
X78628571Y-75038095D01*
X78676190Y-75133333D01*
X78676190Y-75514285D01*
X79152380Y-73990476D02*
X79152380Y-74561904D01*
X79152380Y-74276190D02*
X78152380Y-74276190D01*
X78295238Y-74371428D01*
X78390476Y-74466666D01*
X78438095Y-74561904D01*
X79152380Y-73038095D02*
X79152380Y-73609523D01*
X79152380Y-73323809D02*
X78152380Y-73323809D01*
X78295238Y-73419047D01*
X78390476Y-73514285D01*
X78438095Y-73609523D01*
%TO.C,R12*%
X80257142Y-80552380D02*
X79923809Y-80076190D01*
X79685714Y-80552380D02*
X79685714Y-79552380D01*
X80066666Y-79552380D01*
X80161904Y-79600000D01*
X80209523Y-79647619D01*
X80257142Y-79742857D01*
X80257142Y-79885714D01*
X80209523Y-79980952D01*
X80161904Y-80028571D01*
X80066666Y-80076190D01*
X79685714Y-80076190D01*
X81209523Y-80552380D02*
X80638095Y-80552380D01*
X80923809Y-80552380D02*
X80923809Y-79552380D01*
X80828571Y-79695238D01*
X80733333Y-79790476D01*
X80638095Y-79838095D01*
X81590476Y-79647619D02*
X81638095Y-79600000D01*
X81733333Y-79552380D01*
X81971428Y-79552380D01*
X82066666Y-79600000D01*
X82114285Y-79647619D01*
X82161904Y-79742857D01*
X82161904Y-79838095D01*
X82114285Y-79980952D01*
X81542857Y-80552380D01*
X82161904Y-80552380D01*
%TO.C,RTC1*%
X72052380Y-79697619D02*
X71576190Y-80030952D01*
X72052380Y-80269047D02*
X71052380Y-80269047D01*
X71052380Y-79888095D01*
X71100000Y-79792857D01*
X71147619Y-79745238D01*
X71242857Y-79697619D01*
X71385714Y-79697619D01*
X71480952Y-79745238D01*
X71528571Y-79792857D01*
X71576190Y-79888095D01*
X71576190Y-80269047D01*
X71052380Y-79411904D02*
X71052380Y-78840476D01*
X72052380Y-79126190D02*
X71052380Y-79126190D01*
X71957142Y-77935714D02*
X72004761Y-77983333D01*
X72052380Y-78126190D01*
X72052380Y-78221428D01*
X72004761Y-78364285D01*
X71909523Y-78459523D01*
X71814285Y-78507142D01*
X71623809Y-78554761D01*
X71480952Y-78554761D01*
X71290476Y-78507142D01*
X71195238Y-78459523D01*
X71100000Y-78364285D01*
X71052380Y-78221428D01*
X71052380Y-78126190D01*
X71100000Y-77983333D01*
X71147619Y-77935714D01*
X72052380Y-76983333D02*
X72052380Y-77554761D01*
X72052380Y-77269047D02*
X71052380Y-77269047D01*
X71195238Y-77364285D01*
X71290476Y-77459523D01*
X71338095Y-77554761D01*
%TO.C,SW1*%
X88666666Y-107104761D02*
X88809523Y-107152380D01*
X89047619Y-107152380D01*
X89142857Y-107104761D01*
X89190476Y-107057142D01*
X89238095Y-106961904D01*
X89238095Y-106866666D01*
X89190476Y-106771428D01*
X89142857Y-106723809D01*
X89047619Y-106676190D01*
X88857142Y-106628571D01*
X88761904Y-106580952D01*
X88714285Y-106533333D01*
X88666666Y-106438095D01*
X88666666Y-106342857D01*
X88714285Y-106247619D01*
X88761904Y-106200000D01*
X88857142Y-106152380D01*
X89095238Y-106152380D01*
X89238095Y-106200000D01*
X89571428Y-106152380D02*
X89809523Y-107152380D01*
X90000000Y-106438095D01*
X90190476Y-107152380D01*
X90428571Y-106152380D01*
X91333333Y-107152380D02*
X90761904Y-107152380D01*
X91047619Y-107152380D02*
X91047619Y-106152380D01*
X90952380Y-106295238D01*
X90857142Y-106390476D01*
X90761904Y-106438095D01*
%TO.C,SW2*%
D16*
X56287200Y-110386142D02*
X56374285Y-110415171D01*
X56519428Y-110415171D01*
X56577485Y-110386142D01*
X56606514Y-110357114D01*
X56635542Y-110299057D01*
X56635542Y-110241000D01*
X56606514Y-110182942D01*
X56577485Y-110153914D01*
X56519428Y-110124885D01*
X56403314Y-110095857D01*
X56345257Y-110066828D01*
X56316228Y-110037800D01*
X56287200Y-109979742D01*
X56287200Y-109921685D01*
X56316228Y-109863628D01*
X56345257Y-109834600D01*
X56403314Y-109805571D01*
X56548457Y-109805571D01*
X56635542Y-109834600D01*
X56838742Y-109805571D02*
X56983885Y-110415171D01*
X57100000Y-109979742D01*
X57216114Y-110415171D01*
X57361257Y-109805571D01*
X57564457Y-109863628D02*
X57593485Y-109834600D01*
X57651542Y-109805571D01*
X57796685Y-109805571D01*
X57854742Y-109834600D01*
X57883771Y-109863628D01*
X57912800Y-109921685D01*
X57912800Y-109979742D01*
X57883771Y-110066828D01*
X57535428Y-110415171D01*
X57912800Y-110415171D01*
%TO.C,TH1*%
D13*
X41871428Y-97761904D02*
X42328571Y-97761904D01*
X42100000Y-98561904D02*
X42100000Y-97761904D01*
X42595238Y-98561904D02*
X42595238Y-97761904D01*
X42595238Y-98142857D02*
X43052380Y-98142857D01*
X43052380Y-98561904D02*
X43052380Y-97761904D01*
X43852380Y-98561904D02*
X43395238Y-98561904D01*
X43623809Y-98561904D02*
X43623809Y-97761904D01*
X43547619Y-97876190D01*
X43471428Y-97952380D01*
X43395238Y-97990476D01*
%TO.C,U1*%
X49435595Y-91352380D02*
X49435595Y-92161904D01*
X49483214Y-92257142D01*
X49530833Y-92304761D01*
X49626071Y-92352380D01*
X49816547Y-92352380D01*
X49911785Y-92304761D01*
X49959404Y-92257142D01*
X50007023Y-92161904D01*
X50007023Y-91352380D01*
X51007023Y-92352380D02*
X50435595Y-92352380D01*
X50721309Y-92352380D02*
X50721309Y-91352380D01*
X50626071Y-91495238D01*
X50530833Y-91590476D01*
X50435595Y-91638095D01*
%TO.C,U4*%
X68909523Y-82704761D02*
X69052380Y-82752380D01*
X69290476Y-82752380D01*
X69385714Y-82704761D01*
X69433333Y-82657142D01*
X69480952Y-82561904D01*
X69480952Y-82466666D01*
X69433333Y-82371428D01*
X69385714Y-82323809D01*
X69290476Y-82276190D01*
X69100000Y-82228571D01*
X69004761Y-82180952D01*
X68957142Y-82133333D01*
X68909523Y-82038095D01*
X68909523Y-81942857D01*
X68957142Y-81847619D01*
X69004761Y-81800000D01*
X69100000Y-81752380D01*
X69338095Y-81752380D01*
X69480952Y-81800000D01*
X70480952Y-82657142D02*
X70433333Y-82704761D01*
X70290476Y-82752380D01*
X70195238Y-82752380D01*
X70052380Y-82704761D01*
X69957142Y-82609523D01*
X69909523Y-82514285D01*
X69861904Y-82323809D01*
X69861904Y-82180952D01*
X69909523Y-81990476D01*
X69957142Y-81895238D01*
X70052380Y-81800000D01*
X70195238Y-81752380D01*
X70290476Y-81752380D01*
X70433333Y-81800000D01*
X70480952Y-81847619D01*
X71385714Y-82752380D02*
X70909523Y-82752380D01*
X70909523Y-81752380D01*
%TO.C,U5*%
X72785714Y-84204761D02*
X72928571Y-84252380D01*
X73166666Y-84252380D01*
X73261904Y-84204761D01*
X73309523Y-84157142D01*
X73357142Y-84061904D01*
X73357142Y-83966666D01*
X73309523Y-83871428D01*
X73261904Y-83823809D01*
X73166666Y-83776190D01*
X72976190Y-83728571D01*
X72880952Y-83680952D01*
X72833333Y-83633333D01*
X72785714Y-83538095D01*
X72785714Y-83442857D01*
X72833333Y-83347619D01*
X72880952Y-83300000D01*
X72976190Y-83252380D01*
X73214285Y-83252380D01*
X73357142Y-83300000D01*
X73785714Y-84252380D02*
X73785714Y-83252380D01*
X74023809Y-83252380D01*
X74166666Y-83300000D01*
X74261904Y-83395238D01*
X74309523Y-83490476D01*
X74357142Y-83680952D01*
X74357142Y-83823809D01*
X74309523Y-84014285D01*
X74261904Y-84109523D01*
X74166666Y-84204761D01*
X74023809Y-84252380D01*
X73785714Y-84252380D01*
X74738095Y-83966666D02*
X75214285Y-83966666D01*
X74642857Y-84252380D02*
X74976190Y-83252380D01*
X75309523Y-84252380D01*
%TO.C,U6*%
X71552380Y-99671428D02*
X70552380Y-99671428D01*
X71266666Y-99338095D01*
X70552380Y-99004761D01*
X71552380Y-99004761D01*
X70552380Y-98338095D02*
X70552380Y-98147619D01*
X70600000Y-98052380D01*
X70695238Y-97957142D01*
X70885714Y-97909523D01*
X71219047Y-97909523D01*
X71409523Y-97957142D01*
X71504761Y-98052380D01*
X71552380Y-98147619D01*
X71552380Y-98338095D01*
X71504761Y-98433333D01*
X71409523Y-98528571D01*
X71219047Y-98576190D01*
X70885714Y-98576190D01*
X70695238Y-98528571D01*
X70600000Y-98433333D01*
X70552380Y-98338095D01*
X71504761Y-97528571D02*
X71552380Y-97385714D01*
X71552380Y-97147619D01*
X71504761Y-97052380D01*
X71457142Y-97004761D01*
X71361904Y-96957142D01*
X71266666Y-96957142D01*
X71171428Y-97004761D01*
X71123809Y-97052380D01*
X71076190Y-97147619D01*
X71028571Y-97338095D01*
X70980952Y-97433333D01*
X70933333Y-97480952D01*
X70838095Y-97528571D01*
X70742857Y-97528571D01*
X70647619Y-97480952D01*
X70600000Y-97433333D01*
X70552380Y-97338095D01*
X70552380Y-97100000D01*
X70600000Y-96957142D01*
X71552380Y-96528571D02*
X70552380Y-96528571D01*
%TO.C,U7*%
X73152380Y-99671428D02*
X72152380Y-99671428D01*
X72866666Y-99338095D01*
X72152380Y-99004761D01*
X73152380Y-99004761D01*
X73152380Y-98528571D02*
X72152380Y-98528571D01*
X73104761Y-98100000D02*
X73152380Y-97957142D01*
X73152380Y-97719047D01*
X73104761Y-97623809D01*
X73057142Y-97576190D01*
X72961904Y-97528571D01*
X72866666Y-97528571D01*
X72771428Y-97576190D01*
X72723809Y-97623809D01*
X72676190Y-97719047D01*
X72628571Y-97909523D01*
X72580952Y-98004761D01*
X72533333Y-98052380D01*
X72438095Y-98100000D01*
X72342857Y-98100000D01*
X72247619Y-98052380D01*
X72200000Y-98004761D01*
X72152380Y-97909523D01*
X72152380Y-97671428D01*
X72200000Y-97528571D01*
X72152380Y-96909523D02*
X72152380Y-96719047D01*
X72200000Y-96623809D01*
X72295238Y-96528571D01*
X72485714Y-96480952D01*
X72819047Y-96480952D01*
X73009523Y-96528571D01*
X73104761Y-96623809D01*
X73152380Y-96719047D01*
X73152380Y-96909523D01*
X73104761Y-97004761D01*
X73009523Y-97100000D01*
X72819047Y-97147619D01*
X72485714Y-97147619D01*
X72295238Y-97100000D01*
X72200000Y-97004761D01*
X72152380Y-96909523D01*
%TO.C,U8*%
X74504761Y-99085714D02*
X74552380Y-98942857D01*
X74552380Y-98704761D01*
X74504761Y-98609523D01*
X74457142Y-98561904D01*
X74361904Y-98514285D01*
X74266666Y-98514285D01*
X74171428Y-98561904D01*
X74123809Y-98609523D01*
X74076190Y-98704761D01*
X74028571Y-98895238D01*
X73980952Y-98990476D01*
X73933333Y-99038095D01*
X73838095Y-99085714D01*
X73742857Y-99085714D01*
X73647619Y-99038095D01*
X73600000Y-98990476D01*
X73552380Y-98895238D01*
X73552380Y-98657142D01*
X73600000Y-98514285D01*
X74457142Y-97514285D02*
X74504761Y-97561904D01*
X74552380Y-97704761D01*
X74552380Y-97800000D01*
X74504761Y-97942857D01*
X74409523Y-98038095D01*
X74314285Y-98085714D01*
X74123809Y-98133333D01*
X73980952Y-98133333D01*
X73790476Y-98085714D01*
X73695238Y-98038095D01*
X73600000Y-97942857D01*
X73552380Y-97800000D01*
X73552380Y-97704761D01*
X73600000Y-97561904D01*
X73647619Y-97514285D01*
X74552380Y-97085714D02*
X73552380Y-97085714D01*
X74552380Y-96514285D02*
X73980952Y-96942857D01*
X73552380Y-96514285D02*
X74123809Y-97085714D01*
%TO.C,U9*%
D19*
X101233333Y-90683333D02*
X101333333Y-90716666D01*
X101500000Y-90716666D01*
X101566666Y-90683333D01*
X101600000Y-90650000D01*
X101633333Y-90583333D01*
X101633333Y-90516666D01*
X101600000Y-90450000D01*
X101566666Y-90416666D01*
X101500000Y-90383333D01*
X101366666Y-90350000D01*
X101300000Y-90316666D01*
X101266666Y-90283333D01*
X101233333Y-90216666D01*
X101233333Y-90150000D01*
X101266666Y-90083333D01*
X101300000Y-90050000D01*
X101366666Y-90016666D01*
X101533333Y-90016666D01*
X101633333Y-90050000D01*
X101766666Y-90783333D02*
X102300000Y-90783333D01*
X102366666Y-90016666D02*
X102766666Y-90016666D01*
X102566666Y-90716666D02*
X102566666Y-90016666D01*
X102933333Y-90016666D02*
X103400000Y-90716666D01*
X103400000Y-90016666D02*
X102933333Y-90716666D01*
%TO.C,U10*%
D13*
X82657142Y-91904761D02*
X82800000Y-91952380D01*
X83038095Y-91952380D01*
X83133333Y-91904761D01*
X83180952Y-91857142D01*
X83228571Y-91761904D01*
X83228571Y-91666666D01*
X83180952Y-91571428D01*
X83133333Y-91523809D01*
X83038095Y-91476190D01*
X82847619Y-91428571D01*
X82752380Y-91380952D01*
X82704761Y-91333333D01*
X82657142Y-91238095D01*
X82657142Y-91142857D01*
X82704761Y-91047619D01*
X82752380Y-91000000D01*
X82847619Y-90952380D01*
X83085714Y-90952380D01*
X83228571Y-91000000D01*
X83419047Y-92047619D02*
X84180952Y-92047619D01*
X84990476Y-91952380D02*
X84657142Y-91476190D01*
X84419047Y-91952380D02*
X84419047Y-90952380D01*
X84800000Y-90952380D01*
X84895238Y-91000000D01*
X84942857Y-91047619D01*
X84990476Y-91142857D01*
X84990476Y-91285714D01*
X84942857Y-91380952D01*
X84895238Y-91428571D01*
X84800000Y-91476190D01*
X84419047Y-91476190D01*
X85323809Y-90952380D02*
X85990476Y-91952380D01*
X85990476Y-90952380D02*
X85323809Y-91952380D01*
%TO.C,Y1*%
X63823809Y-96476190D02*
X63823809Y-96952380D01*
X63490476Y-95952380D02*
X63823809Y-96476190D01*
X64157142Y-95952380D01*
X65014285Y-96952380D02*
X64442857Y-96952380D01*
X64728571Y-96952380D02*
X64728571Y-95952380D01*
X64633333Y-96095238D01*
X64538095Y-96190476D01*
X64442857Y-96238095D01*
%TO.C,J2*%
X50716666Y-106713460D02*
X50716666Y-107427746D01*
X50669047Y-107570603D01*
X50573809Y-107665841D01*
X50430952Y-107713460D01*
X50335714Y-107713460D01*
X51145238Y-106808699D02*
X51192857Y-106761080D01*
X51288095Y-106713460D01*
X51526190Y-106713460D01*
X51621428Y-106761080D01*
X51669047Y-106808699D01*
X51716666Y-106903937D01*
X51716666Y-106999175D01*
X51669047Y-107142032D01*
X51097619Y-107713460D01*
X51716666Y-107713460D01*
%TO.C,C19*%
X99757142Y-94057142D02*
X99709523Y-94104761D01*
X99566666Y-94152380D01*
X99471428Y-94152380D01*
X99328571Y-94104761D01*
X99233333Y-94009523D01*
X99185714Y-93914285D01*
X99138095Y-93723809D01*
X99138095Y-93580952D01*
X99185714Y-93390476D01*
X99233333Y-93295238D01*
X99328571Y-93200000D01*
X99471428Y-93152380D01*
X99566666Y-93152380D01*
X99709523Y-93200000D01*
X99757142Y-93247619D01*
X100709523Y-94152380D02*
X100138095Y-94152380D01*
X100423809Y-94152380D02*
X100423809Y-93152380D01*
X100328571Y-93295238D01*
X100233333Y-93390476D01*
X100138095Y-93438095D01*
X101185714Y-94152380D02*
X101376190Y-94152380D01*
X101471428Y-94104761D01*
X101519047Y-94057142D01*
X101614285Y-93914285D01*
X101661904Y-93723809D01*
X101661904Y-93342857D01*
X101614285Y-93247619D01*
X101566666Y-93200000D01*
X101471428Y-93152380D01*
X101280952Y-93152380D01*
X101185714Y-93200000D01*
X101138095Y-93247619D01*
X101090476Y-93342857D01*
X101090476Y-93580952D01*
X101138095Y-93676190D01*
X101185714Y-93723809D01*
X101280952Y-93771428D01*
X101471428Y-93771428D01*
X101566666Y-93723809D01*
X101614285Y-93676190D01*
X101661904Y-93580952D01*
%TD*%
M02*
