%TF.GenerationSoftware,KiCad,Pcbnew,(5.1.9)-1*%
%TF.CreationDate,2021-01-19T18:40:37+01:00*%
%TF.ProjectId,Track-your-cat,54726163-6b2d-4796-9f75-722d6361742e,1*%
%TF.SameCoordinates,Original*%
%TF.FileFunction,Soldermask,Top*%
%TF.FilePolarity,Negative*%
%FSLAX46Y46*%
G04 Gerber Fmt 4.6, Leading zero omitted, Abs format (unit mm)*
G04 Created by KiCad (PCBNEW (5.1.9)-1) date 2021-01-19 18:40:37*
%MOMM*%
%LPD*%
G01*
G04 APERTURE LIST*
%ADD10C,0.010000*%
%ADD11C,2.082800*%
%ADD12R,1.200000X1.000000*%
%ADD13R,1.900000X1.350000*%
%ADD14R,1.170000X1.800000*%
%ADD15R,1.550000X1.350000*%
%ADD16R,0.750000X1.100000*%
%ADD17R,0.850000X1.100000*%
%ADD18R,0.450000X1.050000*%
%ADD19R,0.650000X0.200000*%
%ADD20R,1.676400X0.863600*%
%ADD21R,1.422400X0.863600*%
%ADD22C,3.200000*%
%ADD23R,1.900000X1.100000*%
%ADD24R,0.550000X1.500000*%
%ADD25R,1.500000X0.550000*%
%ADD26R,1.000000X1.700000*%
%ADD27R,0.700000X0.350000*%
%ADD28R,2.000000X0.600000*%
%ADD29R,1.000000X0.800000*%
%ADD30C,0.900000*%
%ADD31R,0.700000X1.500000*%
%ADD32C,1.050000*%
%ADD33R,0.606066X0.192474*%
%ADD34R,1.000000X1.600000*%
%ADD35R,1.800000X2.100000*%
%ADD36R,1.350000X1.350000*%
%ADD37O,1.350000X1.350000*%
%ADD38O,0.900000X1.800000*%
%ADD39C,0.500000*%
%ADD40R,1.900000X1.900000*%
%ADD41R,1.600000X1.400000*%
%ADD42R,0.400000X1.350000*%
G04 APERTURE END LIST*
D10*
%TO.C,U3*%
G36*
X77800000Y-87250000D02*
G01*
X77350000Y-87250000D01*
X77350000Y-87450000D01*
X77100000Y-87450000D01*
X77100000Y-86950000D01*
X77800000Y-86950000D01*
X77800000Y-87250000D01*
G37*
X77800000Y-87250000D02*
X77350000Y-87250000D01*
X77350000Y-87450000D01*
X77100000Y-87450000D01*
X77100000Y-86950000D01*
X77800000Y-86950000D01*
X77800000Y-87250000D01*
G36*
X76950000Y-85850000D02*
G01*
X76650000Y-85850000D01*
X76650000Y-85150000D01*
X76950000Y-85150000D01*
X76950000Y-85850000D01*
G37*
X76950000Y-85850000D02*
X76650000Y-85850000D01*
X76650000Y-85150000D01*
X76950000Y-85150000D01*
X76950000Y-85850000D01*
G36*
X76950000Y-87450000D02*
G01*
X76650000Y-87450000D01*
X76650000Y-86750000D01*
X76950000Y-86750000D01*
X76950000Y-87450000D01*
G37*
X76950000Y-87450000D02*
X76650000Y-87450000D01*
X76650000Y-86750000D01*
X76950000Y-86750000D01*
X76950000Y-87450000D01*
G36*
X76500000Y-87250000D02*
G01*
X75800000Y-87250000D01*
X75800000Y-86950000D01*
X76500000Y-86950000D01*
X76500000Y-87250000D01*
G37*
X76500000Y-87250000D02*
X75800000Y-87250000D01*
X75800000Y-86950000D01*
X76500000Y-86950000D01*
X76500000Y-87250000D01*
G36*
X76500000Y-86850000D02*
G01*
X75800000Y-86850000D01*
X75800000Y-86550000D01*
X76500000Y-86550000D01*
X76500000Y-86850000D01*
G37*
X76500000Y-86850000D02*
X75800000Y-86850000D01*
X75800000Y-86550000D01*
X76500000Y-86550000D01*
X76500000Y-86850000D01*
G36*
X76500000Y-85650000D02*
G01*
X75800000Y-85650000D01*
X75800000Y-85350000D01*
X76500000Y-85350000D01*
X76500000Y-85650000D01*
G37*
X76500000Y-85650000D02*
X75800000Y-85650000D01*
X75800000Y-85350000D01*
X76500000Y-85350000D01*
X76500000Y-85650000D01*
G36*
X76500000Y-86050000D02*
G01*
X75800000Y-86050000D01*
X75800000Y-85750000D01*
X76500000Y-85750000D01*
X76500000Y-86050000D01*
G37*
X76500000Y-86050000D02*
X75800000Y-86050000D01*
X75800000Y-85750000D01*
X76500000Y-85750000D01*
X76500000Y-86050000D01*
G36*
X77800000Y-85650000D02*
G01*
X77100000Y-85650000D01*
X77100000Y-85350000D01*
X77800000Y-85350000D01*
X77800000Y-85650000D01*
G37*
X77800000Y-85650000D02*
X77100000Y-85650000D01*
X77100000Y-85350000D01*
X77800000Y-85350000D01*
X77800000Y-85650000D01*
G36*
X77800000Y-86050000D02*
G01*
X77100000Y-86050000D01*
X77100000Y-85750000D01*
X77800000Y-85750000D01*
X77800000Y-86050000D01*
G37*
X77800000Y-86050000D02*
X77100000Y-86050000D01*
X77100000Y-85750000D01*
X77800000Y-85750000D01*
X77800000Y-86050000D01*
G36*
X77800000Y-86850000D02*
G01*
X77100000Y-86850000D01*
X77100000Y-86550000D01*
X77800000Y-86550000D01*
X77800000Y-86850000D01*
G37*
X77800000Y-86850000D02*
X77100000Y-86850000D01*
X77100000Y-86550000D01*
X77800000Y-86550000D01*
X77800000Y-86850000D01*
G36*
X76500000Y-86450000D02*
G01*
X75800000Y-86450000D01*
X75800000Y-86150000D01*
X76500000Y-86150000D01*
X76500000Y-86450000D01*
G37*
X76500000Y-86450000D02*
X75800000Y-86450000D01*
X75800000Y-86150000D01*
X76500000Y-86150000D01*
X76500000Y-86450000D01*
G36*
X77800000Y-86450000D02*
G01*
X77100000Y-86450000D01*
X77100000Y-86150000D01*
X77800000Y-86150000D01*
X77800000Y-86450000D01*
G37*
X77800000Y-86450000D02*
X77100000Y-86450000D01*
X77100000Y-86150000D01*
X77800000Y-86150000D01*
X77800000Y-86450000D01*
%TD*%
D11*
%TO.C,D2*%
X70800000Y-111250000D03*
X68260000Y-111250000D03*
%TD*%
D12*
%TO.C,J3*%
X85639999Y-104800000D03*
X85639999Y-101100001D03*
D13*
X82140000Y-100125000D03*
X76170000Y-100125000D03*
D14*
X74145000Y-110600000D03*
D15*
X85465000Y-110825000D03*
D16*
X75354999Y-110950000D03*
D17*
X76405000Y-110950000D03*
X77505000Y-110950000D03*
X78605000Y-110950000D03*
X79705000Y-110950000D03*
X80805000Y-110950000D03*
X81905000Y-110950000D03*
X83005000Y-110950000D03*
%TD*%
D18*
%TO.C,IC1*%
X82800000Y-85700000D03*
D19*
X83550000Y-85100000D03*
X83550000Y-85500000D03*
X83550000Y-85900000D03*
X83550000Y-86300000D03*
X82050000Y-86300000D03*
X82050000Y-85900000D03*
X82050000Y-85500000D03*
X82050000Y-85100000D03*
%TD*%
D20*
%TO.C,GPS1*%
X96425800Y-92978200D03*
D21*
X96552800Y-91708200D03*
X96552800Y-90438200D03*
X96552800Y-89168200D03*
X96552800Y-87898200D03*
X87561200Y-92978200D03*
X87561200Y-91708200D03*
X87561200Y-89168200D03*
X87561200Y-87898200D03*
X87561200Y-90438200D03*
%TD*%
D22*
%TO.C,H1*%
X100200000Y-75800000D03*
%TD*%
%TO.C,H1*%
X44100000Y-75800000D03*
%TD*%
%TO.C,H1*%
X44100000Y-103300000D03*
%TD*%
%TO.C,R10*%
G36*
G01*
X76937500Y-78812500D02*
X76462500Y-78812500D01*
G75*
G02*
X76225000Y-78575000I0J237500D01*
G01*
X76225000Y-78075000D01*
G75*
G02*
X76462500Y-77837500I237500J0D01*
G01*
X76937500Y-77837500D01*
G75*
G02*
X77175000Y-78075000I0J-237500D01*
G01*
X77175000Y-78575000D01*
G75*
G02*
X76937500Y-78812500I-237500J0D01*
G01*
G37*
G36*
G01*
X76937500Y-76987500D02*
X76462500Y-76987500D01*
G75*
G02*
X76225000Y-76750000I0J237500D01*
G01*
X76225000Y-76250000D01*
G75*
G02*
X76462500Y-76012500I237500J0D01*
G01*
X76937500Y-76012500D01*
G75*
G02*
X77175000Y-76250000I0J-237500D01*
G01*
X77175000Y-76750000D01*
G75*
G02*
X76937500Y-76987500I-237500J0D01*
G01*
G37*
%TD*%
D23*
%TO.C,Y2*%
X66350000Y-78150000D03*
X66350000Y-75650000D03*
%TD*%
D24*
%TO.C,U2*%
X66700000Y-85000000D03*
X67500000Y-85000000D03*
X68300000Y-85000000D03*
X69100000Y-85000000D03*
X69900000Y-85000000D03*
X70700000Y-85000000D03*
X71500000Y-85000000D03*
X72300000Y-85000000D03*
D25*
X73700000Y-86400000D03*
X73700000Y-87200000D03*
X73700000Y-88000000D03*
X73700000Y-88800000D03*
X73700000Y-89600000D03*
X73700000Y-90400000D03*
X73700000Y-91200000D03*
X73700000Y-92000000D03*
D24*
X72300000Y-93400000D03*
X71500000Y-93400000D03*
X70700000Y-93400000D03*
X69900000Y-93400000D03*
X69100000Y-93400000D03*
X68300000Y-93400000D03*
X67500000Y-93400000D03*
D25*
X65300000Y-92000000D03*
X65300000Y-91200000D03*
X65300000Y-90400000D03*
X65300000Y-89600000D03*
X65300000Y-88800000D03*
X65300000Y-88000000D03*
X65300000Y-87200000D03*
X65300000Y-86400000D03*
D24*
X66700000Y-93400000D03*
%TD*%
D11*
%TO.C,D1*%
X63100000Y-111300000D03*
X65640000Y-111300000D03*
%TD*%
%TO.C,R8*%
G36*
G01*
X99237500Y-103000000D02*
X98762500Y-103000000D01*
G75*
G02*
X98525000Y-102762500I0J237500D01*
G01*
X98525000Y-102262500D01*
G75*
G02*
X98762500Y-102025000I237500J0D01*
G01*
X99237500Y-102025000D01*
G75*
G02*
X99475000Y-102262500I0J-237500D01*
G01*
X99475000Y-102762500D01*
G75*
G02*
X99237500Y-103000000I-237500J0D01*
G01*
G37*
G36*
G01*
X99237500Y-101175000D02*
X98762500Y-101175000D01*
G75*
G02*
X98525000Y-100937500I0J237500D01*
G01*
X98525000Y-100437500D01*
G75*
G02*
X98762500Y-100200000I237500J0D01*
G01*
X99237500Y-100200000D01*
G75*
G02*
X99475000Y-100437500I0J-237500D01*
G01*
X99475000Y-100937500D01*
G75*
G02*
X99237500Y-101175000I-237500J0D01*
G01*
G37*
%TD*%
%TO.C,C1*%
G36*
G01*
X89125000Y-100037500D02*
X90075000Y-100037500D01*
G75*
G02*
X90325000Y-100287500I0J-250000D01*
G01*
X90325000Y-100962500D01*
G75*
G02*
X90075000Y-101212500I-250000J0D01*
G01*
X89125000Y-101212500D01*
G75*
G02*
X88875000Y-100962500I0J250000D01*
G01*
X88875000Y-100287500D01*
G75*
G02*
X89125000Y-100037500I250000J0D01*
G01*
G37*
G36*
G01*
X89125000Y-102112500D02*
X90075000Y-102112500D01*
G75*
G02*
X90325000Y-102362500I0J-250000D01*
G01*
X90325000Y-103037500D01*
G75*
G02*
X90075000Y-103287500I-250000J0D01*
G01*
X89125000Y-103287500D01*
G75*
G02*
X88875000Y-103037500I0J250000D01*
G01*
X88875000Y-102362500D01*
G75*
G02*
X89125000Y-102112500I250000J0D01*
G01*
G37*
%TD*%
%TO.C,C2*%
G36*
G01*
X94200000Y-103562500D02*
X94200000Y-104037500D01*
G75*
G02*
X93962500Y-104275000I-237500J0D01*
G01*
X93362500Y-104275000D01*
G75*
G02*
X93125000Y-104037500I0J237500D01*
G01*
X93125000Y-103562500D01*
G75*
G02*
X93362500Y-103325000I237500J0D01*
G01*
X93962500Y-103325000D01*
G75*
G02*
X94200000Y-103562500I0J-237500D01*
G01*
G37*
G36*
G01*
X92475000Y-103562500D02*
X92475000Y-104037500D01*
G75*
G02*
X92237500Y-104275000I-237500J0D01*
G01*
X91637500Y-104275000D01*
G75*
G02*
X91400000Y-104037500I0J237500D01*
G01*
X91400000Y-103562500D01*
G75*
G02*
X91637500Y-103325000I237500J0D01*
G01*
X92237500Y-103325000D01*
G75*
G02*
X92475000Y-103562500I0J-237500D01*
G01*
G37*
%TD*%
%TO.C,C3*%
G36*
G01*
X77125000Y-91737500D02*
X78075000Y-91737500D01*
G75*
G02*
X78325000Y-91987500I0J-250000D01*
G01*
X78325000Y-92662500D01*
G75*
G02*
X78075000Y-92912500I-250000J0D01*
G01*
X77125000Y-92912500D01*
G75*
G02*
X76875000Y-92662500I0J250000D01*
G01*
X76875000Y-91987500D01*
G75*
G02*
X77125000Y-91737500I250000J0D01*
G01*
G37*
G36*
G01*
X77125000Y-93812500D02*
X78075000Y-93812500D01*
G75*
G02*
X78325000Y-94062500I0J-250000D01*
G01*
X78325000Y-94737500D01*
G75*
G02*
X78075000Y-94987500I-250000J0D01*
G01*
X77125000Y-94987500D01*
G75*
G02*
X76875000Y-94737500I0J250000D01*
G01*
X76875000Y-94062500D01*
G75*
G02*
X77125000Y-93812500I250000J0D01*
G01*
G37*
%TD*%
%TO.C,C4*%
G36*
G01*
X63487500Y-88487500D02*
X63012500Y-88487500D01*
G75*
G02*
X62775000Y-88250000I0J237500D01*
G01*
X62775000Y-87650000D01*
G75*
G02*
X63012500Y-87412500I237500J0D01*
G01*
X63487500Y-87412500D01*
G75*
G02*
X63725000Y-87650000I0J-237500D01*
G01*
X63725000Y-88250000D01*
G75*
G02*
X63487500Y-88487500I-237500J0D01*
G01*
G37*
G36*
G01*
X63487500Y-90212500D02*
X63012500Y-90212500D01*
G75*
G02*
X62775000Y-89975000I0J237500D01*
G01*
X62775000Y-89375000D01*
G75*
G02*
X63012500Y-89137500I237500J0D01*
G01*
X63487500Y-89137500D01*
G75*
G02*
X63725000Y-89375000I0J-237500D01*
G01*
X63725000Y-89975000D01*
G75*
G02*
X63487500Y-90212500I-237500J0D01*
G01*
G37*
%TD*%
%TO.C,C5*%
G36*
G01*
X61737500Y-90212500D02*
X61262500Y-90212500D01*
G75*
G02*
X61025000Y-89975000I0J237500D01*
G01*
X61025000Y-89375000D01*
G75*
G02*
X61262500Y-89137500I237500J0D01*
G01*
X61737500Y-89137500D01*
G75*
G02*
X61975000Y-89375000I0J-237500D01*
G01*
X61975000Y-89975000D01*
G75*
G02*
X61737500Y-90212500I-237500J0D01*
G01*
G37*
G36*
G01*
X61737500Y-88487500D02*
X61262500Y-88487500D01*
G75*
G02*
X61025000Y-88250000I0J237500D01*
G01*
X61025000Y-87650000D01*
G75*
G02*
X61262500Y-87412500I237500J0D01*
G01*
X61737500Y-87412500D01*
G75*
G02*
X61975000Y-87650000I0J-237500D01*
G01*
X61975000Y-88250000D01*
G75*
G02*
X61737500Y-88487500I-237500J0D01*
G01*
G37*
%TD*%
%TO.C,C6*%
G36*
G01*
X75362500Y-93187500D02*
X75837500Y-93187500D01*
G75*
G02*
X76075000Y-93425000I0J-237500D01*
G01*
X76075000Y-94025000D01*
G75*
G02*
X75837500Y-94262500I-237500J0D01*
G01*
X75362500Y-94262500D01*
G75*
G02*
X75125000Y-94025000I0J237500D01*
G01*
X75125000Y-93425000D01*
G75*
G02*
X75362500Y-93187500I237500J0D01*
G01*
G37*
G36*
G01*
X75362500Y-91462500D02*
X75837500Y-91462500D01*
G75*
G02*
X76075000Y-91700000I0J-237500D01*
G01*
X76075000Y-92300000D01*
G75*
G02*
X75837500Y-92537500I-237500J0D01*
G01*
X75362500Y-92537500D01*
G75*
G02*
X75125000Y-92300000I0J237500D01*
G01*
X75125000Y-91700000D01*
G75*
G02*
X75362500Y-91462500I237500J0D01*
G01*
G37*
%TD*%
%TO.C,C8*%
G36*
G01*
X53212500Y-77662500D02*
X53212500Y-78137500D01*
G75*
G02*
X52975000Y-78375000I-237500J0D01*
G01*
X52375000Y-78375000D01*
G75*
G02*
X52137500Y-78137500I0J237500D01*
G01*
X52137500Y-77662500D01*
G75*
G02*
X52375000Y-77425000I237500J0D01*
G01*
X52975000Y-77425000D01*
G75*
G02*
X53212500Y-77662500I0J-237500D01*
G01*
G37*
G36*
G01*
X54937500Y-77662500D02*
X54937500Y-78137500D01*
G75*
G02*
X54700000Y-78375000I-237500J0D01*
G01*
X54100000Y-78375000D01*
G75*
G02*
X53862500Y-78137500I0J237500D01*
G01*
X53862500Y-77662500D01*
G75*
G02*
X54100000Y-77425000I237500J0D01*
G01*
X54700000Y-77425000D01*
G75*
G02*
X54937500Y-77662500I0J-237500D01*
G01*
G37*
%TD*%
%TO.C,C9*%
G36*
G01*
X57337500Y-94137500D02*
X56862500Y-94137500D01*
G75*
G02*
X56625000Y-93900000I0J237500D01*
G01*
X56625000Y-93300000D01*
G75*
G02*
X56862500Y-93062500I237500J0D01*
G01*
X57337500Y-93062500D01*
G75*
G02*
X57575000Y-93300000I0J-237500D01*
G01*
X57575000Y-93900000D01*
G75*
G02*
X57337500Y-94137500I-237500J0D01*
G01*
G37*
G36*
G01*
X57337500Y-95862500D02*
X56862500Y-95862500D01*
G75*
G02*
X56625000Y-95625000I0J237500D01*
G01*
X56625000Y-95025000D01*
G75*
G02*
X56862500Y-94787500I237500J0D01*
G01*
X57337500Y-94787500D01*
G75*
G02*
X57575000Y-95025000I0J-237500D01*
G01*
X57575000Y-95625000D01*
G75*
G02*
X57337500Y-95862500I-237500J0D01*
G01*
G37*
%TD*%
%TO.C,C10*%
G36*
G01*
X62537500Y-98062500D02*
X62537500Y-98537500D01*
G75*
G02*
X62300000Y-98775000I-237500J0D01*
G01*
X61700000Y-98775000D01*
G75*
G02*
X61462500Y-98537500I0J237500D01*
G01*
X61462500Y-98062500D01*
G75*
G02*
X61700000Y-97825000I237500J0D01*
G01*
X62300000Y-97825000D01*
G75*
G02*
X62537500Y-98062500I0J-237500D01*
G01*
G37*
G36*
G01*
X60812500Y-98062500D02*
X60812500Y-98537500D01*
G75*
G02*
X60575000Y-98775000I-237500J0D01*
G01*
X59975000Y-98775000D01*
G75*
G02*
X59737500Y-98537500I0J237500D01*
G01*
X59737500Y-98062500D01*
G75*
G02*
X59975000Y-97825000I237500J0D01*
G01*
X60575000Y-97825000D01*
G75*
G02*
X60812500Y-98062500I0J-237500D01*
G01*
G37*
%TD*%
%TO.C,C11*%
G36*
G01*
X51862500Y-93762500D02*
X52337500Y-93762500D01*
G75*
G02*
X52575000Y-94000000I0J-237500D01*
G01*
X52575000Y-94600000D01*
G75*
G02*
X52337500Y-94837500I-237500J0D01*
G01*
X51862500Y-94837500D01*
G75*
G02*
X51625000Y-94600000I0J237500D01*
G01*
X51625000Y-94000000D01*
G75*
G02*
X51862500Y-93762500I237500J0D01*
G01*
G37*
G36*
G01*
X51862500Y-95487500D02*
X52337500Y-95487500D01*
G75*
G02*
X52575000Y-95725000I0J-237500D01*
G01*
X52575000Y-96325000D01*
G75*
G02*
X52337500Y-96562500I-237500J0D01*
G01*
X51862500Y-96562500D01*
G75*
G02*
X51625000Y-96325000I0J237500D01*
G01*
X51625000Y-95725000D01*
G75*
G02*
X51862500Y-95487500I237500J0D01*
G01*
G37*
%TD*%
%TO.C,C12*%
G36*
G01*
X75937500Y-90937500D02*
X75462500Y-90937500D01*
G75*
G02*
X75225000Y-90700000I0J237500D01*
G01*
X75225000Y-90100000D01*
G75*
G02*
X75462500Y-89862500I237500J0D01*
G01*
X75937500Y-89862500D01*
G75*
G02*
X76175000Y-90100000I0J-237500D01*
G01*
X76175000Y-90700000D01*
G75*
G02*
X75937500Y-90937500I-237500J0D01*
G01*
G37*
G36*
G01*
X75937500Y-89212500D02*
X75462500Y-89212500D01*
G75*
G02*
X75225000Y-88975000I0J237500D01*
G01*
X75225000Y-88375000D01*
G75*
G02*
X75462500Y-88137500I237500J0D01*
G01*
X75937500Y-88137500D01*
G75*
G02*
X76175000Y-88375000I0J-237500D01*
G01*
X76175000Y-88975000D01*
G75*
G02*
X75937500Y-89212500I-237500J0D01*
G01*
G37*
%TD*%
%TO.C,C13*%
G36*
G01*
X52262500Y-86987500D02*
X52737500Y-86987500D01*
G75*
G02*
X52975000Y-87225000I0J-237500D01*
G01*
X52975000Y-87825000D01*
G75*
G02*
X52737500Y-88062500I-237500J0D01*
G01*
X52262500Y-88062500D01*
G75*
G02*
X52025000Y-87825000I0J237500D01*
G01*
X52025000Y-87225000D01*
G75*
G02*
X52262500Y-86987500I237500J0D01*
G01*
G37*
G36*
G01*
X52262500Y-85262500D02*
X52737500Y-85262500D01*
G75*
G02*
X52975000Y-85500000I0J-237500D01*
G01*
X52975000Y-86100000D01*
G75*
G02*
X52737500Y-86337500I-237500J0D01*
G01*
X52262500Y-86337500D01*
G75*
G02*
X52025000Y-86100000I0J237500D01*
G01*
X52025000Y-85500000D01*
G75*
G02*
X52262500Y-85262500I237500J0D01*
G01*
G37*
%TD*%
%TO.C,C15*%
G36*
G01*
X80437500Y-89462500D02*
X80437500Y-89937500D01*
G75*
G02*
X80200000Y-90175000I-237500J0D01*
G01*
X79600000Y-90175000D01*
G75*
G02*
X79362500Y-89937500I0J237500D01*
G01*
X79362500Y-89462500D01*
G75*
G02*
X79600000Y-89225000I237500J0D01*
G01*
X80200000Y-89225000D01*
G75*
G02*
X80437500Y-89462500I0J-237500D01*
G01*
G37*
G36*
G01*
X82162500Y-89462500D02*
X82162500Y-89937500D01*
G75*
G02*
X81925000Y-90175000I-237500J0D01*
G01*
X81325000Y-90175000D01*
G75*
G02*
X81087500Y-89937500I0J237500D01*
G01*
X81087500Y-89462500D01*
G75*
G02*
X81325000Y-89225000I237500J0D01*
G01*
X81925000Y-89225000D01*
G75*
G02*
X82162500Y-89462500I0J-237500D01*
G01*
G37*
%TD*%
%TO.C,C16*%
G36*
G01*
X102137500Y-85375000D02*
X101662500Y-85375000D01*
G75*
G02*
X101425000Y-85137500I0J237500D01*
G01*
X101425000Y-84537500D01*
G75*
G02*
X101662500Y-84300000I237500J0D01*
G01*
X102137500Y-84300000D01*
G75*
G02*
X102375000Y-84537500I0J-237500D01*
G01*
X102375000Y-85137500D01*
G75*
G02*
X102137500Y-85375000I-237500J0D01*
G01*
G37*
G36*
G01*
X102137500Y-87100000D02*
X101662500Y-87100000D01*
G75*
G02*
X101425000Y-86862500I0J237500D01*
G01*
X101425000Y-86262500D01*
G75*
G02*
X101662500Y-86025000I237500J0D01*
G01*
X102137500Y-86025000D01*
G75*
G02*
X102375000Y-86262500I0J-237500D01*
G01*
X102375000Y-86862500D01*
G75*
G02*
X102137500Y-87100000I-237500J0D01*
G01*
G37*
%TD*%
%TO.C,C17*%
G36*
G01*
X100487500Y-85375000D02*
X100012500Y-85375000D01*
G75*
G02*
X99775000Y-85137500I0J237500D01*
G01*
X99775000Y-84537500D01*
G75*
G02*
X100012500Y-84300000I237500J0D01*
G01*
X100487500Y-84300000D01*
G75*
G02*
X100725000Y-84537500I0J-237500D01*
G01*
X100725000Y-85137500D01*
G75*
G02*
X100487500Y-85375000I-237500J0D01*
G01*
G37*
G36*
G01*
X100487500Y-87100000D02*
X100012500Y-87100000D01*
G75*
G02*
X99775000Y-86862500I0J237500D01*
G01*
X99775000Y-86262500D01*
G75*
G02*
X100012500Y-86025000I237500J0D01*
G01*
X100487500Y-86025000D01*
G75*
G02*
X100725000Y-86262500I0J-237500D01*
G01*
X100725000Y-86862500D01*
G75*
G02*
X100487500Y-87100000I-237500J0D01*
G01*
G37*
%TD*%
%TO.C,C18*%
G36*
G01*
X102837500Y-100462500D02*
X102837500Y-100937500D01*
G75*
G02*
X102600000Y-101175000I-237500J0D01*
G01*
X102000000Y-101175000D01*
G75*
G02*
X101762500Y-100937500I0J237500D01*
G01*
X101762500Y-100462500D01*
G75*
G02*
X102000000Y-100225000I237500J0D01*
G01*
X102600000Y-100225000D01*
G75*
G02*
X102837500Y-100462500I0J-237500D01*
G01*
G37*
G36*
G01*
X101112500Y-100462500D02*
X101112500Y-100937500D01*
G75*
G02*
X100875000Y-101175000I-237500J0D01*
G01*
X100275000Y-101175000D01*
G75*
G02*
X100037500Y-100937500I0J237500D01*
G01*
X100037500Y-100462500D01*
G75*
G02*
X100275000Y-100225000I237500J0D01*
G01*
X100875000Y-100225000D01*
G75*
G02*
X101112500Y-100462500I0J-237500D01*
G01*
G37*
%TD*%
%TO.C,C20*%
G36*
G01*
X71837500Y-75037500D02*
X71837500Y-74562500D01*
G75*
G02*
X72075000Y-74325000I237500J0D01*
G01*
X72675000Y-74325000D01*
G75*
G02*
X72912500Y-74562500I0J-237500D01*
G01*
X72912500Y-75037500D01*
G75*
G02*
X72675000Y-75275000I-237500J0D01*
G01*
X72075000Y-75275000D01*
G75*
G02*
X71837500Y-75037500I0J237500D01*
G01*
G37*
G36*
G01*
X73562500Y-75037500D02*
X73562500Y-74562500D01*
G75*
G02*
X73800000Y-74325000I237500J0D01*
G01*
X74400000Y-74325000D01*
G75*
G02*
X74637500Y-74562500I0J-237500D01*
G01*
X74637500Y-75037500D01*
G75*
G02*
X74400000Y-75275000I-237500J0D01*
G01*
X73800000Y-75275000D01*
G75*
G02*
X73562500Y-75037500I0J237500D01*
G01*
G37*
%TD*%
%TO.C,C21*%
G36*
G01*
X69412500Y-74562500D02*
X69412500Y-75037500D01*
G75*
G02*
X69175000Y-75275000I-237500J0D01*
G01*
X68575000Y-75275000D01*
G75*
G02*
X68337500Y-75037500I0J237500D01*
G01*
X68337500Y-74562500D01*
G75*
G02*
X68575000Y-74325000I237500J0D01*
G01*
X69175000Y-74325000D01*
G75*
G02*
X69412500Y-74562500I0J-237500D01*
G01*
G37*
G36*
G01*
X71137500Y-74562500D02*
X71137500Y-75037500D01*
G75*
G02*
X70900000Y-75275000I-237500J0D01*
G01*
X70300000Y-75275000D01*
G75*
G02*
X70062500Y-75037500I0J237500D01*
G01*
X70062500Y-74562500D01*
G75*
G02*
X70300000Y-74325000I237500J0D01*
G01*
X70900000Y-74325000D01*
G75*
G02*
X71137500Y-74562500I0J-237500D01*
G01*
G37*
%TD*%
%TO.C,C22*%
G36*
G01*
X64737500Y-80137500D02*
X64737500Y-79662500D01*
G75*
G02*
X64975000Y-79425000I237500J0D01*
G01*
X65575000Y-79425000D01*
G75*
G02*
X65812500Y-79662500I0J-237500D01*
G01*
X65812500Y-80137500D01*
G75*
G02*
X65575000Y-80375000I-237500J0D01*
G01*
X64975000Y-80375000D01*
G75*
G02*
X64737500Y-80137500I0J237500D01*
G01*
G37*
G36*
G01*
X66462500Y-80137500D02*
X66462500Y-79662500D01*
G75*
G02*
X66700000Y-79425000I237500J0D01*
G01*
X67300000Y-79425000D01*
G75*
G02*
X67537500Y-79662500I0J-237500D01*
G01*
X67537500Y-80137500D01*
G75*
G02*
X67300000Y-80375000I-237500J0D01*
G01*
X66700000Y-80375000D01*
G75*
G02*
X66462500Y-80137500I0J237500D01*
G01*
G37*
%TD*%
%TO.C,C23*%
G36*
G01*
X86925000Y-107887500D02*
X87875000Y-107887500D01*
G75*
G02*
X88125000Y-108137500I0J-250000D01*
G01*
X88125000Y-108812500D01*
G75*
G02*
X87875000Y-109062500I-250000J0D01*
G01*
X86925000Y-109062500D01*
G75*
G02*
X86675000Y-108812500I0J250000D01*
G01*
X86675000Y-108137500D01*
G75*
G02*
X86925000Y-107887500I250000J0D01*
G01*
G37*
G36*
G01*
X86925000Y-105812500D02*
X87875000Y-105812500D01*
G75*
G02*
X88125000Y-106062500I0J-250000D01*
G01*
X88125000Y-106737500D01*
G75*
G02*
X87875000Y-106987500I-250000J0D01*
G01*
X86925000Y-106987500D01*
G75*
G02*
X86675000Y-106737500I0J250000D01*
G01*
X86675000Y-106062500D01*
G75*
G02*
X86925000Y-105812500I250000J0D01*
G01*
G37*
%TD*%
%TO.C,IC2*%
G36*
G01*
X100251310Y-98797610D02*
X100251310Y-98048310D01*
G75*
G02*
X100352910Y-97946710I101600J0D01*
G01*
X100751690Y-97946710D01*
G75*
G02*
X100853290Y-98048310I0J-101600D01*
G01*
X100853290Y-98797610D01*
G75*
G02*
X100751690Y-98899210I-101600J0D01*
G01*
X100352910Y-98899210D01*
G75*
G02*
X100251310Y-98797610I0J101600D01*
G01*
G37*
G36*
G01*
X100899010Y-98797610D02*
X100899010Y-98048310D01*
G75*
G02*
X101000610Y-97946710I101600J0D01*
G01*
X101399390Y-97946710D01*
G75*
G02*
X101500990Y-98048310I0J-101600D01*
G01*
X101500990Y-98797610D01*
G75*
G02*
X101399390Y-98899210I-101600J0D01*
G01*
X101000610Y-98899210D01*
G75*
G02*
X100899010Y-98797610I0J101600D01*
G01*
G37*
G36*
G01*
X101546710Y-98797610D02*
X101546710Y-98048310D01*
G75*
G02*
X101648310Y-97946710I101600J0D01*
G01*
X102047090Y-97946710D01*
G75*
G02*
X102148690Y-98048310I0J-101600D01*
G01*
X102148690Y-98797610D01*
G75*
G02*
X102047090Y-98899210I-101600J0D01*
G01*
X101648310Y-98899210D01*
G75*
G02*
X101546710Y-98797610I0J101600D01*
G01*
G37*
G36*
G01*
X101546710Y-97151690D02*
X101546710Y-96402390D01*
G75*
G02*
X101648310Y-96300790I101600J0D01*
G01*
X102047090Y-96300790D01*
G75*
G02*
X102148690Y-96402390I0J-101600D01*
G01*
X102148690Y-97151690D01*
G75*
G02*
X102047090Y-97253290I-101600J0D01*
G01*
X101648310Y-97253290D01*
G75*
G02*
X101546710Y-97151690I0J101600D01*
G01*
G37*
G36*
G01*
X100251310Y-97151690D02*
X100251310Y-96402390D01*
G75*
G02*
X100352910Y-96300790I101600J0D01*
G01*
X100751690Y-96300790D01*
G75*
G02*
X100853290Y-96402390I0J-101600D01*
G01*
X100853290Y-97151690D01*
G75*
G02*
X100751690Y-97253290I-101600J0D01*
G01*
X100352910Y-97253290D01*
G75*
G02*
X100251310Y-97151690I0J101600D01*
G01*
G37*
%TD*%
%TO.C,J1*%
G36*
G01*
X50998210Y-88198930D02*
X46398270Y-88198930D01*
G75*
G02*
X46296670Y-88097330I0J101600D01*
G01*
X46296670Y-87099110D01*
G75*
G02*
X46398270Y-86997510I101600J0D01*
G01*
X50998210Y-86997510D01*
G75*
G02*
X51099810Y-87099110I0J-101600D01*
G01*
X51099810Y-88097330D01*
G75*
G02*
X50998210Y-88198930I-101600J0D01*
G01*
G37*
G36*
G01*
X50998210Y-86202490D02*
X46398270Y-86202490D01*
G75*
G02*
X46296670Y-86100890I0J101600D01*
G01*
X46296670Y-85102670D01*
G75*
G02*
X46398270Y-85001070I101600J0D01*
G01*
X50998210Y-85001070D01*
G75*
G02*
X51099810Y-85102670I0J-101600D01*
G01*
X51099810Y-86100890D01*
G75*
G02*
X50998210Y-86202490I-101600J0D01*
G01*
G37*
G36*
G01*
X45302260Y-89199690D02*
X45302260Y-90797350D01*
G75*
G02*
X45200660Y-90898950I-101600J0D01*
G01*
X41802140Y-90898950D01*
G75*
G02*
X41700540Y-90797350I0J101600D01*
G01*
X41700540Y-89199690D01*
G75*
G02*
X41802140Y-89098090I101600J0D01*
G01*
X45200660Y-89098090D01*
G75*
G02*
X45302260Y-89199690I0J-101600D01*
G01*
G37*
G36*
G01*
X45302260Y-82402650D02*
X45302260Y-84000310D01*
G75*
G02*
X45200660Y-84101910I-101600J0D01*
G01*
X41802140Y-84101910D01*
G75*
G02*
X41700540Y-84000310I0J101600D01*
G01*
X41700540Y-82402650D01*
G75*
G02*
X41802140Y-82301050I101600J0D01*
G01*
X45200660Y-82301050D01*
G75*
G02*
X45302260Y-82402650I0J-101600D01*
G01*
G37*
%TD*%
D26*
%TO.C,LDO1*%
X92800000Y-101550000D03*
D27*
X93850000Y-100900000D03*
X93850000Y-101550000D03*
X93850000Y-102200000D03*
X91750000Y-102200000D03*
X91750000Y-101550000D03*
X91750000Y-100900000D03*
%TD*%
%TO.C,R1*%
G36*
G01*
X56575000Y-77662500D02*
X56575000Y-78137500D01*
G75*
G02*
X56337500Y-78375000I-237500J0D01*
G01*
X55837500Y-78375000D01*
G75*
G02*
X55600000Y-78137500I0J237500D01*
G01*
X55600000Y-77662500D01*
G75*
G02*
X55837500Y-77425000I237500J0D01*
G01*
X56337500Y-77425000D01*
G75*
G02*
X56575000Y-77662500I0J-237500D01*
G01*
G37*
G36*
G01*
X58400000Y-77662500D02*
X58400000Y-78137500D01*
G75*
G02*
X58162500Y-78375000I-237500J0D01*
G01*
X57662500Y-78375000D01*
G75*
G02*
X57425000Y-78137500I0J237500D01*
G01*
X57425000Y-77662500D01*
G75*
G02*
X57662500Y-77425000I237500J0D01*
G01*
X58162500Y-77425000D01*
G75*
G02*
X58400000Y-77662500I0J-237500D01*
G01*
G37*
%TD*%
%TO.C,R2*%
G36*
G01*
X46462500Y-94125000D02*
X46937500Y-94125000D01*
G75*
G02*
X47175000Y-94362500I0J-237500D01*
G01*
X47175000Y-94862500D01*
G75*
G02*
X46937500Y-95100000I-237500J0D01*
G01*
X46462500Y-95100000D01*
G75*
G02*
X46225000Y-94862500I0J237500D01*
G01*
X46225000Y-94362500D01*
G75*
G02*
X46462500Y-94125000I237500J0D01*
G01*
G37*
G36*
G01*
X46462500Y-92300000D02*
X46937500Y-92300000D01*
G75*
G02*
X47175000Y-92537500I0J-237500D01*
G01*
X47175000Y-93037500D01*
G75*
G02*
X46937500Y-93275000I-237500J0D01*
G01*
X46462500Y-93275000D01*
G75*
G02*
X46225000Y-93037500I0J237500D01*
G01*
X46225000Y-92537500D01*
G75*
G02*
X46462500Y-92300000I237500J0D01*
G01*
G37*
%TD*%
%TO.C,R3*%
G36*
G01*
X48387500Y-95962500D02*
X48387500Y-96437500D01*
G75*
G02*
X48150000Y-96675000I-237500J0D01*
G01*
X47650000Y-96675000D01*
G75*
G02*
X47412500Y-96437500I0J237500D01*
G01*
X47412500Y-95962500D01*
G75*
G02*
X47650000Y-95725000I237500J0D01*
G01*
X48150000Y-95725000D01*
G75*
G02*
X48387500Y-95962500I0J-237500D01*
G01*
G37*
G36*
G01*
X46562500Y-95962500D02*
X46562500Y-96437500D01*
G75*
G02*
X46325000Y-96675000I-237500J0D01*
G01*
X45825000Y-96675000D01*
G75*
G02*
X45587500Y-96437500I0J237500D01*
G01*
X45587500Y-95962500D01*
G75*
G02*
X45825000Y-95725000I237500J0D01*
G01*
X46325000Y-95725000D01*
G75*
G02*
X46562500Y-95962500I0J-237500D01*
G01*
G37*
%TD*%
%TO.C,R4*%
G36*
G01*
X66037500Y-108487500D02*
X65562500Y-108487500D01*
G75*
G02*
X65325000Y-108250000I0J237500D01*
G01*
X65325000Y-107750000D01*
G75*
G02*
X65562500Y-107512500I237500J0D01*
G01*
X66037500Y-107512500D01*
G75*
G02*
X66275000Y-107750000I0J-237500D01*
G01*
X66275000Y-108250000D01*
G75*
G02*
X66037500Y-108487500I-237500J0D01*
G01*
G37*
G36*
G01*
X66037500Y-106662500D02*
X65562500Y-106662500D01*
G75*
G02*
X65325000Y-106425000I0J237500D01*
G01*
X65325000Y-105925000D01*
G75*
G02*
X65562500Y-105687500I237500J0D01*
G01*
X66037500Y-105687500D01*
G75*
G02*
X66275000Y-105925000I0J-237500D01*
G01*
X66275000Y-106425000D01*
G75*
G02*
X66037500Y-106662500I-237500J0D01*
G01*
G37*
%TD*%
%TO.C,R5*%
G36*
G01*
X71337500Y-106662500D02*
X70862500Y-106662500D01*
G75*
G02*
X70625000Y-106425000I0J237500D01*
G01*
X70625000Y-105925000D01*
G75*
G02*
X70862500Y-105687500I237500J0D01*
G01*
X71337500Y-105687500D01*
G75*
G02*
X71575000Y-105925000I0J-237500D01*
G01*
X71575000Y-106425000D01*
G75*
G02*
X71337500Y-106662500I-237500J0D01*
G01*
G37*
G36*
G01*
X71337500Y-108487500D02*
X70862500Y-108487500D01*
G75*
G02*
X70625000Y-108250000I0J237500D01*
G01*
X70625000Y-107750000D01*
G75*
G02*
X70862500Y-107512500I237500J0D01*
G01*
X71337500Y-107512500D01*
G75*
G02*
X71575000Y-107750000I0J-237500D01*
G01*
X71575000Y-108250000D01*
G75*
G02*
X71337500Y-108487500I-237500J0D01*
G01*
G37*
%TD*%
%TO.C,R6*%
G36*
G01*
X100362500Y-103912500D02*
X100837500Y-103912500D01*
G75*
G02*
X101075000Y-104150000I0J-237500D01*
G01*
X101075000Y-104650000D01*
G75*
G02*
X100837500Y-104887500I-237500J0D01*
G01*
X100362500Y-104887500D01*
G75*
G02*
X100125000Y-104650000I0J237500D01*
G01*
X100125000Y-104150000D01*
G75*
G02*
X100362500Y-103912500I237500J0D01*
G01*
G37*
G36*
G01*
X100362500Y-102087500D02*
X100837500Y-102087500D01*
G75*
G02*
X101075000Y-102325000I0J-237500D01*
G01*
X101075000Y-102825000D01*
G75*
G02*
X100837500Y-103062500I-237500J0D01*
G01*
X100362500Y-103062500D01*
G75*
G02*
X100125000Y-102825000I0J237500D01*
G01*
X100125000Y-102325000D01*
G75*
G02*
X100362500Y-102087500I237500J0D01*
G01*
G37*
%TD*%
%TO.C,R7*%
G36*
G01*
X80137500Y-88687500D02*
X79662500Y-88687500D01*
G75*
G02*
X79425000Y-88450000I0J237500D01*
G01*
X79425000Y-87950000D01*
G75*
G02*
X79662500Y-87712500I237500J0D01*
G01*
X80137500Y-87712500D01*
G75*
G02*
X80375000Y-87950000I0J-237500D01*
G01*
X80375000Y-88450000D01*
G75*
G02*
X80137500Y-88687500I-237500J0D01*
G01*
G37*
G36*
G01*
X80137500Y-86862500D02*
X79662500Y-86862500D01*
G75*
G02*
X79425000Y-86625000I0J237500D01*
G01*
X79425000Y-86125000D01*
G75*
G02*
X79662500Y-85887500I237500J0D01*
G01*
X80137500Y-85887500D01*
G75*
G02*
X80375000Y-86125000I0J-237500D01*
G01*
X80375000Y-86625000D01*
G75*
G02*
X80137500Y-86862500I-237500J0D01*
G01*
G37*
%TD*%
%TO.C,R9*%
G36*
G01*
X82087500Y-112262500D02*
X82087500Y-112737500D01*
G75*
G02*
X81850000Y-112975000I-237500J0D01*
G01*
X81350000Y-112975000D01*
G75*
G02*
X81112500Y-112737500I0J237500D01*
G01*
X81112500Y-112262500D01*
G75*
G02*
X81350000Y-112025000I237500J0D01*
G01*
X81850000Y-112025000D01*
G75*
G02*
X82087500Y-112262500I0J-237500D01*
G01*
G37*
G36*
G01*
X80262500Y-112262500D02*
X80262500Y-112737500D01*
G75*
G02*
X80025000Y-112975000I-237500J0D01*
G01*
X79525000Y-112975000D01*
G75*
G02*
X79287500Y-112737500I0J237500D01*
G01*
X79287500Y-112262500D01*
G75*
G02*
X79525000Y-112025000I237500J0D01*
G01*
X80025000Y-112025000D01*
G75*
G02*
X80262500Y-112262500I0J-237500D01*
G01*
G37*
%TD*%
%TO.C,R11*%
G36*
G01*
X78937500Y-78812500D02*
X78462500Y-78812500D01*
G75*
G02*
X78225000Y-78575000I0J237500D01*
G01*
X78225000Y-78075000D01*
G75*
G02*
X78462500Y-77837500I237500J0D01*
G01*
X78937500Y-77837500D01*
G75*
G02*
X79175000Y-78075000I0J-237500D01*
G01*
X79175000Y-78575000D01*
G75*
G02*
X78937500Y-78812500I-237500J0D01*
G01*
G37*
G36*
G01*
X78937500Y-76987500D02*
X78462500Y-76987500D01*
G75*
G02*
X78225000Y-76750000I0J237500D01*
G01*
X78225000Y-76250000D01*
G75*
G02*
X78462500Y-76012500I237500J0D01*
G01*
X78937500Y-76012500D01*
G75*
G02*
X79175000Y-76250000I0J-237500D01*
G01*
X79175000Y-76750000D01*
G75*
G02*
X78937500Y-76987500I-237500J0D01*
G01*
G37*
%TD*%
%TO.C,R12*%
G36*
G01*
X78112500Y-80637500D02*
X78112500Y-80162500D01*
G75*
G02*
X78350000Y-79925000I237500J0D01*
G01*
X78850000Y-79925000D01*
G75*
G02*
X79087500Y-80162500I0J-237500D01*
G01*
X79087500Y-80637500D01*
G75*
G02*
X78850000Y-80875000I-237500J0D01*
G01*
X78350000Y-80875000D01*
G75*
G02*
X78112500Y-80637500I0J237500D01*
G01*
G37*
G36*
G01*
X76287500Y-80637500D02*
X76287500Y-80162500D01*
G75*
G02*
X76525000Y-79925000I237500J0D01*
G01*
X77025000Y-79925000D01*
G75*
G02*
X77262500Y-80162500I0J-237500D01*
G01*
X77262500Y-80637500D01*
G75*
G02*
X77025000Y-80875000I-237500J0D01*
G01*
X76525000Y-80875000D01*
G75*
G02*
X76287500Y-80637500I0J237500D01*
G01*
G37*
%TD*%
D28*
%TO.C,RTC1*%
X69150000Y-76495000D03*
X69150000Y-77765000D03*
X69150000Y-80305000D03*
X74050000Y-80305000D03*
X74050000Y-79035000D03*
X74050000Y-77765000D03*
X74050000Y-76495000D03*
X69150000Y-79035000D03*
%TD*%
D29*
%TO.C,SW1*%
X97350000Y-110600000D03*
X97350000Y-112800000D03*
X90050000Y-112800000D03*
X90050000Y-110600000D03*
D30*
X95200000Y-111700000D03*
D31*
X95950000Y-109950000D03*
X94450000Y-109950000D03*
X91450000Y-109950000D03*
%TD*%
D11*
%TO.C,SW2*%
X53848800Y-107878800D03*
X60351200Y-107878800D03*
X53848800Y-112400000D03*
X60351200Y-112400000D03*
%TD*%
D32*
%TO.C,TH1*%
X42750000Y-93900000D03*
X42750000Y-96400000D03*
%TD*%
%TO.C,U1*%
G36*
G01*
X50450000Y-93000000D02*
X50450000Y-93000000D01*
G75*
G02*
X50546237Y-92903763I96237J0D01*
G01*
X50959829Y-92903763D01*
G75*
G02*
X51056066Y-93000000I0J-96237D01*
G01*
X51056066Y-93000000D01*
G75*
G02*
X50959829Y-93096237I-96237J0D01*
G01*
X50546237Y-93096237D01*
G75*
G02*
X50450000Y-93000000I0J96237D01*
G01*
G37*
G36*
G01*
X50450000Y-93400000D02*
X50450000Y-93400000D01*
G75*
G02*
X50546237Y-93303763I96237J0D01*
G01*
X50959829Y-93303763D01*
G75*
G02*
X51056066Y-93400000I0J-96237D01*
G01*
X51056066Y-93400000D01*
G75*
G02*
X50959829Y-93496237I-96237J0D01*
G01*
X50546237Y-93496237D01*
G75*
G02*
X50450000Y-93400000I0J96237D01*
G01*
G37*
G36*
G01*
X50450000Y-93800000D02*
X50450000Y-93800000D01*
G75*
G02*
X50546237Y-93703763I96237J0D01*
G01*
X50959829Y-93703763D01*
G75*
G02*
X51056066Y-93800000I0J-96237D01*
G01*
X51056066Y-93800000D01*
G75*
G02*
X50959829Y-93896237I-96237J0D01*
G01*
X50546237Y-93896237D01*
G75*
G02*
X50450000Y-93800000I0J96237D01*
G01*
G37*
G36*
G01*
X50450000Y-94200000D02*
X50450000Y-94200000D01*
G75*
G02*
X50546237Y-94103763I96237J0D01*
G01*
X50959829Y-94103763D01*
G75*
G02*
X51056066Y-94200000I0J-96237D01*
G01*
X51056066Y-94200000D01*
G75*
G02*
X50959829Y-94296237I-96237J0D01*
G01*
X50546237Y-94296237D01*
G75*
G02*
X50450000Y-94200000I0J96237D01*
G01*
G37*
G36*
G01*
X50450000Y-94600000D02*
X50450000Y-94600000D01*
G75*
G02*
X50546237Y-94503763I96237J0D01*
G01*
X50959829Y-94503763D01*
G75*
G02*
X51056066Y-94600000I0J-96237D01*
G01*
X51056066Y-94600000D01*
G75*
G02*
X50959829Y-94696237I-96237J0D01*
G01*
X50546237Y-94696237D01*
G75*
G02*
X50450000Y-94600000I0J96237D01*
G01*
G37*
G36*
G01*
X48543934Y-94600000D02*
X48543934Y-94600000D01*
G75*
G02*
X48640171Y-94503763I96237J0D01*
G01*
X49053763Y-94503763D01*
G75*
G02*
X49150000Y-94600000I0J-96237D01*
G01*
X49150000Y-94600000D01*
G75*
G02*
X49053763Y-94696237I-96237J0D01*
G01*
X48640171Y-94696237D01*
G75*
G02*
X48543934Y-94600000I0J96237D01*
G01*
G37*
G36*
G01*
X48543934Y-94200000D02*
X48543934Y-94200000D01*
G75*
G02*
X48640171Y-94103763I96237J0D01*
G01*
X49053763Y-94103763D01*
G75*
G02*
X49150000Y-94200000I0J-96237D01*
G01*
X49150000Y-94200000D01*
G75*
G02*
X49053763Y-94296237I-96237J0D01*
G01*
X48640171Y-94296237D01*
G75*
G02*
X48543934Y-94200000I0J96237D01*
G01*
G37*
G36*
G01*
X48543934Y-93800000D02*
X48543934Y-93800000D01*
G75*
G02*
X48640171Y-93703763I96237J0D01*
G01*
X49053763Y-93703763D01*
G75*
G02*
X49150000Y-93800000I0J-96237D01*
G01*
X49150000Y-93800000D01*
G75*
G02*
X49053763Y-93896237I-96237J0D01*
G01*
X48640171Y-93896237D01*
G75*
G02*
X48543934Y-93800000I0J96237D01*
G01*
G37*
G36*
G01*
X48543934Y-93400000D02*
X48543934Y-93400000D01*
G75*
G02*
X48640171Y-93303763I96237J0D01*
G01*
X49053763Y-93303763D01*
G75*
G02*
X49150000Y-93400000I0J-96237D01*
G01*
X49150000Y-93400000D01*
G75*
G02*
X49053763Y-93496237I-96237J0D01*
G01*
X48640171Y-93496237D01*
G75*
G02*
X48543934Y-93400000I0J96237D01*
G01*
G37*
D33*
X48846967Y-93000000D03*
D34*
X49800000Y-93800000D03*
%TD*%
%TO.C,U4*%
G36*
G01*
X71787500Y-82550002D02*
X71787500Y-81649998D01*
G75*
G02*
X72037498Y-81400000I249998J0D01*
G01*
X72562502Y-81400000D01*
G75*
G02*
X72812500Y-81649998I0J-249998D01*
G01*
X72812500Y-82550002D01*
G75*
G02*
X72562502Y-82800000I-249998J0D01*
G01*
X72037498Y-82800000D01*
G75*
G02*
X71787500Y-82550002I0J249998D01*
G01*
G37*
%TD*%
%TO.C,U5*%
G36*
G01*
X74312500Y-81649998D02*
X74312500Y-82550002D01*
G75*
G02*
X74062502Y-82800000I-249998J0D01*
G01*
X73537498Y-82800000D01*
G75*
G02*
X73287500Y-82550002I0J249998D01*
G01*
X73287500Y-81649998D01*
G75*
G02*
X73537498Y-81400000I249998J0D01*
G01*
X74062502Y-81400000D01*
G75*
G02*
X74312500Y-81649998I0J-249998D01*
G01*
G37*
%TD*%
%TO.C,U6*%
G36*
G01*
X70587500Y-96000002D02*
X70587500Y-95099998D01*
G75*
G02*
X70837498Y-94850000I249998J0D01*
G01*
X71362502Y-94850000D01*
G75*
G02*
X71612500Y-95099998I0J-249998D01*
G01*
X71612500Y-96000002D01*
G75*
G02*
X71362502Y-96250000I-249998J0D01*
G01*
X70837498Y-96250000D01*
G75*
G02*
X70587500Y-96000002I0J249998D01*
G01*
G37*
%TD*%
%TO.C,U7*%
G36*
G01*
X72137500Y-96000002D02*
X72137500Y-95099998D01*
G75*
G02*
X72387498Y-94850000I249998J0D01*
G01*
X72912502Y-94850000D01*
G75*
G02*
X73162500Y-95099998I0J-249998D01*
G01*
X73162500Y-96000002D01*
G75*
G02*
X72912502Y-96250000I-249998J0D01*
G01*
X72387498Y-96250000D01*
G75*
G02*
X72137500Y-96000002I0J249998D01*
G01*
G37*
%TD*%
%TO.C,U8*%
G36*
G01*
X73687500Y-96050002D02*
X73687500Y-95149998D01*
G75*
G02*
X73937498Y-94900000I249998J0D01*
G01*
X74462502Y-94900000D01*
G75*
G02*
X74712500Y-95149998I0J-249998D01*
G01*
X74712500Y-96050002D01*
G75*
G02*
X74462502Y-96300000I-249998J0D01*
G01*
X73937498Y-96300000D01*
G75*
G02*
X73687500Y-96050002I0J249998D01*
G01*
G37*
%TD*%
%TO.C,U9*%
G36*
G01*
X99649998Y-89887500D02*
X100550002Y-89887500D01*
G75*
G02*
X100800000Y-90137498I0J-249998D01*
G01*
X100800000Y-90662502D01*
G75*
G02*
X100550002Y-90912500I-249998J0D01*
G01*
X99649998Y-90912500D01*
G75*
G02*
X99400000Y-90662502I0J249998D01*
G01*
X99400000Y-90137498D01*
G75*
G02*
X99649998Y-89887500I249998J0D01*
G01*
G37*
%TD*%
%TO.C,U10*%
G36*
G01*
X83849998Y-92387500D02*
X84750002Y-92387500D01*
G75*
G02*
X85000000Y-92637498I0J-249998D01*
G01*
X85000000Y-93162502D01*
G75*
G02*
X84750002Y-93412500I-249998J0D01*
G01*
X83849998Y-93412500D01*
G75*
G02*
X83600000Y-93162502I0J249998D01*
G01*
X83600000Y-92637498D01*
G75*
G02*
X83849998Y-92387500I249998J0D01*
G01*
G37*
%TD*%
D35*
%TO.C,Y1*%
X59850000Y-95750000D03*
X59850000Y-92850000D03*
X62150000Y-92850000D03*
X62150000Y-95750000D03*
%TD*%
D36*
%TO.C,FTDI1*%
X62000000Y-80100000D03*
D37*
X60000000Y-80100000D03*
X58000000Y-80100000D03*
X56000000Y-80100000D03*
X54000000Y-80100000D03*
X52000000Y-80100000D03*
%TD*%
D38*
%TO.C,J2*%
X51200000Y-111750000D03*
X44600000Y-111750000D03*
D39*
X51200000Y-111750000D03*
X44600000Y-111750000D03*
D40*
X49100000Y-111750000D03*
X46700000Y-111750000D03*
D41*
X51100000Y-109300000D03*
X44700000Y-109300000D03*
D42*
X49200000Y-109075000D03*
X48550000Y-109075000D03*
X47900000Y-109075000D03*
X47250000Y-109075000D03*
X46600000Y-109075000D03*
%TD*%
%TO.C,C19*%
G36*
G01*
X99637500Y-95437500D02*
X99637500Y-94962500D01*
G75*
G02*
X99875000Y-94725000I237500J0D01*
G01*
X100475000Y-94725000D01*
G75*
G02*
X100712500Y-94962500I0J-237500D01*
G01*
X100712500Y-95437500D01*
G75*
G02*
X100475000Y-95675000I-237500J0D01*
G01*
X99875000Y-95675000D01*
G75*
G02*
X99637500Y-95437500I0J237500D01*
G01*
G37*
G36*
G01*
X101362500Y-95437500D02*
X101362500Y-94962500D01*
G75*
G02*
X101600000Y-94725000I237500J0D01*
G01*
X102200000Y-94725000D01*
G75*
G02*
X102437500Y-94962500I0J-237500D01*
G01*
X102437500Y-95437500D01*
G75*
G02*
X102200000Y-95675000I-237500J0D01*
G01*
X101600000Y-95675000D01*
G75*
G02*
X101362500Y-95437500I0J237500D01*
G01*
G37*
%TD*%
M02*
