M48
; DRILL file {KiCad (5.1.9)-1} date 01/19/21 18:40:40
; FORMAT={-:-/ absolute / metric / decimal}
; #@! TF.CreationDate,2021-01-19T18:40:40+01:00
; #@! TF.GenerationSoftware,Kicad,Pcbnew,(5.1.9)-1
; #@! TF.FileFunction,Plated,1,2,PTH
FMAT,2
METRIC
T1C0.500
T2C0.650
T3C0.800
T4C0.813
T5C0.900
T6C1.016
%
G90
G05
T2
X42.75Y-93.9
X42.75Y-96.4
T3
X52.0Y-80.1
X54.0Y-80.1
X56.0Y-80.1
X58.0Y-80.1
X60.0Y-80.1
X62.0Y-80.1
T4
X63.1Y-111.3
X65.64Y-111.3
X68.26Y-111.25
X70.8Y-111.25
T5
X52.0Y-90.5
X52.0Y-92.3
X54.2Y-85.8
X59.3Y-89.7
X61.5Y-85.5
X66.4Y-82.9
X68.4Y-95.8
X68.7Y-102.7
X74.1Y-108.2
X77.3Y-97.5
X78.6Y-82.3
X79.5Y-84.0
X80.1Y-91.8
X80.5Y-77.5
X89.814Y-83.5
X89.814Y-97.1
X94.0Y-106.3
X94.284Y-83.5
X94.284Y-97.1
X95.6Y-100.5
X96.5Y-83.5
X99.0Y-98.6
X100.5Y-106.5
X101.1Y-88.6
X101.9Y-92.2
T6
X53.849Y-107.879
X53.849Y-112.4
X60.351Y-107.879
X60.351Y-112.4
T1
G00X44.6Y-111.4
M15
G01X44.6Y-112.1
M16
G05
G00X51.2Y-111.4
M15
G01X51.2Y-112.1
M16
G05
T0
M30
