%TF.GenerationSoftware,KiCad,Pcbnew,(5.1.9)-1*%
%TF.CreationDate,2021-01-19T18:40:37+01:00*%
%TF.ProjectId,Track-your-cat,54726163-6b2d-4796-9f75-722d6361742e,1*%
%TF.SameCoordinates,Original*%
%TF.FileFunction,Copper,L2,Bot*%
%TF.FilePolarity,Positive*%
%FSLAX46Y46*%
G04 Gerber Fmt 4.6, Leading zero omitted, Abs format (unit mm)*
G04 Created by KiCad (PCBNEW (5.1.9)-1) date 2021-01-19 18:40:37*
%MOMM*%
%LPD*%
G01*
G04 APERTURE LIST*
%TA.AperFunction,ComponentPad*%
%ADD10C,1.879600*%
%TD*%
%TA.AperFunction,ComponentPad*%
%ADD11C,1.050000*%
%TD*%
%TA.AperFunction,ComponentPad*%
%ADD12R,1.350000X1.350000*%
%TD*%
%TA.AperFunction,ComponentPad*%
%ADD13O,1.350000X1.350000*%
%TD*%
%TA.AperFunction,ComponentPad*%
%ADD14O,0.900000X1.800000*%
%TD*%
%TA.AperFunction,ViaPad*%
%ADD15C,1.600000*%
%TD*%
%TA.AperFunction,Conductor*%
%ADD16C,0.350000*%
%TD*%
%TA.AperFunction,Conductor*%
%ADD17C,0.500000*%
%TD*%
%TA.AperFunction,Conductor*%
%ADD18C,0.200000*%
%TD*%
%TA.AperFunction,Conductor*%
%ADD19C,0.254000*%
%TD*%
%TA.AperFunction,Conductor*%
%ADD20C,0.100000*%
%TD*%
G04 APERTURE END LIST*
D10*
%TO.P,D2,2*%
%TO.N,Net-(D2-Pad2)*%
X70800000Y-111250000D03*
%TO.P,D2,1*%
%TO.N,Net-(D1-Pad1)*%
X68260000Y-111250000D03*
%TD*%
%TO.P,D1,1*%
%TO.N,Net-(D1-Pad1)*%
X63100000Y-111300000D03*
%TO.P,D1,2*%
%TO.N,Net-(D1-Pad2)*%
X65640000Y-111300000D03*
%TD*%
%TO.P,SW2,1*%
%TO.N,Net-(D1-Pad1)*%
X53848800Y-107878800D03*
%TO.P,SW2,2*%
X60351200Y-107878800D03*
%TO.P,SW2,3*%
%TO.N,Bat-*%
X53848800Y-112400000D03*
%TO.P,SW2,4*%
X60351200Y-112400000D03*
%TD*%
D11*
%TO.P,TH1,2*%
%TO.N,Bat-*%
X42750000Y-93900000D03*
%TO.P,TH1,1*%
%TO.N,TSense*%
X42750000Y-96400000D03*
%TD*%
D12*
%TO.P,FTDI1,1*%
%TO.N,Bat-*%
X62000000Y-80100000D03*
D13*
%TO.P,FTDI1,2*%
X60000000Y-80100000D03*
%TO.P,FTDI1,3*%
%TO.N,+3V3*%
X58000000Y-80100000D03*
%TO.P,FTDI1,4*%
%TO.N,RX*%
X56000000Y-80100000D03*
%TO.P,FTDI1,5*%
%TO.N,TX*%
X54000000Y-80100000D03*
%TO.P,FTDI1,6*%
%TO.N,DTR*%
X52000000Y-80100000D03*
%TD*%
D14*
%TO.P,J2,S6*%
%TO.N,Net-(J2-PadS1)*%
X51200000Y-111750000D03*
%TO.P,J2,S5*%
X44600000Y-111750000D03*
%TD*%
D15*
%TO.N,+3V3*%
X59300000Y-89700000D03*
X78600000Y-82300000D03*
%TO.N,Bat-*%
X96500000Y-83500000D03*
X89814000Y-97100000D03*
X94284400Y-97100000D03*
X89814000Y-83500000D03*
X94284400Y-83500000D03*
X79500000Y-84000000D03*
X61500000Y-85500000D03*
X77300000Y-97500000D03*
X74100000Y-108200000D03*
X68700000Y-102700000D03*
%TO.N,Bat+*%
X94000000Y-106300000D03*
X52000000Y-92300000D03*
X54200000Y-85800000D03*
%TO.N,+1V8*%
X101100000Y-88600000D03*
X101900000Y-92200000D03*
X80100000Y-91800000D03*
%TO.N,GPS_ON*%
X68400000Y-95800000D03*
X100500000Y-106500000D03*
%TO.N,INT*%
X80500000Y-77500000D03*
X66400000Y-82900020D03*
%TO.N,TSense*%
X52000000Y-90499997D03*
%TO.N,Power_in*%
X95600000Y-100500000D03*
X99000000Y-98600000D03*
%TD*%
D16*
%TO.N,+3V3*%
X58000000Y-88400000D02*
X59300000Y-89700000D01*
X58000000Y-80100000D02*
X58000000Y-88400000D01*
D17*
X71200000Y-89700000D02*
X78600000Y-82300000D01*
X59300000Y-89700000D02*
X71200000Y-89700000D01*
D16*
%TO.N,Bat-*%
X79500000Y-84000000D02*
X80100000Y-83400000D01*
X80100000Y-83400000D02*
X80100000Y-81600000D01*
X80100000Y-81600000D02*
X79624999Y-81124999D01*
X79624999Y-81124999D02*
X79400000Y-80900000D01*
X79400000Y-80900000D02*
X78100000Y-80900000D01*
X78100000Y-80900000D02*
X76500000Y-82500000D01*
X73500000Y-85500000D02*
X61500000Y-85500000D01*
X76500000Y-82500000D02*
X73500000Y-85500000D01*
X61500000Y-80600000D02*
X62000000Y-80100000D01*
X61500000Y-81600000D02*
X61500000Y-81900000D01*
X60000000Y-80100000D02*
X61500000Y-81600000D01*
X61500000Y-81900000D02*
X61500000Y-80600000D01*
X61500000Y-85500000D02*
X61500000Y-81900000D01*
D17*
%TO.N,Bat+*%
X52000000Y-92300000D02*
X66000000Y-106300000D01*
X54200000Y-90100000D02*
X54200000Y-85800000D01*
X52000000Y-92300000D02*
X54200000Y-90100000D01*
X94000000Y-106300000D02*
X66000000Y-106300000D01*
D18*
%TO.N,+1V8*%
X101900000Y-89400000D02*
X101900000Y-92200000D01*
X101100000Y-88600000D02*
X101900000Y-89400000D01*
D16*
X80500000Y-92200000D02*
X80100000Y-91800000D01*
D17*
X87000000Y-98700000D02*
X80100000Y-91800000D01*
X95400000Y-98700000D02*
X87000000Y-98700000D01*
X101900000Y-92200000D02*
X95400000Y-98700000D01*
D16*
%TO.N,Net-(D1-Pad1)*%
X68260000Y-109760000D02*
X68260000Y-111250000D01*
X67800000Y-109300000D02*
X68260000Y-109760000D01*
X63800000Y-109300000D02*
X67800000Y-109300000D01*
X63100000Y-110000000D02*
X63800000Y-109300000D01*
X63100000Y-111300000D02*
X63100000Y-110000000D01*
D18*
%TO.N,GPS_ON*%
X69400000Y-94800000D02*
X68400000Y-95800000D01*
X79499998Y-94800000D02*
X69400000Y-94800000D01*
X84300000Y-99600000D02*
X79499998Y-94800000D01*
X90600000Y-99600000D02*
X84300000Y-99600000D01*
X97500000Y-106500000D02*
X90600000Y-99600000D01*
X100500000Y-106500000D02*
X97500000Y-106500000D01*
%TO.N,INT*%
X75099980Y-82900020D02*
X66400000Y-82900020D01*
X80500000Y-77500000D02*
X75099980Y-82900020D01*
%TO.N,TSense*%
X47850004Y-91299996D02*
X42750000Y-96400000D01*
X51200001Y-91299996D02*
X47850004Y-91299996D01*
X52000000Y-90499997D02*
X51200001Y-91299996D01*
%TO.N,Power_in*%
X97100000Y-100500000D02*
X99000000Y-98600000D01*
X95600000Y-100500000D02*
X97100000Y-100500000D01*
%TD*%
D19*
%TO.N,Bat-*%
X100800580Y-72766834D02*
X101378288Y-72941255D01*
X101911118Y-73224566D01*
X102378770Y-73605972D01*
X102763429Y-74070946D01*
X103050450Y-74601781D01*
X103228898Y-75178255D01*
X103293989Y-75797545D01*
X103294001Y-75801124D01*
X103294000Y-110780146D01*
X103233166Y-111400580D01*
X103058745Y-111978290D01*
X102775434Y-112511118D01*
X102394032Y-112978765D01*
X101929057Y-113363427D01*
X101398222Y-113650449D01*
X100821745Y-113828898D01*
X100202455Y-113893989D01*
X100199163Y-113894000D01*
X43734083Y-113894000D01*
X43731734Y-113893582D01*
X43726079Y-113893177D01*
X43181522Y-113858050D01*
X42692633Y-113728049D01*
X42238303Y-113505565D01*
X41913743Y-113258398D01*
X53022929Y-113258398D01*
X53119320Y-113443173D01*
X53336850Y-113565443D01*
X53574054Y-113642925D01*
X53821815Y-113672644D01*
X54070614Y-113653455D01*
X54310889Y-113586096D01*
X54533407Y-113473156D01*
X54578280Y-113443173D01*
X54674671Y-113258398D01*
X59525329Y-113258398D01*
X59621720Y-113443173D01*
X59839250Y-113565443D01*
X60076454Y-113642925D01*
X60324215Y-113672644D01*
X60573014Y-113653455D01*
X60813289Y-113586096D01*
X61035807Y-113473156D01*
X61080680Y-113443173D01*
X61177071Y-113258398D01*
X60351200Y-112432527D01*
X59525329Y-113258398D01*
X54674671Y-113258398D01*
X53848800Y-112432527D01*
X53022929Y-113258398D01*
X41913743Y-113258398D01*
X41835836Y-113199069D01*
X41500572Y-112820245D01*
X41245270Y-112383508D01*
X41079662Y-111905507D01*
X41007871Y-111388741D01*
X41006000Y-111295888D01*
X41006000Y-111259186D01*
X43769000Y-111259186D01*
X43769000Y-112240815D01*
X43781026Y-112362904D01*
X43828543Y-112519548D01*
X43905707Y-112663912D01*
X44009553Y-112790448D01*
X44136089Y-112894294D01*
X44280453Y-112971458D01*
X44437097Y-113018975D01*
X44600000Y-113035020D01*
X44762904Y-113018975D01*
X44919548Y-112971458D01*
X45063912Y-112894294D01*
X45190448Y-112790448D01*
X45294294Y-112663912D01*
X45371458Y-112519548D01*
X45418975Y-112362904D01*
X45431000Y-112240815D01*
X45431000Y-111259186D01*
X50369000Y-111259186D01*
X50369000Y-112240815D01*
X50381026Y-112362904D01*
X50428543Y-112519548D01*
X50505707Y-112663912D01*
X50609553Y-112790448D01*
X50736089Y-112894294D01*
X50880453Y-112971458D01*
X51037097Y-113018975D01*
X51200000Y-113035020D01*
X51362904Y-113018975D01*
X51519548Y-112971458D01*
X51663912Y-112894294D01*
X51790448Y-112790448D01*
X51894294Y-112663912D01*
X51971458Y-112519548D01*
X52015907Y-112373015D01*
X52576156Y-112373015D01*
X52595345Y-112621814D01*
X52662704Y-112862089D01*
X52775644Y-113084607D01*
X52805627Y-113129480D01*
X52990402Y-113225871D01*
X53816273Y-112400000D01*
X53881327Y-112400000D01*
X54707198Y-113225871D01*
X54891973Y-113129480D01*
X55014243Y-112911950D01*
X55091725Y-112674746D01*
X55121444Y-112426985D01*
X55117282Y-112373015D01*
X59078556Y-112373015D01*
X59097745Y-112621814D01*
X59165104Y-112862089D01*
X59278044Y-113084607D01*
X59308027Y-113129480D01*
X59492802Y-113225871D01*
X60318673Y-112400000D01*
X60383727Y-112400000D01*
X61209598Y-113225871D01*
X61394373Y-113129480D01*
X61516643Y-112911950D01*
X61594125Y-112674746D01*
X61623844Y-112426985D01*
X61604655Y-112178186D01*
X61537296Y-111937911D01*
X61424356Y-111715393D01*
X61394373Y-111670520D01*
X61209598Y-111574129D01*
X60383727Y-112400000D01*
X60318673Y-112400000D01*
X59492802Y-111574129D01*
X59308027Y-111670520D01*
X59185757Y-111888050D01*
X59108275Y-112125254D01*
X59078556Y-112373015D01*
X55117282Y-112373015D01*
X55102255Y-112178186D01*
X55034896Y-111937911D01*
X54921956Y-111715393D01*
X54891973Y-111670520D01*
X54707198Y-111574129D01*
X53881327Y-112400000D01*
X53816273Y-112400000D01*
X52990402Y-111574129D01*
X52805627Y-111670520D01*
X52683357Y-111888050D01*
X52605875Y-112125254D01*
X52576156Y-112373015D01*
X52015907Y-112373015D01*
X52018975Y-112362904D01*
X52031000Y-112240815D01*
X52031000Y-111541602D01*
X53022929Y-111541602D01*
X53848800Y-112367473D01*
X54674671Y-111541602D01*
X59525329Y-111541602D01*
X60351200Y-112367473D01*
X61177071Y-111541602D01*
X61080680Y-111356827D01*
X60863150Y-111234557D01*
X60665249Y-111169913D01*
X61779200Y-111169913D01*
X61779200Y-111430087D01*
X61829957Y-111685263D01*
X61929522Y-111925634D01*
X62074067Y-112141961D01*
X62258039Y-112325933D01*
X62474366Y-112470478D01*
X62714737Y-112570043D01*
X62969913Y-112620800D01*
X63230087Y-112620800D01*
X63485263Y-112570043D01*
X63725634Y-112470478D01*
X63941961Y-112325933D01*
X64125933Y-112141961D01*
X64270478Y-111925634D01*
X64370000Y-111685367D01*
X64469522Y-111925634D01*
X64614067Y-112141961D01*
X64798039Y-112325933D01*
X65014366Y-112470478D01*
X65254737Y-112570043D01*
X65509913Y-112620800D01*
X65770087Y-112620800D01*
X66025263Y-112570043D01*
X66265634Y-112470478D01*
X66481961Y-112325933D01*
X66665933Y-112141961D01*
X66810478Y-111925634D01*
X66910043Y-111685263D01*
X66954973Y-111459383D01*
X66989957Y-111635263D01*
X67089522Y-111875634D01*
X67234067Y-112091961D01*
X67418039Y-112275933D01*
X67634366Y-112420478D01*
X67874737Y-112520043D01*
X68129913Y-112570800D01*
X68390087Y-112570800D01*
X68645263Y-112520043D01*
X68885634Y-112420478D01*
X69101961Y-112275933D01*
X69285933Y-112091961D01*
X69430478Y-111875634D01*
X69530000Y-111635367D01*
X69629522Y-111875634D01*
X69774067Y-112091961D01*
X69958039Y-112275933D01*
X70174366Y-112420478D01*
X70414737Y-112520043D01*
X70669913Y-112570800D01*
X70930087Y-112570800D01*
X71185263Y-112520043D01*
X71425634Y-112420478D01*
X71641961Y-112275933D01*
X71825933Y-112091961D01*
X71970478Y-111875634D01*
X72070043Y-111635263D01*
X72073446Y-111618154D01*
X91369000Y-111618154D01*
X91369000Y-111781846D01*
X91400935Y-111942394D01*
X91463577Y-112093626D01*
X91554520Y-112229732D01*
X91670268Y-112345480D01*
X91806374Y-112436423D01*
X91957606Y-112499065D01*
X92118154Y-112531000D01*
X92281846Y-112531000D01*
X92442394Y-112499065D01*
X92593626Y-112436423D01*
X92729732Y-112345480D01*
X92845480Y-112229732D01*
X92936423Y-112093626D01*
X92999065Y-111942394D01*
X93031000Y-111781846D01*
X93031000Y-111618154D01*
X94369000Y-111618154D01*
X94369000Y-111781846D01*
X94400935Y-111942394D01*
X94463577Y-112093626D01*
X94554520Y-112229732D01*
X94670268Y-112345480D01*
X94806374Y-112436423D01*
X94957606Y-112499065D01*
X95118154Y-112531000D01*
X95281846Y-112531000D01*
X95442394Y-112499065D01*
X95593626Y-112436423D01*
X95729732Y-112345480D01*
X95845480Y-112229732D01*
X95936423Y-112093626D01*
X95999065Y-111942394D01*
X96031000Y-111781846D01*
X96031000Y-111618154D01*
X95999065Y-111457606D01*
X95936423Y-111306374D01*
X95845480Y-111170268D01*
X95729732Y-111054520D01*
X95593626Y-110963577D01*
X95442394Y-110900935D01*
X95281846Y-110869000D01*
X95118154Y-110869000D01*
X94957606Y-110900935D01*
X94806374Y-110963577D01*
X94670268Y-111054520D01*
X94554520Y-111170268D01*
X94463577Y-111306374D01*
X94400935Y-111457606D01*
X94369000Y-111618154D01*
X93031000Y-111618154D01*
X92999065Y-111457606D01*
X92936423Y-111306374D01*
X92845480Y-111170268D01*
X92729732Y-111054520D01*
X92593626Y-110963577D01*
X92442394Y-110900935D01*
X92281846Y-110869000D01*
X92118154Y-110869000D01*
X91957606Y-110900935D01*
X91806374Y-110963577D01*
X91670268Y-111054520D01*
X91554520Y-111170268D01*
X91463577Y-111306374D01*
X91400935Y-111457606D01*
X91369000Y-111618154D01*
X72073446Y-111618154D01*
X72120800Y-111380087D01*
X72120800Y-111119913D01*
X72070043Y-110864737D01*
X71970478Y-110624366D01*
X71825933Y-110408039D01*
X71641961Y-110224067D01*
X71425634Y-110079522D01*
X71185263Y-109979957D01*
X70930087Y-109929200D01*
X70669913Y-109929200D01*
X70414737Y-109979957D01*
X70174366Y-110079522D01*
X69958039Y-110224067D01*
X69774067Y-110408039D01*
X69629522Y-110624366D01*
X69530000Y-110864633D01*
X69430478Y-110624366D01*
X69285933Y-110408039D01*
X69101961Y-110224067D01*
X68885634Y-110079522D01*
X68816000Y-110050679D01*
X68816000Y-109787304D01*
X68818689Y-109759999D01*
X68816000Y-109732694D01*
X68816000Y-109732688D01*
X68807955Y-109651005D01*
X68776162Y-109546199D01*
X68724534Y-109449608D01*
X68691192Y-109408981D01*
X68672463Y-109386160D01*
X68672460Y-109386157D01*
X68655053Y-109364947D01*
X68633842Y-109347539D01*
X68212468Y-108926167D01*
X68195053Y-108904947D01*
X68110392Y-108835466D01*
X68013801Y-108783838D01*
X67908995Y-108752045D01*
X67827312Y-108744000D01*
X67827304Y-108744000D01*
X67800000Y-108741311D01*
X67772696Y-108744000D01*
X63827296Y-108744000D01*
X63799999Y-108741312D01*
X63772702Y-108744000D01*
X63772688Y-108744000D01*
X63696446Y-108751509D01*
X63691004Y-108752045D01*
X63659211Y-108761690D01*
X63586199Y-108783838D01*
X63489608Y-108835466D01*
X63448981Y-108868808D01*
X63426160Y-108887537D01*
X63426157Y-108887540D01*
X63404947Y-108904947D01*
X63387540Y-108926157D01*
X62726163Y-109587536D01*
X62704948Y-109604947D01*
X62635467Y-109689608D01*
X62632557Y-109695053D01*
X62583839Y-109786199D01*
X62552045Y-109891006D01*
X62541311Y-110000000D01*
X62544001Y-110027314D01*
X62544001Y-110100678D01*
X62474366Y-110129522D01*
X62258039Y-110274067D01*
X62074067Y-110458039D01*
X61929522Y-110674366D01*
X61829957Y-110914737D01*
X61779200Y-111169913D01*
X60665249Y-111169913D01*
X60625946Y-111157075D01*
X60378185Y-111127356D01*
X60129386Y-111146545D01*
X59889111Y-111213904D01*
X59666593Y-111326844D01*
X59621720Y-111356827D01*
X59525329Y-111541602D01*
X54674671Y-111541602D01*
X54578280Y-111356827D01*
X54360750Y-111234557D01*
X54123546Y-111157075D01*
X53875785Y-111127356D01*
X53626986Y-111146545D01*
X53386711Y-111213904D01*
X53164193Y-111326844D01*
X53119320Y-111356827D01*
X53022929Y-111541602D01*
X52031000Y-111541602D01*
X52031000Y-111259185D01*
X52018975Y-111137096D01*
X51971458Y-110980452D01*
X51894294Y-110836088D01*
X51790448Y-110709552D01*
X51663911Y-110605706D01*
X51519547Y-110528542D01*
X51362903Y-110481025D01*
X51200000Y-110464980D01*
X51037096Y-110481025D01*
X50880452Y-110528542D01*
X50736088Y-110605706D01*
X50609552Y-110709552D01*
X50505706Y-110836089D01*
X50428542Y-110980453D01*
X50381025Y-111137097D01*
X50369000Y-111259186D01*
X45431000Y-111259186D01*
X45431000Y-111259185D01*
X45418975Y-111137096D01*
X45371458Y-110980452D01*
X45294294Y-110836088D01*
X45190448Y-110709552D01*
X45063911Y-110605706D01*
X44919547Y-110528542D01*
X44762903Y-110481025D01*
X44600000Y-110464980D01*
X44437096Y-110481025D01*
X44280452Y-110528542D01*
X44136088Y-110605706D01*
X44009552Y-110709552D01*
X43905706Y-110836089D01*
X43828542Y-110980453D01*
X43781025Y-111137097D01*
X43769000Y-111259186D01*
X41006000Y-111259186D01*
X41006000Y-107748713D01*
X52528000Y-107748713D01*
X52528000Y-108008887D01*
X52578757Y-108264063D01*
X52678322Y-108504434D01*
X52822867Y-108720761D01*
X53006839Y-108904733D01*
X53223166Y-109049278D01*
X53463537Y-109148843D01*
X53718713Y-109199600D01*
X53978887Y-109199600D01*
X54234063Y-109148843D01*
X54474434Y-109049278D01*
X54690761Y-108904733D01*
X54874733Y-108720761D01*
X55019278Y-108504434D01*
X55118843Y-108264063D01*
X55169600Y-108008887D01*
X55169600Y-107748713D01*
X59030400Y-107748713D01*
X59030400Y-108008887D01*
X59081157Y-108264063D01*
X59180722Y-108504434D01*
X59325267Y-108720761D01*
X59509239Y-108904733D01*
X59725566Y-109049278D01*
X59965937Y-109148843D01*
X60221113Y-109199600D01*
X60481287Y-109199600D01*
X60736463Y-109148843D01*
X60976834Y-109049278D01*
X61193161Y-108904733D01*
X61377133Y-108720761D01*
X61521678Y-108504434D01*
X61621243Y-108264063D01*
X61672000Y-108008887D01*
X61672000Y-107748713D01*
X61621243Y-107493537D01*
X61521678Y-107253166D01*
X61377133Y-107036839D01*
X61193161Y-106852867D01*
X60976834Y-106708322D01*
X60736463Y-106608757D01*
X60481287Y-106558000D01*
X60221113Y-106558000D01*
X59965937Y-106608757D01*
X59725566Y-106708322D01*
X59509239Y-106852867D01*
X59325267Y-107036839D01*
X59180722Y-107253166D01*
X59081157Y-107493537D01*
X59030400Y-107748713D01*
X55169600Y-107748713D01*
X55118843Y-107493537D01*
X55019278Y-107253166D01*
X54874733Y-107036839D01*
X54690761Y-106852867D01*
X54474434Y-106708322D01*
X54234063Y-106608757D01*
X53978887Y-106558000D01*
X53718713Y-106558000D01*
X53463537Y-106608757D01*
X53223166Y-106708322D01*
X53006839Y-106852867D01*
X52822867Y-107036839D01*
X52678322Y-107253166D01*
X52578757Y-107493537D01*
X52528000Y-107748713D01*
X41006000Y-107748713D01*
X41006000Y-103104889D01*
X42119000Y-103104889D01*
X42119000Y-103495111D01*
X42195129Y-103877836D01*
X42344461Y-104238355D01*
X42561257Y-104562814D01*
X42837186Y-104838743D01*
X43161645Y-105055539D01*
X43522164Y-105204871D01*
X43904889Y-105281000D01*
X44295111Y-105281000D01*
X44677836Y-105204871D01*
X45038355Y-105055539D01*
X45362814Y-104838743D01*
X45638743Y-104562814D01*
X45855539Y-104238355D01*
X46004871Y-103877836D01*
X46081000Y-103495111D01*
X46081000Y-103104889D01*
X46004871Y-102722164D01*
X45855539Y-102361645D01*
X45638743Y-102037186D01*
X45362814Y-101761257D01*
X45038355Y-101544461D01*
X44677836Y-101395129D01*
X44295111Y-101319000D01*
X43904889Y-101319000D01*
X43522164Y-101395129D01*
X43161645Y-101544461D01*
X42837186Y-101761257D01*
X42561257Y-102037186D01*
X42344461Y-102361645D01*
X42195129Y-102722164D01*
X42119000Y-103104889D01*
X41006000Y-103104889D01*
X41006000Y-96310767D01*
X41844000Y-96310767D01*
X41844000Y-96489233D01*
X41878817Y-96664271D01*
X41947113Y-96829152D01*
X42046264Y-96977541D01*
X42172459Y-97103736D01*
X42320848Y-97202887D01*
X42485729Y-97271183D01*
X42660767Y-97306000D01*
X42839233Y-97306000D01*
X43014271Y-97271183D01*
X43179152Y-97202887D01*
X43327541Y-97103736D01*
X43453736Y-96977541D01*
X43552887Y-96829152D01*
X43621183Y-96664271D01*
X43656000Y-96489233D01*
X43656000Y-96310767D01*
X43633348Y-96196888D01*
X48049241Y-91780996D01*
X50936674Y-91780996D01*
X50864386Y-91955515D01*
X50819000Y-92183682D01*
X50819000Y-92416318D01*
X50864386Y-92644485D01*
X50953412Y-92859413D01*
X51082658Y-93052843D01*
X51247157Y-93217342D01*
X51440587Y-93346588D01*
X51655515Y-93435614D01*
X51883682Y-93481000D01*
X52116318Y-93481000D01*
X52260043Y-93452411D01*
X65531899Y-106724268D01*
X65551657Y-106748343D01*
X65647739Y-106827196D01*
X65757358Y-106885789D01*
X65876302Y-106921870D01*
X65969002Y-106931000D01*
X65969009Y-106931000D01*
X66000000Y-106934052D01*
X66030990Y-106931000D01*
X93001245Y-106931000D01*
X93082658Y-107052843D01*
X93247157Y-107217342D01*
X93440587Y-107346588D01*
X93655515Y-107435614D01*
X93883682Y-107481000D01*
X94116318Y-107481000D01*
X94344485Y-107435614D01*
X94559413Y-107346588D01*
X94752843Y-107217342D01*
X94917342Y-107052843D01*
X95046588Y-106859413D01*
X95135614Y-106644485D01*
X95181000Y-106416318D01*
X95181000Y-106183682D01*
X95135614Y-105955515D01*
X95046588Y-105740587D01*
X94917342Y-105547157D01*
X94752843Y-105382658D01*
X94559413Y-105253412D01*
X94344485Y-105164386D01*
X94116318Y-105119000D01*
X93883682Y-105119000D01*
X93655515Y-105164386D01*
X93440587Y-105253412D01*
X93247157Y-105382658D01*
X93082658Y-105547157D01*
X93001245Y-105669000D01*
X66261369Y-105669000D01*
X56276051Y-95683682D01*
X67219000Y-95683682D01*
X67219000Y-95916318D01*
X67264386Y-96144485D01*
X67353412Y-96359413D01*
X67482658Y-96552843D01*
X67647157Y-96717342D01*
X67840587Y-96846588D01*
X68055515Y-96935614D01*
X68283682Y-96981000D01*
X68516318Y-96981000D01*
X68744485Y-96935614D01*
X68959413Y-96846588D01*
X69152843Y-96717342D01*
X69317342Y-96552843D01*
X69446588Y-96359413D01*
X69535614Y-96144485D01*
X69581000Y-95916318D01*
X69581000Y-95683682D01*
X69535614Y-95455515D01*
X69503134Y-95377102D01*
X69599236Y-95281000D01*
X79300762Y-95281000D01*
X83943170Y-99923406D01*
X83958236Y-99941764D01*
X84031478Y-100001872D01*
X84076544Y-100025960D01*
X84115038Y-100046536D01*
X84205707Y-100074040D01*
X84300000Y-100083327D01*
X84323627Y-100081000D01*
X90400764Y-100081000D01*
X97143170Y-106823406D01*
X97158236Y-106841764D01*
X97231478Y-106901872D01*
X97268892Y-106921870D01*
X97315038Y-106946536D01*
X97405707Y-106974040D01*
X97500000Y-106983327D01*
X97523626Y-106981000D01*
X99420932Y-106981000D01*
X99453412Y-107059413D01*
X99582658Y-107252843D01*
X99747157Y-107417342D01*
X99940587Y-107546588D01*
X100155515Y-107635614D01*
X100383682Y-107681000D01*
X100616318Y-107681000D01*
X100844485Y-107635614D01*
X101059413Y-107546588D01*
X101252843Y-107417342D01*
X101417342Y-107252843D01*
X101546588Y-107059413D01*
X101635614Y-106844485D01*
X101681000Y-106616318D01*
X101681000Y-106383682D01*
X101635614Y-106155515D01*
X101546588Y-105940587D01*
X101417342Y-105747157D01*
X101252843Y-105582658D01*
X101059413Y-105453412D01*
X100844485Y-105364386D01*
X100616318Y-105319000D01*
X100383682Y-105319000D01*
X100155515Y-105364386D01*
X99940587Y-105453412D01*
X99747157Y-105582658D01*
X99582658Y-105747157D01*
X99453412Y-105940587D01*
X99420932Y-106019000D01*
X97699236Y-106019000D01*
X91011236Y-99331000D01*
X95369010Y-99331000D01*
X95400000Y-99334052D01*
X95415868Y-99332489D01*
X95255515Y-99364386D01*
X95040587Y-99453412D01*
X94847157Y-99582658D01*
X94682658Y-99747157D01*
X94553412Y-99940587D01*
X94464386Y-100155515D01*
X94419000Y-100383682D01*
X94419000Y-100616318D01*
X94464386Y-100844485D01*
X94553412Y-101059413D01*
X94682658Y-101252843D01*
X94847157Y-101417342D01*
X95040587Y-101546588D01*
X95255515Y-101635614D01*
X95483682Y-101681000D01*
X95716318Y-101681000D01*
X95944485Y-101635614D01*
X96159413Y-101546588D01*
X96352843Y-101417342D01*
X96517342Y-101252843D01*
X96646588Y-101059413D01*
X96679068Y-100981000D01*
X97076374Y-100981000D01*
X97100000Y-100983327D01*
X97123626Y-100981000D01*
X97194292Y-100974040D01*
X97284961Y-100946536D01*
X97368522Y-100901872D01*
X97441764Y-100841764D01*
X97456830Y-100823406D01*
X98577102Y-99703134D01*
X98655515Y-99735614D01*
X98883682Y-99781000D01*
X99116318Y-99781000D01*
X99344485Y-99735614D01*
X99559413Y-99646588D01*
X99752843Y-99517342D01*
X99917342Y-99352843D01*
X100046588Y-99159413D01*
X100135614Y-98944485D01*
X100181000Y-98716318D01*
X100181000Y-98483682D01*
X100135614Y-98255515D01*
X100046588Y-98040587D01*
X99917342Y-97847157D01*
X99752843Y-97682658D01*
X99559413Y-97553412D01*
X99344485Y-97464386D01*
X99116318Y-97419000D01*
X98883682Y-97419000D01*
X98655515Y-97464386D01*
X98440587Y-97553412D01*
X98247157Y-97682658D01*
X98082658Y-97847157D01*
X97953412Y-98040587D01*
X97864386Y-98255515D01*
X97819000Y-98483682D01*
X97819000Y-98716318D01*
X97864386Y-98944485D01*
X97896866Y-99022898D01*
X96900764Y-100019000D01*
X96679068Y-100019000D01*
X96646588Y-99940587D01*
X96517342Y-99747157D01*
X96352843Y-99582658D01*
X96159413Y-99453412D01*
X95944485Y-99364386D01*
X95716318Y-99319000D01*
X95533159Y-99319000D01*
X95642642Y-99285789D01*
X95752261Y-99227196D01*
X95848343Y-99148343D01*
X95868105Y-99124263D01*
X101639958Y-93352411D01*
X101783682Y-93381000D01*
X102016318Y-93381000D01*
X102244485Y-93335614D01*
X102459413Y-93246588D01*
X102652843Y-93117342D01*
X102817342Y-92952843D01*
X102946588Y-92759413D01*
X103035614Y-92544485D01*
X103081000Y-92316318D01*
X103081000Y-92083682D01*
X103035614Y-91855515D01*
X102946588Y-91640587D01*
X102817342Y-91447157D01*
X102652843Y-91282658D01*
X102459413Y-91153412D01*
X102381000Y-91120932D01*
X102381000Y-89423626D01*
X102383327Y-89400000D01*
X102374040Y-89305707D01*
X102346536Y-89215040D01*
X102346536Y-89215039D01*
X102301872Y-89131478D01*
X102241764Y-89058236D01*
X102223411Y-89043174D01*
X102203134Y-89022898D01*
X102235614Y-88944485D01*
X102281000Y-88716318D01*
X102281000Y-88483682D01*
X102235614Y-88255515D01*
X102146588Y-88040587D01*
X102017342Y-87847157D01*
X101852843Y-87682658D01*
X101659413Y-87553412D01*
X101444485Y-87464386D01*
X101216318Y-87419000D01*
X100983682Y-87419000D01*
X100755515Y-87464386D01*
X100540587Y-87553412D01*
X100347157Y-87682658D01*
X100182658Y-87847157D01*
X100053412Y-88040587D01*
X99964386Y-88255515D01*
X99919000Y-88483682D01*
X99919000Y-88716318D01*
X99964386Y-88944485D01*
X100053412Y-89159413D01*
X100182658Y-89352843D01*
X100347157Y-89517342D01*
X100540587Y-89646588D01*
X100755515Y-89735614D01*
X100983682Y-89781000D01*
X101216318Y-89781000D01*
X101419000Y-89740683D01*
X101419001Y-91120932D01*
X101340587Y-91153412D01*
X101147157Y-91282658D01*
X100982658Y-91447157D01*
X100853412Y-91640587D01*
X100764386Y-91855515D01*
X100719000Y-92083682D01*
X100719000Y-92316318D01*
X100747589Y-92460042D01*
X95138632Y-98069000D01*
X87261369Y-98069000D01*
X81252411Y-92060043D01*
X81281000Y-91916318D01*
X81281000Y-91683682D01*
X81235614Y-91455515D01*
X81146588Y-91240587D01*
X81017342Y-91047157D01*
X80852843Y-90882658D01*
X80659413Y-90753412D01*
X80444485Y-90664386D01*
X80216318Y-90619000D01*
X79983682Y-90619000D01*
X79755515Y-90664386D01*
X79540587Y-90753412D01*
X79347157Y-90882658D01*
X79182658Y-91047157D01*
X79053412Y-91240587D01*
X78964386Y-91455515D01*
X78919000Y-91683682D01*
X78919000Y-91916318D01*
X78964386Y-92144485D01*
X79053412Y-92359413D01*
X79182658Y-92552843D01*
X79347157Y-92717342D01*
X79540587Y-92846588D01*
X79755515Y-92935614D01*
X79983682Y-92981000D01*
X80216318Y-92981000D01*
X80360043Y-92952411D01*
X86526631Y-99119000D01*
X84499236Y-99119000D01*
X79856828Y-94476594D01*
X79841762Y-94458236D01*
X79768520Y-94398128D01*
X79684959Y-94353464D01*
X79594290Y-94325960D01*
X79523624Y-94319000D01*
X79499998Y-94316673D01*
X79476372Y-94319000D01*
X69423626Y-94319000D01*
X69400000Y-94316673D01*
X69305707Y-94325960D01*
X69215038Y-94353464D01*
X69190143Y-94366771D01*
X69131478Y-94398128D01*
X69058236Y-94458236D01*
X69043170Y-94476594D01*
X68822898Y-94696866D01*
X68744485Y-94664386D01*
X68516318Y-94619000D01*
X68283682Y-94619000D01*
X68055515Y-94664386D01*
X67840587Y-94753412D01*
X67647157Y-94882658D01*
X67482658Y-95047157D01*
X67353412Y-95240587D01*
X67264386Y-95455515D01*
X67219000Y-95683682D01*
X56276051Y-95683682D01*
X53152411Y-92560043D01*
X53181000Y-92416318D01*
X53181000Y-92183682D01*
X53152411Y-92039957D01*
X54624269Y-90568100D01*
X54648343Y-90548343D01*
X54727196Y-90452261D01*
X54785789Y-90342642D01*
X54821870Y-90223698D01*
X54831000Y-90130998D01*
X54831000Y-90130991D01*
X54834052Y-90100000D01*
X54831000Y-90069010D01*
X54831000Y-86798755D01*
X54952843Y-86717342D01*
X55117342Y-86552843D01*
X55246588Y-86359413D01*
X55335614Y-86144485D01*
X55381000Y-85916318D01*
X55381000Y-85683682D01*
X55335614Y-85455515D01*
X55246588Y-85240587D01*
X55117342Y-85047157D01*
X54952843Y-84882658D01*
X54759413Y-84753412D01*
X54544485Y-84664386D01*
X54316318Y-84619000D01*
X54083682Y-84619000D01*
X53855515Y-84664386D01*
X53640587Y-84753412D01*
X53447157Y-84882658D01*
X53282658Y-85047157D01*
X53153412Y-85240587D01*
X53064386Y-85455515D01*
X53019000Y-85683682D01*
X53019000Y-85916318D01*
X53064386Y-86144485D01*
X53153412Y-86359413D01*
X53282658Y-86552843D01*
X53447157Y-86717342D01*
X53569001Y-86798756D01*
X53569000Y-89838631D01*
X53154944Y-90252688D01*
X53135614Y-90155512D01*
X53046588Y-89940584D01*
X52917342Y-89747154D01*
X52752843Y-89582655D01*
X52559413Y-89453409D01*
X52344485Y-89364383D01*
X52116318Y-89318997D01*
X51883682Y-89318997D01*
X51655515Y-89364383D01*
X51440587Y-89453409D01*
X51247157Y-89582655D01*
X51082658Y-89747154D01*
X50953412Y-89940584D01*
X50864386Y-90155512D01*
X50819000Y-90383679D01*
X50819000Y-90616315D01*
X50859316Y-90818996D01*
X47873630Y-90818996D01*
X47850004Y-90816669D01*
X47755711Y-90825956D01*
X47728207Y-90834300D01*
X47665043Y-90853460D01*
X47581482Y-90898124D01*
X47508240Y-90958232D01*
X47493179Y-90976584D01*
X42953112Y-95516652D01*
X42839233Y-95494000D01*
X42660767Y-95494000D01*
X42485729Y-95528817D01*
X42320848Y-95597113D01*
X42172459Y-95696264D01*
X42046264Y-95822459D01*
X41947113Y-95970848D01*
X41878817Y-96135729D01*
X41844000Y-96310767D01*
X41006000Y-96310767D01*
X41006000Y-94463585D01*
X42218942Y-94463585D01*
X42265572Y-94605886D01*
X42412592Y-94686830D01*
X42572578Y-94737536D01*
X42739382Y-94756056D01*
X42906594Y-94741679D01*
X43067789Y-94694956D01*
X43216771Y-94617684D01*
X43234428Y-94605886D01*
X43281058Y-94463585D01*
X42750000Y-93932527D01*
X42218942Y-94463585D01*
X41006000Y-94463585D01*
X41006000Y-93889382D01*
X41893944Y-93889382D01*
X41908321Y-94056594D01*
X41955044Y-94217789D01*
X42032316Y-94366771D01*
X42044114Y-94384428D01*
X42186415Y-94431058D01*
X42717473Y-93900000D01*
X42782527Y-93900000D01*
X43313585Y-94431058D01*
X43455886Y-94384428D01*
X43536830Y-94237408D01*
X43587536Y-94077422D01*
X43606056Y-93910618D01*
X43591679Y-93743406D01*
X43544956Y-93582211D01*
X43467684Y-93433229D01*
X43455886Y-93415572D01*
X43313585Y-93368942D01*
X42782527Y-93900000D01*
X42717473Y-93900000D01*
X42186415Y-93368942D01*
X42044114Y-93415572D01*
X41963170Y-93562592D01*
X41912464Y-93722578D01*
X41893944Y-93889382D01*
X41006000Y-93889382D01*
X41006000Y-93336415D01*
X42218942Y-93336415D01*
X42750000Y-93867473D01*
X43281058Y-93336415D01*
X43234428Y-93194114D01*
X43087408Y-93113170D01*
X42927422Y-93062464D01*
X42760618Y-93043944D01*
X42593406Y-93058321D01*
X42432211Y-93105044D01*
X42283229Y-93182316D01*
X42265572Y-93194114D01*
X42218942Y-93336415D01*
X41006000Y-93336415D01*
X41006000Y-79995993D01*
X50944000Y-79995993D01*
X50944000Y-80204007D01*
X50984581Y-80408024D01*
X51064185Y-80600204D01*
X51179751Y-80773161D01*
X51326839Y-80920249D01*
X51499796Y-81035815D01*
X51691976Y-81115419D01*
X51895993Y-81156000D01*
X52104007Y-81156000D01*
X52308024Y-81115419D01*
X52500204Y-81035815D01*
X52673161Y-80920249D01*
X52820249Y-80773161D01*
X52935815Y-80600204D01*
X53000000Y-80445249D01*
X53064185Y-80600204D01*
X53179751Y-80773161D01*
X53326839Y-80920249D01*
X53499796Y-81035815D01*
X53691976Y-81115419D01*
X53895993Y-81156000D01*
X54104007Y-81156000D01*
X54308024Y-81115419D01*
X54500204Y-81035815D01*
X54673161Y-80920249D01*
X54820249Y-80773161D01*
X54935815Y-80600204D01*
X55000000Y-80445249D01*
X55064185Y-80600204D01*
X55179751Y-80773161D01*
X55326839Y-80920249D01*
X55499796Y-81035815D01*
X55691976Y-81115419D01*
X55895993Y-81156000D01*
X56104007Y-81156000D01*
X56308024Y-81115419D01*
X56500204Y-81035815D01*
X56673161Y-80920249D01*
X56820249Y-80773161D01*
X56935815Y-80600204D01*
X57000000Y-80445249D01*
X57064185Y-80600204D01*
X57179751Y-80773161D01*
X57326839Y-80920249D01*
X57444000Y-80998533D01*
X57444001Y-88372686D01*
X57441311Y-88400000D01*
X57452045Y-88508994D01*
X57468849Y-88564386D01*
X57483839Y-88613801D01*
X57535467Y-88710392D01*
X57604948Y-88795053D01*
X57626163Y-88812464D01*
X58165800Y-89352102D01*
X58164386Y-89355515D01*
X58119000Y-89583682D01*
X58119000Y-89816318D01*
X58164386Y-90044485D01*
X58253412Y-90259413D01*
X58382658Y-90452843D01*
X58547157Y-90617342D01*
X58740587Y-90746588D01*
X58955515Y-90835614D01*
X59183682Y-90881000D01*
X59416318Y-90881000D01*
X59644485Y-90835614D01*
X59859413Y-90746588D01*
X60052843Y-90617342D01*
X60217342Y-90452843D01*
X60298755Y-90331000D01*
X71169010Y-90331000D01*
X71200000Y-90334052D01*
X71230990Y-90331000D01*
X71230998Y-90331000D01*
X71323698Y-90321870D01*
X71442642Y-90285789D01*
X71552261Y-90227196D01*
X71648343Y-90148343D01*
X71668105Y-90124263D01*
X78339958Y-83452411D01*
X78483682Y-83481000D01*
X78716318Y-83481000D01*
X78944485Y-83435614D01*
X79159413Y-83346588D01*
X79352843Y-83217342D01*
X79517342Y-83052843D01*
X79646588Y-82859413D01*
X79735614Y-82644485D01*
X79781000Y-82416318D01*
X79781000Y-82183682D01*
X79735614Y-81955515D01*
X79646588Y-81740587D01*
X79517342Y-81547157D01*
X79352843Y-81382658D01*
X79159413Y-81253412D01*
X78944485Y-81164386D01*
X78716318Y-81119000D01*
X78483682Y-81119000D01*
X78255515Y-81164386D01*
X78040587Y-81253412D01*
X77847157Y-81382658D01*
X77682658Y-81547157D01*
X77553412Y-81740587D01*
X77464386Y-81955515D01*
X77419000Y-82183682D01*
X77419000Y-82416318D01*
X77447589Y-82560042D01*
X70938632Y-89069000D01*
X60298755Y-89069000D01*
X60217342Y-88947157D01*
X60052843Y-88782658D01*
X59859413Y-88653412D01*
X59644485Y-88564386D01*
X59416318Y-88519000D01*
X59183682Y-88519000D01*
X58955515Y-88564386D01*
X58952102Y-88565800D01*
X58556000Y-88169699D01*
X58556000Y-82783702D01*
X65219000Y-82783702D01*
X65219000Y-83016338D01*
X65264386Y-83244505D01*
X65353412Y-83459433D01*
X65482658Y-83652863D01*
X65647157Y-83817362D01*
X65840587Y-83946608D01*
X66055515Y-84035634D01*
X66283682Y-84081020D01*
X66516318Y-84081020D01*
X66744485Y-84035634D01*
X66959413Y-83946608D01*
X67152843Y-83817362D01*
X67317342Y-83652863D01*
X67446588Y-83459433D01*
X67479068Y-83381020D01*
X75076354Y-83381020D01*
X75099980Y-83383347D01*
X75123606Y-83381020D01*
X75194272Y-83374060D01*
X75284941Y-83346556D01*
X75368502Y-83301892D01*
X75441744Y-83241784D01*
X75456810Y-83223426D01*
X80077102Y-78603134D01*
X80155515Y-78635614D01*
X80383682Y-78681000D01*
X80616318Y-78681000D01*
X80844485Y-78635614D01*
X81059413Y-78546588D01*
X81252843Y-78417342D01*
X81417342Y-78252843D01*
X81546588Y-78059413D01*
X81635614Y-77844485D01*
X81681000Y-77616318D01*
X81681000Y-77383682D01*
X81635614Y-77155515D01*
X81546588Y-76940587D01*
X81417342Y-76747157D01*
X81252843Y-76582658D01*
X81059413Y-76453412D01*
X80844485Y-76364386D01*
X80616318Y-76319000D01*
X80383682Y-76319000D01*
X80155515Y-76364386D01*
X79940587Y-76453412D01*
X79747157Y-76582658D01*
X79582658Y-76747157D01*
X79453412Y-76940587D01*
X79364386Y-77155515D01*
X79319000Y-77383682D01*
X79319000Y-77616318D01*
X79364386Y-77844485D01*
X79396866Y-77922898D01*
X74900744Y-82419020D01*
X67479068Y-82419020D01*
X67446588Y-82340607D01*
X67317342Y-82147177D01*
X67152843Y-81982678D01*
X66959413Y-81853432D01*
X66744485Y-81764406D01*
X66516318Y-81719020D01*
X66283682Y-81719020D01*
X66055515Y-81764406D01*
X65840587Y-81853432D01*
X65647157Y-81982678D01*
X65482658Y-82147177D01*
X65353412Y-82340607D01*
X65264386Y-82555535D01*
X65219000Y-82783702D01*
X58556000Y-82783702D01*
X58556000Y-80998533D01*
X58673161Y-80920249D01*
X58820249Y-80773161D01*
X58935815Y-80600204D01*
X59015419Y-80408024D01*
X59029995Y-80334745D01*
X59068140Y-80468297D01*
X59157897Y-80643017D01*
X59280015Y-80796869D01*
X59429802Y-80923941D01*
X59601501Y-81019349D01*
X59788514Y-81079427D01*
X59820577Y-81085805D01*
X59977000Y-81019963D01*
X59977000Y-80123000D01*
X60023000Y-80123000D01*
X60023000Y-81019963D01*
X60179423Y-81085805D01*
X60211486Y-81079427D01*
X60398499Y-81019349D01*
X60570198Y-80923941D01*
X60719985Y-80796869D01*
X60737343Y-80775000D01*
X60996418Y-80775000D01*
X61002732Y-80839103D01*
X61021430Y-80900743D01*
X61051794Y-80957550D01*
X61092657Y-81007343D01*
X61142450Y-81048206D01*
X61199257Y-81078570D01*
X61260897Y-81097268D01*
X61325000Y-81103582D01*
X61895250Y-81102000D01*
X61977000Y-81020250D01*
X61977000Y-80123000D01*
X62023000Y-80123000D01*
X62023000Y-81020250D01*
X62104750Y-81102000D01*
X62675000Y-81103582D01*
X62739103Y-81097268D01*
X62800743Y-81078570D01*
X62857550Y-81048206D01*
X62907343Y-81007343D01*
X62948206Y-80957550D01*
X62978570Y-80900743D01*
X62997268Y-80839103D01*
X63003582Y-80775000D01*
X63002000Y-80204750D01*
X62920250Y-80123000D01*
X62023000Y-80123000D01*
X61977000Y-80123000D01*
X61079750Y-80123000D01*
X60998000Y-80204750D01*
X60996418Y-80775000D01*
X60737343Y-80775000D01*
X60842103Y-80643017D01*
X60931860Y-80468297D01*
X60985806Y-80279423D01*
X60919987Y-80123000D01*
X60023000Y-80123000D01*
X59977000Y-80123000D01*
X59957000Y-80123000D01*
X59957000Y-80077000D01*
X59977000Y-80077000D01*
X59977000Y-79180037D01*
X60023000Y-79180037D01*
X60023000Y-80077000D01*
X60919987Y-80077000D01*
X60985806Y-79920577D01*
X60931860Y-79731703D01*
X60842103Y-79556983D01*
X60737344Y-79425000D01*
X60996418Y-79425000D01*
X60998000Y-79995250D01*
X61079750Y-80077000D01*
X61977000Y-80077000D01*
X61977000Y-79179750D01*
X62023000Y-79179750D01*
X62023000Y-80077000D01*
X62920250Y-80077000D01*
X63002000Y-79995250D01*
X63003582Y-79425000D01*
X62997268Y-79360897D01*
X62978570Y-79299257D01*
X62948206Y-79242450D01*
X62907343Y-79192657D01*
X62857550Y-79151794D01*
X62800743Y-79121430D01*
X62739103Y-79102732D01*
X62675000Y-79096418D01*
X62104750Y-79098000D01*
X62023000Y-79179750D01*
X61977000Y-79179750D01*
X61895250Y-79098000D01*
X61325000Y-79096418D01*
X61260897Y-79102732D01*
X61199257Y-79121430D01*
X61142450Y-79151794D01*
X61092657Y-79192657D01*
X61051794Y-79242450D01*
X61021430Y-79299257D01*
X61002732Y-79360897D01*
X60996418Y-79425000D01*
X60737344Y-79425000D01*
X60719985Y-79403131D01*
X60570198Y-79276059D01*
X60398499Y-79180651D01*
X60211486Y-79120573D01*
X60179423Y-79114195D01*
X60023000Y-79180037D01*
X59977000Y-79180037D01*
X59820577Y-79114195D01*
X59788514Y-79120573D01*
X59601501Y-79180651D01*
X59429802Y-79276059D01*
X59280015Y-79403131D01*
X59157897Y-79556983D01*
X59068140Y-79731703D01*
X59029995Y-79865255D01*
X59015419Y-79791976D01*
X58935815Y-79599796D01*
X58820249Y-79426839D01*
X58673161Y-79279751D01*
X58500204Y-79164185D01*
X58308024Y-79084581D01*
X58104007Y-79044000D01*
X57895993Y-79044000D01*
X57691976Y-79084581D01*
X57499796Y-79164185D01*
X57326839Y-79279751D01*
X57179751Y-79426839D01*
X57064185Y-79599796D01*
X57000000Y-79754751D01*
X56935815Y-79599796D01*
X56820249Y-79426839D01*
X56673161Y-79279751D01*
X56500204Y-79164185D01*
X56308024Y-79084581D01*
X56104007Y-79044000D01*
X55895993Y-79044000D01*
X55691976Y-79084581D01*
X55499796Y-79164185D01*
X55326839Y-79279751D01*
X55179751Y-79426839D01*
X55064185Y-79599796D01*
X55000000Y-79754751D01*
X54935815Y-79599796D01*
X54820249Y-79426839D01*
X54673161Y-79279751D01*
X54500204Y-79164185D01*
X54308024Y-79084581D01*
X54104007Y-79044000D01*
X53895993Y-79044000D01*
X53691976Y-79084581D01*
X53499796Y-79164185D01*
X53326839Y-79279751D01*
X53179751Y-79426839D01*
X53064185Y-79599796D01*
X53000000Y-79754751D01*
X52935815Y-79599796D01*
X52820249Y-79426839D01*
X52673161Y-79279751D01*
X52500204Y-79164185D01*
X52308024Y-79084581D01*
X52104007Y-79044000D01*
X51895993Y-79044000D01*
X51691976Y-79084581D01*
X51499796Y-79164185D01*
X51326839Y-79279751D01*
X51179751Y-79426839D01*
X51064185Y-79599796D01*
X50984581Y-79791976D01*
X50944000Y-79995993D01*
X41006000Y-79995993D01*
X41006000Y-75819854D01*
X41027077Y-75604889D01*
X42119000Y-75604889D01*
X42119000Y-75995111D01*
X42195129Y-76377836D01*
X42344461Y-76738355D01*
X42561257Y-77062814D01*
X42837186Y-77338743D01*
X43161645Y-77555539D01*
X43522164Y-77704871D01*
X43904889Y-77781000D01*
X44295111Y-77781000D01*
X44677836Y-77704871D01*
X45038355Y-77555539D01*
X45362814Y-77338743D01*
X45638743Y-77062814D01*
X45855539Y-76738355D01*
X46004871Y-76377836D01*
X46081000Y-75995111D01*
X46081000Y-75604889D01*
X98219000Y-75604889D01*
X98219000Y-75995111D01*
X98295129Y-76377836D01*
X98444461Y-76738355D01*
X98661257Y-77062814D01*
X98937186Y-77338743D01*
X99261645Y-77555539D01*
X99622164Y-77704871D01*
X100004889Y-77781000D01*
X100395111Y-77781000D01*
X100777836Y-77704871D01*
X101138355Y-77555539D01*
X101462814Y-77338743D01*
X101738743Y-77062814D01*
X101955539Y-76738355D01*
X102104871Y-76377836D01*
X102181000Y-75995111D01*
X102181000Y-75604889D01*
X102104871Y-75222164D01*
X101955539Y-74861645D01*
X101738743Y-74537186D01*
X101462814Y-74261257D01*
X101138355Y-74044461D01*
X100777836Y-73895129D01*
X100395111Y-73819000D01*
X100004889Y-73819000D01*
X99622164Y-73895129D01*
X99261645Y-74044461D01*
X98937186Y-74261257D01*
X98661257Y-74537186D01*
X98444461Y-74861645D01*
X98295129Y-75222164D01*
X98219000Y-75604889D01*
X46081000Y-75604889D01*
X46004871Y-75222164D01*
X45855539Y-74861645D01*
X45638743Y-74537186D01*
X45362814Y-74261257D01*
X45038355Y-74044461D01*
X44677836Y-73895129D01*
X44295111Y-73819000D01*
X43904889Y-73819000D01*
X43522164Y-73895129D01*
X43161645Y-74044461D01*
X42837186Y-74261257D01*
X42561257Y-74537186D01*
X42344461Y-74861645D01*
X42195129Y-75222164D01*
X42119000Y-75604889D01*
X41027077Y-75604889D01*
X41066834Y-75199420D01*
X41241255Y-74621712D01*
X41524566Y-74088882D01*
X41905972Y-73621230D01*
X42370946Y-73236571D01*
X42901781Y-72949550D01*
X43478255Y-72771102D01*
X44097545Y-72706011D01*
X44100837Y-72706000D01*
X100180146Y-72706000D01*
X100800580Y-72766834D01*
%TA.AperFunction,Conductor*%
D20*
G36*
X100800580Y-72766834D02*
G01*
X101378288Y-72941255D01*
X101911118Y-73224566D01*
X102378770Y-73605972D01*
X102763429Y-74070946D01*
X103050450Y-74601781D01*
X103228898Y-75178255D01*
X103293989Y-75797545D01*
X103294001Y-75801124D01*
X103294000Y-110780146D01*
X103233166Y-111400580D01*
X103058745Y-111978290D01*
X102775434Y-112511118D01*
X102394032Y-112978765D01*
X101929057Y-113363427D01*
X101398222Y-113650449D01*
X100821745Y-113828898D01*
X100202455Y-113893989D01*
X100199163Y-113894000D01*
X43734083Y-113894000D01*
X43731734Y-113893582D01*
X43726079Y-113893177D01*
X43181522Y-113858050D01*
X42692633Y-113728049D01*
X42238303Y-113505565D01*
X41913743Y-113258398D01*
X53022929Y-113258398D01*
X53119320Y-113443173D01*
X53336850Y-113565443D01*
X53574054Y-113642925D01*
X53821815Y-113672644D01*
X54070614Y-113653455D01*
X54310889Y-113586096D01*
X54533407Y-113473156D01*
X54578280Y-113443173D01*
X54674671Y-113258398D01*
X59525329Y-113258398D01*
X59621720Y-113443173D01*
X59839250Y-113565443D01*
X60076454Y-113642925D01*
X60324215Y-113672644D01*
X60573014Y-113653455D01*
X60813289Y-113586096D01*
X61035807Y-113473156D01*
X61080680Y-113443173D01*
X61177071Y-113258398D01*
X60351200Y-112432527D01*
X59525329Y-113258398D01*
X54674671Y-113258398D01*
X53848800Y-112432527D01*
X53022929Y-113258398D01*
X41913743Y-113258398D01*
X41835836Y-113199069D01*
X41500572Y-112820245D01*
X41245270Y-112383508D01*
X41079662Y-111905507D01*
X41007871Y-111388741D01*
X41006000Y-111295888D01*
X41006000Y-111259186D01*
X43769000Y-111259186D01*
X43769000Y-112240815D01*
X43781026Y-112362904D01*
X43828543Y-112519548D01*
X43905707Y-112663912D01*
X44009553Y-112790448D01*
X44136089Y-112894294D01*
X44280453Y-112971458D01*
X44437097Y-113018975D01*
X44600000Y-113035020D01*
X44762904Y-113018975D01*
X44919548Y-112971458D01*
X45063912Y-112894294D01*
X45190448Y-112790448D01*
X45294294Y-112663912D01*
X45371458Y-112519548D01*
X45418975Y-112362904D01*
X45431000Y-112240815D01*
X45431000Y-111259186D01*
X50369000Y-111259186D01*
X50369000Y-112240815D01*
X50381026Y-112362904D01*
X50428543Y-112519548D01*
X50505707Y-112663912D01*
X50609553Y-112790448D01*
X50736089Y-112894294D01*
X50880453Y-112971458D01*
X51037097Y-113018975D01*
X51200000Y-113035020D01*
X51362904Y-113018975D01*
X51519548Y-112971458D01*
X51663912Y-112894294D01*
X51790448Y-112790448D01*
X51894294Y-112663912D01*
X51971458Y-112519548D01*
X52015907Y-112373015D01*
X52576156Y-112373015D01*
X52595345Y-112621814D01*
X52662704Y-112862089D01*
X52775644Y-113084607D01*
X52805627Y-113129480D01*
X52990402Y-113225871D01*
X53816273Y-112400000D01*
X53881327Y-112400000D01*
X54707198Y-113225871D01*
X54891973Y-113129480D01*
X55014243Y-112911950D01*
X55091725Y-112674746D01*
X55121444Y-112426985D01*
X55117282Y-112373015D01*
X59078556Y-112373015D01*
X59097745Y-112621814D01*
X59165104Y-112862089D01*
X59278044Y-113084607D01*
X59308027Y-113129480D01*
X59492802Y-113225871D01*
X60318673Y-112400000D01*
X60383727Y-112400000D01*
X61209598Y-113225871D01*
X61394373Y-113129480D01*
X61516643Y-112911950D01*
X61594125Y-112674746D01*
X61623844Y-112426985D01*
X61604655Y-112178186D01*
X61537296Y-111937911D01*
X61424356Y-111715393D01*
X61394373Y-111670520D01*
X61209598Y-111574129D01*
X60383727Y-112400000D01*
X60318673Y-112400000D01*
X59492802Y-111574129D01*
X59308027Y-111670520D01*
X59185757Y-111888050D01*
X59108275Y-112125254D01*
X59078556Y-112373015D01*
X55117282Y-112373015D01*
X55102255Y-112178186D01*
X55034896Y-111937911D01*
X54921956Y-111715393D01*
X54891973Y-111670520D01*
X54707198Y-111574129D01*
X53881327Y-112400000D01*
X53816273Y-112400000D01*
X52990402Y-111574129D01*
X52805627Y-111670520D01*
X52683357Y-111888050D01*
X52605875Y-112125254D01*
X52576156Y-112373015D01*
X52015907Y-112373015D01*
X52018975Y-112362904D01*
X52031000Y-112240815D01*
X52031000Y-111541602D01*
X53022929Y-111541602D01*
X53848800Y-112367473D01*
X54674671Y-111541602D01*
X59525329Y-111541602D01*
X60351200Y-112367473D01*
X61177071Y-111541602D01*
X61080680Y-111356827D01*
X60863150Y-111234557D01*
X60665249Y-111169913D01*
X61779200Y-111169913D01*
X61779200Y-111430087D01*
X61829957Y-111685263D01*
X61929522Y-111925634D01*
X62074067Y-112141961D01*
X62258039Y-112325933D01*
X62474366Y-112470478D01*
X62714737Y-112570043D01*
X62969913Y-112620800D01*
X63230087Y-112620800D01*
X63485263Y-112570043D01*
X63725634Y-112470478D01*
X63941961Y-112325933D01*
X64125933Y-112141961D01*
X64270478Y-111925634D01*
X64370000Y-111685367D01*
X64469522Y-111925634D01*
X64614067Y-112141961D01*
X64798039Y-112325933D01*
X65014366Y-112470478D01*
X65254737Y-112570043D01*
X65509913Y-112620800D01*
X65770087Y-112620800D01*
X66025263Y-112570043D01*
X66265634Y-112470478D01*
X66481961Y-112325933D01*
X66665933Y-112141961D01*
X66810478Y-111925634D01*
X66910043Y-111685263D01*
X66954973Y-111459383D01*
X66989957Y-111635263D01*
X67089522Y-111875634D01*
X67234067Y-112091961D01*
X67418039Y-112275933D01*
X67634366Y-112420478D01*
X67874737Y-112520043D01*
X68129913Y-112570800D01*
X68390087Y-112570800D01*
X68645263Y-112520043D01*
X68885634Y-112420478D01*
X69101961Y-112275933D01*
X69285933Y-112091961D01*
X69430478Y-111875634D01*
X69530000Y-111635367D01*
X69629522Y-111875634D01*
X69774067Y-112091961D01*
X69958039Y-112275933D01*
X70174366Y-112420478D01*
X70414737Y-112520043D01*
X70669913Y-112570800D01*
X70930087Y-112570800D01*
X71185263Y-112520043D01*
X71425634Y-112420478D01*
X71641961Y-112275933D01*
X71825933Y-112091961D01*
X71970478Y-111875634D01*
X72070043Y-111635263D01*
X72073446Y-111618154D01*
X91369000Y-111618154D01*
X91369000Y-111781846D01*
X91400935Y-111942394D01*
X91463577Y-112093626D01*
X91554520Y-112229732D01*
X91670268Y-112345480D01*
X91806374Y-112436423D01*
X91957606Y-112499065D01*
X92118154Y-112531000D01*
X92281846Y-112531000D01*
X92442394Y-112499065D01*
X92593626Y-112436423D01*
X92729732Y-112345480D01*
X92845480Y-112229732D01*
X92936423Y-112093626D01*
X92999065Y-111942394D01*
X93031000Y-111781846D01*
X93031000Y-111618154D01*
X94369000Y-111618154D01*
X94369000Y-111781846D01*
X94400935Y-111942394D01*
X94463577Y-112093626D01*
X94554520Y-112229732D01*
X94670268Y-112345480D01*
X94806374Y-112436423D01*
X94957606Y-112499065D01*
X95118154Y-112531000D01*
X95281846Y-112531000D01*
X95442394Y-112499065D01*
X95593626Y-112436423D01*
X95729732Y-112345480D01*
X95845480Y-112229732D01*
X95936423Y-112093626D01*
X95999065Y-111942394D01*
X96031000Y-111781846D01*
X96031000Y-111618154D01*
X95999065Y-111457606D01*
X95936423Y-111306374D01*
X95845480Y-111170268D01*
X95729732Y-111054520D01*
X95593626Y-110963577D01*
X95442394Y-110900935D01*
X95281846Y-110869000D01*
X95118154Y-110869000D01*
X94957606Y-110900935D01*
X94806374Y-110963577D01*
X94670268Y-111054520D01*
X94554520Y-111170268D01*
X94463577Y-111306374D01*
X94400935Y-111457606D01*
X94369000Y-111618154D01*
X93031000Y-111618154D01*
X92999065Y-111457606D01*
X92936423Y-111306374D01*
X92845480Y-111170268D01*
X92729732Y-111054520D01*
X92593626Y-110963577D01*
X92442394Y-110900935D01*
X92281846Y-110869000D01*
X92118154Y-110869000D01*
X91957606Y-110900935D01*
X91806374Y-110963577D01*
X91670268Y-111054520D01*
X91554520Y-111170268D01*
X91463577Y-111306374D01*
X91400935Y-111457606D01*
X91369000Y-111618154D01*
X72073446Y-111618154D01*
X72120800Y-111380087D01*
X72120800Y-111119913D01*
X72070043Y-110864737D01*
X71970478Y-110624366D01*
X71825933Y-110408039D01*
X71641961Y-110224067D01*
X71425634Y-110079522D01*
X71185263Y-109979957D01*
X70930087Y-109929200D01*
X70669913Y-109929200D01*
X70414737Y-109979957D01*
X70174366Y-110079522D01*
X69958039Y-110224067D01*
X69774067Y-110408039D01*
X69629522Y-110624366D01*
X69530000Y-110864633D01*
X69430478Y-110624366D01*
X69285933Y-110408039D01*
X69101961Y-110224067D01*
X68885634Y-110079522D01*
X68816000Y-110050679D01*
X68816000Y-109787304D01*
X68818689Y-109759999D01*
X68816000Y-109732694D01*
X68816000Y-109732688D01*
X68807955Y-109651005D01*
X68776162Y-109546199D01*
X68724534Y-109449608D01*
X68691192Y-109408981D01*
X68672463Y-109386160D01*
X68672460Y-109386157D01*
X68655053Y-109364947D01*
X68633842Y-109347539D01*
X68212468Y-108926167D01*
X68195053Y-108904947D01*
X68110392Y-108835466D01*
X68013801Y-108783838D01*
X67908995Y-108752045D01*
X67827312Y-108744000D01*
X67827304Y-108744000D01*
X67800000Y-108741311D01*
X67772696Y-108744000D01*
X63827296Y-108744000D01*
X63799999Y-108741312D01*
X63772702Y-108744000D01*
X63772688Y-108744000D01*
X63696446Y-108751509D01*
X63691004Y-108752045D01*
X63659211Y-108761690D01*
X63586199Y-108783838D01*
X63489608Y-108835466D01*
X63448981Y-108868808D01*
X63426160Y-108887537D01*
X63426157Y-108887540D01*
X63404947Y-108904947D01*
X63387540Y-108926157D01*
X62726163Y-109587536D01*
X62704948Y-109604947D01*
X62635467Y-109689608D01*
X62632557Y-109695053D01*
X62583839Y-109786199D01*
X62552045Y-109891006D01*
X62541311Y-110000000D01*
X62544001Y-110027314D01*
X62544001Y-110100678D01*
X62474366Y-110129522D01*
X62258039Y-110274067D01*
X62074067Y-110458039D01*
X61929522Y-110674366D01*
X61829957Y-110914737D01*
X61779200Y-111169913D01*
X60665249Y-111169913D01*
X60625946Y-111157075D01*
X60378185Y-111127356D01*
X60129386Y-111146545D01*
X59889111Y-111213904D01*
X59666593Y-111326844D01*
X59621720Y-111356827D01*
X59525329Y-111541602D01*
X54674671Y-111541602D01*
X54578280Y-111356827D01*
X54360750Y-111234557D01*
X54123546Y-111157075D01*
X53875785Y-111127356D01*
X53626986Y-111146545D01*
X53386711Y-111213904D01*
X53164193Y-111326844D01*
X53119320Y-111356827D01*
X53022929Y-111541602D01*
X52031000Y-111541602D01*
X52031000Y-111259185D01*
X52018975Y-111137096D01*
X51971458Y-110980452D01*
X51894294Y-110836088D01*
X51790448Y-110709552D01*
X51663911Y-110605706D01*
X51519547Y-110528542D01*
X51362903Y-110481025D01*
X51200000Y-110464980D01*
X51037096Y-110481025D01*
X50880452Y-110528542D01*
X50736088Y-110605706D01*
X50609552Y-110709552D01*
X50505706Y-110836089D01*
X50428542Y-110980453D01*
X50381025Y-111137097D01*
X50369000Y-111259186D01*
X45431000Y-111259186D01*
X45431000Y-111259185D01*
X45418975Y-111137096D01*
X45371458Y-110980452D01*
X45294294Y-110836088D01*
X45190448Y-110709552D01*
X45063911Y-110605706D01*
X44919547Y-110528542D01*
X44762903Y-110481025D01*
X44600000Y-110464980D01*
X44437096Y-110481025D01*
X44280452Y-110528542D01*
X44136088Y-110605706D01*
X44009552Y-110709552D01*
X43905706Y-110836089D01*
X43828542Y-110980453D01*
X43781025Y-111137097D01*
X43769000Y-111259186D01*
X41006000Y-111259186D01*
X41006000Y-107748713D01*
X52528000Y-107748713D01*
X52528000Y-108008887D01*
X52578757Y-108264063D01*
X52678322Y-108504434D01*
X52822867Y-108720761D01*
X53006839Y-108904733D01*
X53223166Y-109049278D01*
X53463537Y-109148843D01*
X53718713Y-109199600D01*
X53978887Y-109199600D01*
X54234063Y-109148843D01*
X54474434Y-109049278D01*
X54690761Y-108904733D01*
X54874733Y-108720761D01*
X55019278Y-108504434D01*
X55118843Y-108264063D01*
X55169600Y-108008887D01*
X55169600Y-107748713D01*
X59030400Y-107748713D01*
X59030400Y-108008887D01*
X59081157Y-108264063D01*
X59180722Y-108504434D01*
X59325267Y-108720761D01*
X59509239Y-108904733D01*
X59725566Y-109049278D01*
X59965937Y-109148843D01*
X60221113Y-109199600D01*
X60481287Y-109199600D01*
X60736463Y-109148843D01*
X60976834Y-109049278D01*
X61193161Y-108904733D01*
X61377133Y-108720761D01*
X61521678Y-108504434D01*
X61621243Y-108264063D01*
X61672000Y-108008887D01*
X61672000Y-107748713D01*
X61621243Y-107493537D01*
X61521678Y-107253166D01*
X61377133Y-107036839D01*
X61193161Y-106852867D01*
X60976834Y-106708322D01*
X60736463Y-106608757D01*
X60481287Y-106558000D01*
X60221113Y-106558000D01*
X59965937Y-106608757D01*
X59725566Y-106708322D01*
X59509239Y-106852867D01*
X59325267Y-107036839D01*
X59180722Y-107253166D01*
X59081157Y-107493537D01*
X59030400Y-107748713D01*
X55169600Y-107748713D01*
X55118843Y-107493537D01*
X55019278Y-107253166D01*
X54874733Y-107036839D01*
X54690761Y-106852867D01*
X54474434Y-106708322D01*
X54234063Y-106608757D01*
X53978887Y-106558000D01*
X53718713Y-106558000D01*
X53463537Y-106608757D01*
X53223166Y-106708322D01*
X53006839Y-106852867D01*
X52822867Y-107036839D01*
X52678322Y-107253166D01*
X52578757Y-107493537D01*
X52528000Y-107748713D01*
X41006000Y-107748713D01*
X41006000Y-103104889D01*
X42119000Y-103104889D01*
X42119000Y-103495111D01*
X42195129Y-103877836D01*
X42344461Y-104238355D01*
X42561257Y-104562814D01*
X42837186Y-104838743D01*
X43161645Y-105055539D01*
X43522164Y-105204871D01*
X43904889Y-105281000D01*
X44295111Y-105281000D01*
X44677836Y-105204871D01*
X45038355Y-105055539D01*
X45362814Y-104838743D01*
X45638743Y-104562814D01*
X45855539Y-104238355D01*
X46004871Y-103877836D01*
X46081000Y-103495111D01*
X46081000Y-103104889D01*
X46004871Y-102722164D01*
X45855539Y-102361645D01*
X45638743Y-102037186D01*
X45362814Y-101761257D01*
X45038355Y-101544461D01*
X44677836Y-101395129D01*
X44295111Y-101319000D01*
X43904889Y-101319000D01*
X43522164Y-101395129D01*
X43161645Y-101544461D01*
X42837186Y-101761257D01*
X42561257Y-102037186D01*
X42344461Y-102361645D01*
X42195129Y-102722164D01*
X42119000Y-103104889D01*
X41006000Y-103104889D01*
X41006000Y-96310767D01*
X41844000Y-96310767D01*
X41844000Y-96489233D01*
X41878817Y-96664271D01*
X41947113Y-96829152D01*
X42046264Y-96977541D01*
X42172459Y-97103736D01*
X42320848Y-97202887D01*
X42485729Y-97271183D01*
X42660767Y-97306000D01*
X42839233Y-97306000D01*
X43014271Y-97271183D01*
X43179152Y-97202887D01*
X43327541Y-97103736D01*
X43453736Y-96977541D01*
X43552887Y-96829152D01*
X43621183Y-96664271D01*
X43656000Y-96489233D01*
X43656000Y-96310767D01*
X43633348Y-96196888D01*
X48049241Y-91780996D01*
X50936674Y-91780996D01*
X50864386Y-91955515D01*
X50819000Y-92183682D01*
X50819000Y-92416318D01*
X50864386Y-92644485D01*
X50953412Y-92859413D01*
X51082658Y-93052843D01*
X51247157Y-93217342D01*
X51440587Y-93346588D01*
X51655515Y-93435614D01*
X51883682Y-93481000D01*
X52116318Y-93481000D01*
X52260043Y-93452411D01*
X65531899Y-106724268D01*
X65551657Y-106748343D01*
X65647739Y-106827196D01*
X65757358Y-106885789D01*
X65876302Y-106921870D01*
X65969002Y-106931000D01*
X65969009Y-106931000D01*
X66000000Y-106934052D01*
X66030990Y-106931000D01*
X93001245Y-106931000D01*
X93082658Y-107052843D01*
X93247157Y-107217342D01*
X93440587Y-107346588D01*
X93655515Y-107435614D01*
X93883682Y-107481000D01*
X94116318Y-107481000D01*
X94344485Y-107435614D01*
X94559413Y-107346588D01*
X94752843Y-107217342D01*
X94917342Y-107052843D01*
X95046588Y-106859413D01*
X95135614Y-106644485D01*
X95181000Y-106416318D01*
X95181000Y-106183682D01*
X95135614Y-105955515D01*
X95046588Y-105740587D01*
X94917342Y-105547157D01*
X94752843Y-105382658D01*
X94559413Y-105253412D01*
X94344485Y-105164386D01*
X94116318Y-105119000D01*
X93883682Y-105119000D01*
X93655515Y-105164386D01*
X93440587Y-105253412D01*
X93247157Y-105382658D01*
X93082658Y-105547157D01*
X93001245Y-105669000D01*
X66261369Y-105669000D01*
X56276051Y-95683682D01*
X67219000Y-95683682D01*
X67219000Y-95916318D01*
X67264386Y-96144485D01*
X67353412Y-96359413D01*
X67482658Y-96552843D01*
X67647157Y-96717342D01*
X67840587Y-96846588D01*
X68055515Y-96935614D01*
X68283682Y-96981000D01*
X68516318Y-96981000D01*
X68744485Y-96935614D01*
X68959413Y-96846588D01*
X69152843Y-96717342D01*
X69317342Y-96552843D01*
X69446588Y-96359413D01*
X69535614Y-96144485D01*
X69581000Y-95916318D01*
X69581000Y-95683682D01*
X69535614Y-95455515D01*
X69503134Y-95377102D01*
X69599236Y-95281000D01*
X79300762Y-95281000D01*
X83943170Y-99923406D01*
X83958236Y-99941764D01*
X84031478Y-100001872D01*
X84076544Y-100025960D01*
X84115038Y-100046536D01*
X84205707Y-100074040D01*
X84300000Y-100083327D01*
X84323627Y-100081000D01*
X90400764Y-100081000D01*
X97143170Y-106823406D01*
X97158236Y-106841764D01*
X97231478Y-106901872D01*
X97268892Y-106921870D01*
X97315038Y-106946536D01*
X97405707Y-106974040D01*
X97500000Y-106983327D01*
X97523626Y-106981000D01*
X99420932Y-106981000D01*
X99453412Y-107059413D01*
X99582658Y-107252843D01*
X99747157Y-107417342D01*
X99940587Y-107546588D01*
X100155515Y-107635614D01*
X100383682Y-107681000D01*
X100616318Y-107681000D01*
X100844485Y-107635614D01*
X101059413Y-107546588D01*
X101252843Y-107417342D01*
X101417342Y-107252843D01*
X101546588Y-107059413D01*
X101635614Y-106844485D01*
X101681000Y-106616318D01*
X101681000Y-106383682D01*
X101635614Y-106155515D01*
X101546588Y-105940587D01*
X101417342Y-105747157D01*
X101252843Y-105582658D01*
X101059413Y-105453412D01*
X100844485Y-105364386D01*
X100616318Y-105319000D01*
X100383682Y-105319000D01*
X100155515Y-105364386D01*
X99940587Y-105453412D01*
X99747157Y-105582658D01*
X99582658Y-105747157D01*
X99453412Y-105940587D01*
X99420932Y-106019000D01*
X97699236Y-106019000D01*
X91011236Y-99331000D01*
X95369010Y-99331000D01*
X95400000Y-99334052D01*
X95415868Y-99332489D01*
X95255515Y-99364386D01*
X95040587Y-99453412D01*
X94847157Y-99582658D01*
X94682658Y-99747157D01*
X94553412Y-99940587D01*
X94464386Y-100155515D01*
X94419000Y-100383682D01*
X94419000Y-100616318D01*
X94464386Y-100844485D01*
X94553412Y-101059413D01*
X94682658Y-101252843D01*
X94847157Y-101417342D01*
X95040587Y-101546588D01*
X95255515Y-101635614D01*
X95483682Y-101681000D01*
X95716318Y-101681000D01*
X95944485Y-101635614D01*
X96159413Y-101546588D01*
X96352843Y-101417342D01*
X96517342Y-101252843D01*
X96646588Y-101059413D01*
X96679068Y-100981000D01*
X97076374Y-100981000D01*
X97100000Y-100983327D01*
X97123626Y-100981000D01*
X97194292Y-100974040D01*
X97284961Y-100946536D01*
X97368522Y-100901872D01*
X97441764Y-100841764D01*
X97456830Y-100823406D01*
X98577102Y-99703134D01*
X98655515Y-99735614D01*
X98883682Y-99781000D01*
X99116318Y-99781000D01*
X99344485Y-99735614D01*
X99559413Y-99646588D01*
X99752843Y-99517342D01*
X99917342Y-99352843D01*
X100046588Y-99159413D01*
X100135614Y-98944485D01*
X100181000Y-98716318D01*
X100181000Y-98483682D01*
X100135614Y-98255515D01*
X100046588Y-98040587D01*
X99917342Y-97847157D01*
X99752843Y-97682658D01*
X99559413Y-97553412D01*
X99344485Y-97464386D01*
X99116318Y-97419000D01*
X98883682Y-97419000D01*
X98655515Y-97464386D01*
X98440587Y-97553412D01*
X98247157Y-97682658D01*
X98082658Y-97847157D01*
X97953412Y-98040587D01*
X97864386Y-98255515D01*
X97819000Y-98483682D01*
X97819000Y-98716318D01*
X97864386Y-98944485D01*
X97896866Y-99022898D01*
X96900764Y-100019000D01*
X96679068Y-100019000D01*
X96646588Y-99940587D01*
X96517342Y-99747157D01*
X96352843Y-99582658D01*
X96159413Y-99453412D01*
X95944485Y-99364386D01*
X95716318Y-99319000D01*
X95533159Y-99319000D01*
X95642642Y-99285789D01*
X95752261Y-99227196D01*
X95848343Y-99148343D01*
X95868105Y-99124263D01*
X101639958Y-93352411D01*
X101783682Y-93381000D01*
X102016318Y-93381000D01*
X102244485Y-93335614D01*
X102459413Y-93246588D01*
X102652843Y-93117342D01*
X102817342Y-92952843D01*
X102946588Y-92759413D01*
X103035614Y-92544485D01*
X103081000Y-92316318D01*
X103081000Y-92083682D01*
X103035614Y-91855515D01*
X102946588Y-91640587D01*
X102817342Y-91447157D01*
X102652843Y-91282658D01*
X102459413Y-91153412D01*
X102381000Y-91120932D01*
X102381000Y-89423626D01*
X102383327Y-89400000D01*
X102374040Y-89305707D01*
X102346536Y-89215040D01*
X102346536Y-89215039D01*
X102301872Y-89131478D01*
X102241764Y-89058236D01*
X102223411Y-89043174D01*
X102203134Y-89022898D01*
X102235614Y-88944485D01*
X102281000Y-88716318D01*
X102281000Y-88483682D01*
X102235614Y-88255515D01*
X102146588Y-88040587D01*
X102017342Y-87847157D01*
X101852843Y-87682658D01*
X101659413Y-87553412D01*
X101444485Y-87464386D01*
X101216318Y-87419000D01*
X100983682Y-87419000D01*
X100755515Y-87464386D01*
X100540587Y-87553412D01*
X100347157Y-87682658D01*
X100182658Y-87847157D01*
X100053412Y-88040587D01*
X99964386Y-88255515D01*
X99919000Y-88483682D01*
X99919000Y-88716318D01*
X99964386Y-88944485D01*
X100053412Y-89159413D01*
X100182658Y-89352843D01*
X100347157Y-89517342D01*
X100540587Y-89646588D01*
X100755515Y-89735614D01*
X100983682Y-89781000D01*
X101216318Y-89781000D01*
X101419000Y-89740683D01*
X101419001Y-91120932D01*
X101340587Y-91153412D01*
X101147157Y-91282658D01*
X100982658Y-91447157D01*
X100853412Y-91640587D01*
X100764386Y-91855515D01*
X100719000Y-92083682D01*
X100719000Y-92316318D01*
X100747589Y-92460042D01*
X95138632Y-98069000D01*
X87261369Y-98069000D01*
X81252411Y-92060043D01*
X81281000Y-91916318D01*
X81281000Y-91683682D01*
X81235614Y-91455515D01*
X81146588Y-91240587D01*
X81017342Y-91047157D01*
X80852843Y-90882658D01*
X80659413Y-90753412D01*
X80444485Y-90664386D01*
X80216318Y-90619000D01*
X79983682Y-90619000D01*
X79755515Y-90664386D01*
X79540587Y-90753412D01*
X79347157Y-90882658D01*
X79182658Y-91047157D01*
X79053412Y-91240587D01*
X78964386Y-91455515D01*
X78919000Y-91683682D01*
X78919000Y-91916318D01*
X78964386Y-92144485D01*
X79053412Y-92359413D01*
X79182658Y-92552843D01*
X79347157Y-92717342D01*
X79540587Y-92846588D01*
X79755515Y-92935614D01*
X79983682Y-92981000D01*
X80216318Y-92981000D01*
X80360043Y-92952411D01*
X86526631Y-99119000D01*
X84499236Y-99119000D01*
X79856828Y-94476594D01*
X79841762Y-94458236D01*
X79768520Y-94398128D01*
X79684959Y-94353464D01*
X79594290Y-94325960D01*
X79523624Y-94319000D01*
X79499998Y-94316673D01*
X79476372Y-94319000D01*
X69423626Y-94319000D01*
X69400000Y-94316673D01*
X69305707Y-94325960D01*
X69215038Y-94353464D01*
X69190143Y-94366771D01*
X69131478Y-94398128D01*
X69058236Y-94458236D01*
X69043170Y-94476594D01*
X68822898Y-94696866D01*
X68744485Y-94664386D01*
X68516318Y-94619000D01*
X68283682Y-94619000D01*
X68055515Y-94664386D01*
X67840587Y-94753412D01*
X67647157Y-94882658D01*
X67482658Y-95047157D01*
X67353412Y-95240587D01*
X67264386Y-95455515D01*
X67219000Y-95683682D01*
X56276051Y-95683682D01*
X53152411Y-92560043D01*
X53181000Y-92416318D01*
X53181000Y-92183682D01*
X53152411Y-92039957D01*
X54624269Y-90568100D01*
X54648343Y-90548343D01*
X54727196Y-90452261D01*
X54785789Y-90342642D01*
X54821870Y-90223698D01*
X54831000Y-90130998D01*
X54831000Y-90130991D01*
X54834052Y-90100000D01*
X54831000Y-90069010D01*
X54831000Y-86798755D01*
X54952843Y-86717342D01*
X55117342Y-86552843D01*
X55246588Y-86359413D01*
X55335614Y-86144485D01*
X55381000Y-85916318D01*
X55381000Y-85683682D01*
X55335614Y-85455515D01*
X55246588Y-85240587D01*
X55117342Y-85047157D01*
X54952843Y-84882658D01*
X54759413Y-84753412D01*
X54544485Y-84664386D01*
X54316318Y-84619000D01*
X54083682Y-84619000D01*
X53855515Y-84664386D01*
X53640587Y-84753412D01*
X53447157Y-84882658D01*
X53282658Y-85047157D01*
X53153412Y-85240587D01*
X53064386Y-85455515D01*
X53019000Y-85683682D01*
X53019000Y-85916318D01*
X53064386Y-86144485D01*
X53153412Y-86359413D01*
X53282658Y-86552843D01*
X53447157Y-86717342D01*
X53569001Y-86798756D01*
X53569000Y-89838631D01*
X53154944Y-90252688D01*
X53135614Y-90155512D01*
X53046588Y-89940584D01*
X52917342Y-89747154D01*
X52752843Y-89582655D01*
X52559413Y-89453409D01*
X52344485Y-89364383D01*
X52116318Y-89318997D01*
X51883682Y-89318997D01*
X51655515Y-89364383D01*
X51440587Y-89453409D01*
X51247157Y-89582655D01*
X51082658Y-89747154D01*
X50953412Y-89940584D01*
X50864386Y-90155512D01*
X50819000Y-90383679D01*
X50819000Y-90616315D01*
X50859316Y-90818996D01*
X47873630Y-90818996D01*
X47850004Y-90816669D01*
X47755711Y-90825956D01*
X47728207Y-90834300D01*
X47665043Y-90853460D01*
X47581482Y-90898124D01*
X47508240Y-90958232D01*
X47493179Y-90976584D01*
X42953112Y-95516652D01*
X42839233Y-95494000D01*
X42660767Y-95494000D01*
X42485729Y-95528817D01*
X42320848Y-95597113D01*
X42172459Y-95696264D01*
X42046264Y-95822459D01*
X41947113Y-95970848D01*
X41878817Y-96135729D01*
X41844000Y-96310767D01*
X41006000Y-96310767D01*
X41006000Y-94463585D01*
X42218942Y-94463585D01*
X42265572Y-94605886D01*
X42412592Y-94686830D01*
X42572578Y-94737536D01*
X42739382Y-94756056D01*
X42906594Y-94741679D01*
X43067789Y-94694956D01*
X43216771Y-94617684D01*
X43234428Y-94605886D01*
X43281058Y-94463585D01*
X42750000Y-93932527D01*
X42218942Y-94463585D01*
X41006000Y-94463585D01*
X41006000Y-93889382D01*
X41893944Y-93889382D01*
X41908321Y-94056594D01*
X41955044Y-94217789D01*
X42032316Y-94366771D01*
X42044114Y-94384428D01*
X42186415Y-94431058D01*
X42717473Y-93900000D01*
X42782527Y-93900000D01*
X43313585Y-94431058D01*
X43455886Y-94384428D01*
X43536830Y-94237408D01*
X43587536Y-94077422D01*
X43606056Y-93910618D01*
X43591679Y-93743406D01*
X43544956Y-93582211D01*
X43467684Y-93433229D01*
X43455886Y-93415572D01*
X43313585Y-93368942D01*
X42782527Y-93900000D01*
X42717473Y-93900000D01*
X42186415Y-93368942D01*
X42044114Y-93415572D01*
X41963170Y-93562592D01*
X41912464Y-93722578D01*
X41893944Y-93889382D01*
X41006000Y-93889382D01*
X41006000Y-93336415D01*
X42218942Y-93336415D01*
X42750000Y-93867473D01*
X43281058Y-93336415D01*
X43234428Y-93194114D01*
X43087408Y-93113170D01*
X42927422Y-93062464D01*
X42760618Y-93043944D01*
X42593406Y-93058321D01*
X42432211Y-93105044D01*
X42283229Y-93182316D01*
X42265572Y-93194114D01*
X42218942Y-93336415D01*
X41006000Y-93336415D01*
X41006000Y-79995993D01*
X50944000Y-79995993D01*
X50944000Y-80204007D01*
X50984581Y-80408024D01*
X51064185Y-80600204D01*
X51179751Y-80773161D01*
X51326839Y-80920249D01*
X51499796Y-81035815D01*
X51691976Y-81115419D01*
X51895993Y-81156000D01*
X52104007Y-81156000D01*
X52308024Y-81115419D01*
X52500204Y-81035815D01*
X52673161Y-80920249D01*
X52820249Y-80773161D01*
X52935815Y-80600204D01*
X53000000Y-80445249D01*
X53064185Y-80600204D01*
X53179751Y-80773161D01*
X53326839Y-80920249D01*
X53499796Y-81035815D01*
X53691976Y-81115419D01*
X53895993Y-81156000D01*
X54104007Y-81156000D01*
X54308024Y-81115419D01*
X54500204Y-81035815D01*
X54673161Y-80920249D01*
X54820249Y-80773161D01*
X54935815Y-80600204D01*
X55000000Y-80445249D01*
X55064185Y-80600204D01*
X55179751Y-80773161D01*
X55326839Y-80920249D01*
X55499796Y-81035815D01*
X55691976Y-81115419D01*
X55895993Y-81156000D01*
X56104007Y-81156000D01*
X56308024Y-81115419D01*
X56500204Y-81035815D01*
X56673161Y-80920249D01*
X56820249Y-80773161D01*
X56935815Y-80600204D01*
X57000000Y-80445249D01*
X57064185Y-80600204D01*
X57179751Y-80773161D01*
X57326839Y-80920249D01*
X57444000Y-80998533D01*
X57444001Y-88372686D01*
X57441311Y-88400000D01*
X57452045Y-88508994D01*
X57468849Y-88564386D01*
X57483839Y-88613801D01*
X57535467Y-88710392D01*
X57604948Y-88795053D01*
X57626163Y-88812464D01*
X58165800Y-89352102D01*
X58164386Y-89355515D01*
X58119000Y-89583682D01*
X58119000Y-89816318D01*
X58164386Y-90044485D01*
X58253412Y-90259413D01*
X58382658Y-90452843D01*
X58547157Y-90617342D01*
X58740587Y-90746588D01*
X58955515Y-90835614D01*
X59183682Y-90881000D01*
X59416318Y-90881000D01*
X59644485Y-90835614D01*
X59859413Y-90746588D01*
X60052843Y-90617342D01*
X60217342Y-90452843D01*
X60298755Y-90331000D01*
X71169010Y-90331000D01*
X71200000Y-90334052D01*
X71230990Y-90331000D01*
X71230998Y-90331000D01*
X71323698Y-90321870D01*
X71442642Y-90285789D01*
X71552261Y-90227196D01*
X71648343Y-90148343D01*
X71668105Y-90124263D01*
X78339958Y-83452411D01*
X78483682Y-83481000D01*
X78716318Y-83481000D01*
X78944485Y-83435614D01*
X79159413Y-83346588D01*
X79352843Y-83217342D01*
X79517342Y-83052843D01*
X79646588Y-82859413D01*
X79735614Y-82644485D01*
X79781000Y-82416318D01*
X79781000Y-82183682D01*
X79735614Y-81955515D01*
X79646588Y-81740587D01*
X79517342Y-81547157D01*
X79352843Y-81382658D01*
X79159413Y-81253412D01*
X78944485Y-81164386D01*
X78716318Y-81119000D01*
X78483682Y-81119000D01*
X78255515Y-81164386D01*
X78040587Y-81253412D01*
X77847157Y-81382658D01*
X77682658Y-81547157D01*
X77553412Y-81740587D01*
X77464386Y-81955515D01*
X77419000Y-82183682D01*
X77419000Y-82416318D01*
X77447589Y-82560042D01*
X70938632Y-89069000D01*
X60298755Y-89069000D01*
X60217342Y-88947157D01*
X60052843Y-88782658D01*
X59859413Y-88653412D01*
X59644485Y-88564386D01*
X59416318Y-88519000D01*
X59183682Y-88519000D01*
X58955515Y-88564386D01*
X58952102Y-88565800D01*
X58556000Y-88169699D01*
X58556000Y-82783702D01*
X65219000Y-82783702D01*
X65219000Y-83016338D01*
X65264386Y-83244505D01*
X65353412Y-83459433D01*
X65482658Y-83652863D01*
X65647157Y-83817362D01*
X65840587Y-83946608D01*
X66055515Y-84035634D01*
X66283682Y-84081020D01*
X66516318Y-84081020D01*
X66744485Y-84035634D01*
X66959413Y-83946608D01*
X67152843Y-83817362D01*
X67317342Y-83652863D01*
X67446588Y-83459433D01*
X67479068Y-83381020D01*
X75076354Y-83381020D01*
X75099980Y-83383347D01*
X75123606Y-83381020D01*
X75194272Y-83374060D01*
X75284941Y-83346556D01*
X75368502Y-83301892D01*
X75441744Y-83241784D01*
X75456810Y-83223426D01*
X80077102Y-78603134D01*
X80155515Y-78635614D01*
X80383682Y-78681000D01*
X80616318Y-78681000D01*
X80844485Y-78635614D01*
X81059413Y-78546588D01*
X81252843Y-78417342D01*
X81417342Y-78252843D01*
X81546588Y-78059413D01*
X81635614Y-77844485D01*
X81681000Y-77616318D01*
X81681000Y-77383682D01*
X81635614Y-77155515D01*
X81546588Y-76940587D01*
X81417342Y-76747157D01*
X81252843Y-76582658D01*
X81059413Y-76453412D01*
X80844485Y-76364386D01*
X80616318Y-76319000D01*
X80383682Y-76319000D01*
X80155515Y-76364386D01*
X79940587Y-76453412D01*
X79747157Y-76582658D01*
X79582658Y-76747157D01*
X79453412Y-76940587D01*
X79364386Y-77155515D01*
X79319000Y-77383682D01*
X79319000Y-77616318D01*
X79364386Y-77844485D01*
X79396866Y-77922898D01*
X74900744Y-82419020D01*
X67479068Y-82419020D01*
X67446588Y-82340607D01*
X67317342Y-82147177D01*
X67152843Y-81982678D01*
X66959413Y-81853432D01*
X66744485Y-81764406D01*
X66516318Y-81719020D01*
X66283682Y-81719020D01*
X66055515Y-81764406D01*
X65840587Y-81853432D01*
X65647157Y-81982678D01*
X65482658Y-82147177D01*
X65353412Y-82340607D01*
X65264386Y-82555535D01*
X65219000Y-82783702D01*
X58556000Y-82783702D01*
X58556000Y-80998533D01*
X58673161Y-80920249D01*
X58820249Y-80773161D01*
X58935815Y-80600204D01*
X59015419Y-80408024D01*
X59029995Y-80334745D01*
X59068140Y-80468297D01*
X59157897Y-80643017D01*
X59280015Y-80796869D01*
X59429802Y-80923941D01*
X59601501Y-81019349D01*
X59788514Y-81079427D01*
X59820577Y-81085805D01*
X59977000Y-81019963D01*
X59977000Y-80123000D01*
X60023000Y-80123000D01*
X60023000Y-81019963D01*
X60179423Y-81085805D01*
X60211486Y-81079427D01*
X60398499Y-81019349D01*
X60570198Y-80923941D01*
X60719985Y-80796869D01*
X60737343Y-80775000D01*
X60996418Y-80775000D01*
X61002732Y-80839103D01*
X61021430Y-80900743D01*
X61051794Y-80957550D01*
X61092657Y-81007343D01*
X61142450Y-81048206D01*
X61199257Y-81078570D01*
X61260897Y-81097268D01*
X61325000Y-81103582D01*
X61895250Y-81102000D01*
X61977000Y-81020250D01*
X61977000Y-80123000D01*
X62023000Y-80123000D01*
X62023000Y-81020250D01*
X62104750Y-81102000D01*
X62675000Y-81103582D01*
X62739103Y-81097268D01*
X62800743Y-81078570D01*
X62857550Y-81048206D01*
X62907343Y-81007343D01*
X62948206Y-80957550D01*
X62978570Y-80900743D01*
X62997268Y-80839103D01*
X63003582Y-80775000D01*
X63002000Y-80204750D01*
X62920250Y-80123000D01*
X62023000Y-80123000D01*
X61977000Y-80123000D01*
X61079750Y-80123000D01*
X60998000Y-80204750D01*
X60996418Y-80775000D01*
X60737343Y-80775000D01*
X60842103Y-80643017D01*
X60931860Y-80468297D01*
X60985806Y-80279423D01*
X60919987Y-80123000D01*
X60023000Y-80123000D01*
X59977000Y-80123000D01*
X59957000Y-80123000D01*
X59957000Y-80077000D01*
X59977000Y-80077000D01*
X59977000Y-79180037D01*
X60023000Y-79180037D01*
X60023000Y-80077000D01*
X60919987Y-80077000D01*
X60985806Y-79920577D01*
X60931860Y-79731703D01*
X60842103Y-79556983D01*
X60737344Y-79425000D01*
X60996418Y-79425000D01*
X60998000Y-79995250D01*
X61079750Y-80077000D01*
X61977000Y-80077000D01*
X61977000Y-79179750D01*
X62023000Y-79179750D01*
X62023000Y-80077000D01*
X62920250Y-80077000D01*
X63002000Y-79995250D01*
X63003582Y-79425000D01*
X62997268Y-79360897D01*
X62978570Y-79299257D01*
X62948206Y-79242450D01*
X62907343Y-79192657D01*
X62857550Y-79151794D01*
X62800743Y-79121430D01*
X62739103Y-79102732D01*
X62675000Y-79096418D01*
X62104750Y-79098000D01*
X62023000Y-79179750D01*
X61977000Y-79179750D01*
X61895250Y-79098000D01*
X61325000Y-79096418D01*
X61260897Y-79102732D01*
X61199257Y-79121430D01*
X61142450Y-79151794D01*
X61092657Y-79192657D01*
X61051794Y-79242450D01*
X61021430Y-79299257D01*
X61002732Y-79360897D01*
X60996418Y-79425000D01*
X60737344Y-79425000D01*
X60719985Y-79403131D01*
X60570198Y-79276059D01*
X60398499Y-79180651D01*
X60211486Y-79120573D01*
X60179423Y-79114195D01*
X60023000Y-79180037D01*
X59977000Y-79180037D01*
X59820577Y-79114195D01*
X59788514Y-79120573D01*
X59601501Y-79180651D01*
X59429802Y-79276059D01*
X59280015Y-79403131D01*
X59157897Y-79556983D01*
X59068140Y-79731703D01*
X59029995Y-79865255D01*
X59015419Y-79791976D01*
X58935815Y-79599796D01*
X58820249Y-79426839D01*
X58673161Y-79279751D01*
X58500204Y-79164185D01*
X58308024Y-79084581D01*
X58104007Y-79044000D01*
X57895993Y-79044000D01*
X57691976Y-79084581D01*
X57499796Y-79164185D01*
X57326839Y-79279751D01*
X57179751Y-79426839D01*
X57064185Y-79599796D01*
X57000000Y-79754751D01*
X56935815Y-79599796D01*
X56820249Y-79426839D01*
X56673161Y-79279751D01*
X56500204Y-79164185D01*
X56308024Y-79084581D01*
X56104007Y-79044000D01*
X55895993Y-79044000D01*
X55691976Y-79084581D01*
X55499796Y-79164185D01*
X55326839Y-79279751D01*
X55179751Y-79426839D01*
X55064185Y-79599796D01*
X55000000Y-79754751D01*
X54935815Y-79599796D01*
X54820249Y-79426839D01*
X54673161Y-79279751D01*
X54500204Y-79164185D01*
X54308024Y-79084581D01*
X54104007Y-79044000D01*
X53895993Y-79044000D01*
X53691976Y-79084581D01*
X53499796Y-79164185D01*
X53326839Y-79279751D01*
X53179751Y-79426839D01*
X53064185Y-79599796D01*
X53000000Y-79754751D01*
X52935815Y-79599796D01*
X52820249Y-79426839D01*
X52673161Y-79279751D01*
X52500204Y-79164185D01*
X52308024Y-79084581D01*
X52104007Y-79044000D01*
X51895993Y-79044000D01*
X51691976Y-79084581D01*
X51499796Y-79164185D01*
X51326839Y-79279751D01*
X51179751Y-79426839D01*
X51064185Y-79599796D01*
X50984581Y-79791976D01*
X50944000Y-79995993D01*
X41006000Y-79995993D01*
X41006000Y-75819854D01*
X41027077Y-75604889D01*
X42119000Y-75604889D01*
X42119000Y-75995111D01*
X42195129Y-76377836D01*
X42344461Y-76738355D01*
X42561257Y-77062814D01*
X42837186Y-77338743D01*
X43161645Y-77555539D01*
X43522164Y-77704871D01*
X43904889Y-77781000D01*
X44295111Y-77781000D01*
X44677836Y-77704871D01*
X45038355Y-77555539D01*
X45362814Y-77338743D01*
X45638743Y-77062814D01*
X45855539Y-76738355D01*
X46004871Y-76377836D01*
X46081000Y-75995111D01*
X46081000Y-75604889D01*
X98219000Y-75604889D01*
X98219000Y-75995111D01*
X98295129Y-76377836D01*
X98444461Y-76738355D01*
X98661257Y-77062814D01*
X98937186Y-77338743D01*
X99261645Y-77555539D01*
X99622164Y-77704871D01*
X100004889Y-77781000D01*
X100395111Y-77781000D01*
X100777836Y-77704871D01*
X101138355Y-77555539D01*
X101462814Y-77338743D01*
X101738743Y-77062814D01*
X101955539Y-76738355D01*
X102104871Y-76377836D01*
X102181000Y-75995111D01*
X102181000Y-75604889D01*
X102104871Y-75222164D01*
X101955539Y-74861645D01*
X101738743Y-74537186D01*
X101462814Y-74261257D01*
X101138355Y-74044461D01*
X100777836Y-73895129D01*
X100395111Y-73819000D01*
X100004889Y-73819000D01*
X99622164Y-73895129D01*
X99261645Y-74044461D01*
X98937186Y-74261257D01*
X98661257Y-74537186D01*
X98444461Y-74861645D01*
X98295129Y-75222164D01*
X98219000Y-75604889D01*
X46081000Y-75604889D01*
X46004871Y-75222164D01*
X45855539Y-74861645D01*
X45638743Y-74537186D01*
X45362814Y-74261257D01*
X45038355Y-74044461D01*
X44677836Y-73895129D01*
X44295111Y-73819000D01*
X43904889Y-73819000D01*
X43522164Y-73895129D01*
X43161645Y-74044461D01*
X42837186Y-74261257D01*
X42561257Y-74537186D01*
X42344461Y-74861645D01*
X42195129Y-75222164D01*
X42119000Y-75604889D01*
X41027077Y-75604889D01*
X41066834Y-75199420D01*
X41241255Y-74621712D01*
X41524566Y-74088882D01*
X41905972Y-73621230D01*
X42370946Y-73236571D01*
X42901781Y-72949550D01*
X43478255Y-72771102D01*
X44097545Y-72706011D01*
X44100837Y-72706000D01*
X100180146Y-72706000D01*
X100800580Y-72766834D01*
G37*
%TD.AperFunction*%
%TD*%
M02*
