M48
; DRILL file {KiCad (5.1.9)-1} date 02/04/21 12:48:39
; FORMAT={-:-/ absolute / metric / decimal}
; #@! TF.CreationDate,2021-02-04T12:48:39+01:00
; #@! TF.GenerationSoftware,Kicad,Pcbnew,(5.1.9)-1
; #@! TF.FileFunction,Plated,1,2,PTH
FMAT,2
METRIC
T1C0.500
T2C0.650
T3C0.813
T4C0.900
T5C1.000
T6C1.300
%
G90
G05
T2
X42.75Y-93.9
X42.75Y-96.4
T3
X63.1Y-111.3
X65.64Y-111.3
X68.26Y-111.25
X70.8Y-111.25
T4
X51.9Y-92.3
X51.9Y-94.1
X58.0Y-86.9
X59.3Y-89.7
X61.5Y-85.5
X66.4Y-82.9
X68.45Y-95.4
X68.7Y-102.7
X72.4Y-101.6
X75.9Y-99.6
X78.6Y-82.3
X79.4Y-96.8
X79.5Y-84.0
X80.1Y-91.8
X80.5Y-77.5
X89.7Y-96.9
X89.8Y-84.0
X92.0Y-96.9
X92.1Y-84.0
X94.0Y-106.3
X94.2Y-96.9
X94.3Y-84.0
X95.6Y-100.5
X96.65Y-85.85
X99.0Y-98.6
X100.5Y-106.5
X101.1Y-88.6
X101.9Y-92.2
T5
X55.05Y-112.3
X56.3Y-80.0
X56.3Y-82.54
X56.5Y-103.5
X58.84Y-80.0
X58.84Y-82.54
X59.55Y-112.3
X61.38Y-80.0
X61.38Y-82.54
X71.32Y-96.8
X73.86Y-96.8
X76.4Y-96.8
X101.2Y-109.9
T6
X53.8Y-109.8
X60.8Y-109.8
T1
G00X44.6Y-111.4
M15
G01X44.6Y-112.1
M16
G05
G00X51.2Y-111.4
M15
G01X51.2Y-112.1
M16
G05
T0
M30
