%TF.GenerationSoftware,KiCad,Pcbnew,(5.1.9)-1*%
%TF.CreationDate,2021-02-04T12:48:35+01:00*%
%TF.ProjectId,Track-your-cat,54726163-6b2d-4796-9f75-722d6361742e,1*%
%TF.SameCoordinates,Original*%
%TF.FileFunction,Copper,L2,Bot*%
%TF.FilePolarity,Positive*%
%FSLAX46Y46*%
G04 Gerber Fmt 4.6, Leading zero omitted, Abs format (unit mm)*
G04 Created by KiCad (PCBNEW (5.1.9)-1) date 2021-02-04 12:48:35*
%MOMM*%
%LPD*%
G01*
G04 APERTURE LIST*
%TA.AperFunction,ComponentPad*%
%ADD10O,1.700000X1.700000*%
%TD*%
%TA.AperFunction,ComponentPad*%
%ADD11R,1.700000X1.700000*%
%TD*%
%TA.AperFunction,ComponentPad*%
%ADD12C,1.879600*%
%TD*%
%TA.AperFunction,ComponentPad*%
%ADD13C,1.500000*%
%TD*%
%TA.AperFunction,ComponentPad*%
%ADD14O,0.900000X1.800000*%
%TD*%
%TA.AperFunction,ComponentPad*%
%ADD15C,2.000000*%
%TD*%
%TA.AperFunction,ViaPad*%
%ADD16C,1.600000*%
%TD*%
%TA.AperFunction,Conductor*%
%ADD17C,0.500000*%
%TD*%
%TA.AperFunction,Conductor*%
%ADD18C,0.350000*%
%TD*%
%TA.AperFunction,Conductor*%
%ADD19C,0.200000*%
%TD*%
%TA.AperFunction,Conductor*%
%ADD20C,0.254000*%
%TD*%
%TA.AperFunction,Conductor*%
%ADD21C,0.100000*%
%TD*%
G04 APERTURE END LIST*
D10*
%TO.P,FTDI1,4*%
%TO.N,RX*%
X61380000Y-82540000D03*
%TO.P,FTDI1,6*%
%TO.N,DTR*%
X61380000Y-80000000D03*
%TO.P,FTDI1,5*%
%TO.N,TX*%
X58840000Y-82540000D03*
%TO.P,FTDI1,2*%
%TO.N,Bat-*%
X58840000Y-80000000D03*
%TO.P,FTDI1,3*%
%TO.N,+3V3*%
X56300000Y-82540000D03*
D11*
%TO.P,FTDI1,1*%
%TO.N,Bat-*%
X56300000Y-80000000D03*
%TD*%
%TO.P,J5,1*%
%TO.N,Bat-*%
X56500000Y-103500000D03*
%TD*%
%TO.P,J4,1*%
%TO.N,Power_in*%
X101200000Y-109900000D03*
%TD*%
D12*
%TO.P,D2,2*%
%TO.N,Net-(D2-Pad2)*%
X70800000Y-111250000D03*
%TO.P,D2,1*%
%TO.N,Net-(D1-Pad1)*%
X68260000Y-111250000D03*
%TD*%
%TO.P,D1,1*%
%TO.N,Net-(D1-Pad1)*%
X63100000Y-111300000D03*
%TO.P,D1,2*%
%TO.N,Net-(D1-Pad2)*%
X65640000Y-111300000D03*
%TD*%
D13*
%TO.P,TH1,2*%
%TO.N,Bat-*%
X42750000Y-93900000D03*
%TO.P,TH1,1*%
%TO.N,TSense*%
X42750000Y-96400000D03*
%TD*%
D14*
%TO.P,J2,S6*%
%TO.N,Net-(J2-PadS1)*%
X51200000Y-111750000D03*
%TO.P,J2,S5*%
X44600000Y-111750000D03*
%TD*%
D11*
%TO.P,J6,1*%
%TO.N,MOSI*%
X71320000Y-96800000D03*
D10*
%TO.P,J6,2*%
%TO.N,MISO*%
X73860000Y-96800000D03*
%TO.P,J6,3*%
%TO.N,SCK*%
X76400000Y-96800000D03*
%TD*%
D15*
%TO.P,SW2,NC*%
%TO.N,N/C*%
X60800000Y-109800000D03*
%TO.P,SW2,2*%
%TO.N,Net-(D1-Pad1)*%
X59550000Y-112300000D03*
%TO.P,SW2,1*%
%TO.N,Bat-*%
X55050000Y-112300000D03*
%TO.P,SW2,NC*%
%TO.N,N/C*%
X53800000Y-109800000D03*
%TD*%
D16*
%TO.N,Bat-*%
X92000000Y-96900000D03*
X92100000Y-84000000D03*
X89800000Y-84000000D03*
X94300000Y-84000000D03*
%TO.N,+3V3*%
X78600000Y-82300000D03*
X59300000Y-89700000D03*
%TO.N,Bat-*%
X79500000Y-84000000D03*
X61500000Y-85500000D03*
X79400000Y-96800000D03*
X68700000Y-102700000D03*
X72400000Y-101600000D03*
X75900000Y-99600000D03*
X96650000Y-85850000D03*
X89700000Y-96900000D03*
X94200000Y-96900000D03*
%TO.N,Bat+*%
X94000000Y-106300000D03*
X51900000Y-94100000D03*
X58000000Y-86900000D03*
%TO.N,+1V8*%
X101100000Y-88600000D03*
X101900000Y-92200000D03*
X80100000Y-91800000D03*
%TO.N,GPS_ON*%
X100500000Y-106500000D03*
X68450000Y-95400000D03*
%TO.N,INT*%
X80500000Y-77500000D03*
X66400000Y-82900020D03*
%TO.N,TSense*%
X51900000Y-92299997D03*
%TO.N,Power_in*%
X95600000Y-100500000D03*
X99000000Y-98600000D03*
%TD*%
D17*
%TO.N,+3V3*%
X71200000Y-89700000D02*
X78600000Y-82300000D01*
X59300000Y-89700000D02*
X71200000Y-89700000D01*
D18*
%TO.N,Bat-*%
X79500000Y-84000000D02*
X80100000Y-83400000D01*
X80100000Y-83400000D02*
X80100000Y-81600000D01*
X80100000Y-81600000D02*
X79624999Y-81124999D01*
X79624999Y-81124999D02*
X79400000Y-80900000D01*
X79400000Y-80900000D02*
X78100000Y-80900000D01*
X78100000Y-80900000D02*
X76500000Y-82500000D01*
X73500000Y-85500000D02*
X61500000Y-85500000D01*
X76500000Y-82500000D02*
X73500000Y-85500000D01*
D17*
%TO.N,Bat+*%
X64100000Y-106300000D02*
X51900000Y-94100000D01*
X94000000Y-106300000D02*
X64100000Y-106300000D01*
X51900000Y-94100000D02*
X53100000Y-94100000D01*
X53100000Y-94100000D02*
X54900000Y-92300000D01*
X54900000Y-92300000D02*
X54900000Y-90900000D01*
X58000000Y-87800000D02*
X58000000Y-86900000D01*
X54900000Y-90900000D02*
X58000000Y-87800000D01*
D19*
%TO.N,+1V8*%
X101900000Y-89400000D02*
X101900000Y-92200000D01*
X101100000Y-88600000D02*
X101900000Y-89400000D01*
D18*
X80500000Y-92200000D02*
X80100000Y-91800000D01*
D17*
X87000000Y-98700000D02*
X80100000Y-91800000D01*
X95400000Y-98700000D02*
X87000000Y-98700000D01*
X101900000Y-92200000D02*
X95400000Y-98700000D01*
D18*
%TO.N,Net-(D1-Pad1)*%
X68260000Y-109760000D02*
X68260000Y-111250000D01*
X67800000Y-109300000D02*
X68260000Y-109760000D01*
X63800000Y-109300000D02*
X67800000Y-109300000D01*
X63100000Y-110000000D02*
X63800000Y-109300000D01*
X63100000Y-111300000D02*
X63100000Y-110000000D01*
X62100000Y-112300000D02*
X63100000Y-111300000D01*
X59550000Y-112300000D02*
X62100000Y-112300000D01*
D19*
%TO.N,GPS_ON*%
X97500000Y-106500000D02*
X100500000Y-106500000D01*
X90600000Y-99600000D02*
X97500000Y-106500000D01*
X79499998Y-94800000D02*
X84300000Y-99600000D01*
X69400000Y-94800000D02*
X79499998Y-94800000D01*
X84300000Y-99600000D02*
X90600000Y-99600000D01*
X68450000Y-95400000D02*
X69400000Y-94800000D01*
%TO.N,INT*%
X75099980Y-82900020D02*
X66400000Y-82900020D01*
X80500000Y-77500000D02*
X75099980Y-82900020D01*
%TO.N,TSense*%
X46050004Y-93099996D02*
X42750000Y-96400000D01*
X51100001Y-93099996D02*
X46050004Y-93099996D01*
X51100001Y-93099996D02*
X51900000Y-92299997D01*
D18*
%TO.N,Power_in*%
X97100000Y-100500000D02*
X99000000Y-98600000D01*
X95600000Y-100500000D02*
X97100000Y-100500000D01*
%TD*%
D20*
%TO.N,Bat-*%
X100800580Y-72766834D02*
X101378288Y-72941255D01*
X101911118Y-73224566D01*
X102378770Y-73605972D01*
X102763429Y-74070946D01*
X103050450Y-74601781D01*
X103228898Y-75178255D01*
X103293989Y-75797545D01*
X103294001Y-75801124D01*
X103294000Y-110780146D01*
X103233166Y-111400580D01*
X103058745Y-111978290D01*
X102775434Y-112511118D01*
X102394032Y-112978765D01*
X101929057Y-113363427D01*
X101398222Y-113650449D01*
X100821745Y-113828898D01*
X100202455Y-113893989D01*
X100199163Y-113894000D01*
X43734083Y-113894000D01*
X43731734Y-113893582D01*
X43726079Y-113893177D01*
X43181522Y-113858050D01*
X42692633Y-113728049D01*
X42238303Y-113505565D01*
X41838607Y-113201179D01*
X54181348Y-113201179D01*
X54284959Y-113392119D01*
X54512720Y-113520387D01*
X54761130Y-113601755D01*
X55020640Y-113633098D01*
X55281279Y-113613210D01*
X55533030Y-113542857D01*
X55766218Y-113424742D01*
X55815041Y-113392119D01*
X55918652Y-113201179D01*
X55050000Y-112332527D01*
X54181348Y-113201179D01*
X41838607Y-113201179D01*
X41835836Y-113199069D01*
X41500572Y-112820245D01*
X41245270Y-112383508D01*
X41079662Y-111905507D01*
X41007871Y-111388741D01*
X41006000Y-111295888D01*
X41006000Y-111259186D01*
X43769000Y-111259186D01*
X43769000Y-112240815D01*
X43781026Y-112362904D01*
X43828543Y-112519548D01*
X43905707Y-112663912D01*
X44009553Y-112790448D01*
X44136089Y-112894294D01*
X44280453Y-112971458D01*
X44437097Y-113018975D01*
X44600000Y-113035020D01*
X44762904Y-113018975D01*
X44919548Y-112971458D01*
X45063912Y-112894294D01*
X45190448Y-112790448D01*
X45294294Y-112663912D01*
X45371458Y-112519548D01*
X45418975Y-112362904D01*
X45431000Y-112240815D01*
X45431000Y-111259186D01*
X50369000Y-111259186D01*
X50369000Y-112240815D01*
X50381026Y-112362904D01*
X50428543Y-112519548D01*
X50505707Y-112663912D01*
X50609553Y-112790448D01*
X50736089Y-112894294D01*
X50880453Y-112971458D01*
X51037097Y-113018975D01*
X51200000Y-113035020D01*
X51362904Y-113018975D01*
X51519548Y-112971458D01*
X51663912Y-112894294D01*
X51790448Y-112790448D01*
X51894294Y-112663912D01*
X51971458Y-112519548D01*
X52018975Y-112362904D01*
X52028062Y-112270640D01*
X53716902Y-112270640D01*
X53736790Y-112531279D01*
X53807143Y-112783030D01*
X53925258Y-113016218D01*
X53957881Y-113065041D01*
X54148821Y-113168652D01*
X55017473Y-112300000D01*
X55082527Y-112300000D01*
X55951179Y-113168652D01*
X56142119Y-113065041D01*
X56270387Y-112837280D01*
X56351755Y-112588870D01*
X56383098Y-112329360D01*
X56370479Y-112163983D01*
X58169000Y-112163983D01*
X58169000Y-112436017D01*
X58222071Y-112702823D01*
X58326174Y-112954149D01*
X58477307Y-113180336D01*
X58669664Y-113372693D01*
X58895851Y-113523826D01*
X59147177Y-113627929D01*
X59413983Y-113681000D01*
X59686017Y-113681000D01*
X59952823Y-113627929D01*
X60204149Y-113523826D01*
X60430336Y-113372693D01*
X60622693Y-113180336D01*
X60773826Y-112954149D01*
X60814481Y-112856000D01*
X62072696Y-112856000D01*
X62100000Y-112858689D01*
X62127304Y-112856000D01*
X62127312Y-112856000D01*
X62208995Y-112847955D01*
X62313801Y-112816162D01*
X62410392Y-112764534D01*
X62495053Y-112695053D01*
X62512469Y-112673832D01*
X62645102Y-112541199D01*
X62714737Y-112570043D01*
X62969913Y-112620800D01*
X63230087Y-112620800D01*
X63485263Y-112570043D01*
X63725634Y-112470478D01*
X63941961Y-112325933D01*
X64125933Y-112141961D01*
X64270478Y-111925634D01*
X64370000Y-111685367D01*
X64469522Y-111925634D01*
X64614067Y-112141961D01*
X64798039Y-112325933D01*
X65014366Y-112470478D01*
X65254737Y-112570043D01*
X65509913Y-112620800D01*
X65770087Y-112620800D01*
X66025263Y-112570043D01*
X66265634Y-112470478D01*
X66481961Y-112325933D01*
X66665933Y-112141961D01*
X66810478Y-111925634D01*
X66910043Y-111685263D01*
X66954973Y-111459383D01*
X66989957Y-111635263D01*
X67089522Y-111875634D01*
X67234067Y-112091961D01*
X67418039Y-112275933D01*
X67634366Y-112420478D01*
X67874737Y-112520043D01*
X68129913Y-112570800D01*
X68390087Y-112570800D01*
X68645263Y-112520043D01*
X68885634Y-112420478D01*
X69101961Y-112275933D01*
X69285933Y-112091961D01*
X69430478Y-111875634D01*
X69530000Y-111635367D01*
X69629522Y-111875634D01*
X69774067Y-112091961D01*
X69958039Y-112275933D01*
X70174366Y-112420478D01*
X70414737Y-112520043D01*
X70669913Y-112570800D01*
X70930087Y-112570800D01*
X71185263Y-112520043D01*
X71425634Y-112420478D01*
X71641961Y-112275933D01*
X71825933Y-112091961D01*
X71970478Y-111875634D01*
X72070043Y-111635263D01*
X72073446Y-111618154D01*
X91369000Y-111618154D01*
X91369000Y-111781846D01*
X91400935Y-111942394D01*
X91463577Y-112093626D01*
X91554520Y-112229732D01*
X91670268Y-112345480D01*
X91806374Y-112436423D01*
X91957606Y-112499065D01*
X92118154Y-112531000D01*
X92281846Y-112531000D01*
X92442394Y-112499065D01*
X92593626Y-112436423D01*
X92729732Y-112345480D01*
X92845480Y-112229732D01*
X92936423Y-112093626D01*
X92999065Y-111942394D01*
X93031000Y-111781846D01*
X93031000Y-111618154D01*
X94369000Y-111618154D01*
X94369000Y-111781846D01*
X94400935Y-111942394D01*
X94463577Y-112093626D01*
X94554520Y-112229732D01*
X94670268Y-112345480D01*
X94806374Y-112436423D01*
X94957606Y-112499065D01*
X95118154Y-112531000D01*
X95281846Y-112531000D01*
X95442394Y-112499065D01*
X95593626Y-112436423D01*
X95729732Y-112345480D01*
X95845480Y-112229732D01*
X95936423Y-112093626D01*
X95999065Y-111942394D01*
X96031000Y-111781846D01*
X96031000Y-111618154D01*
X95999065Y-111457606D01*
X95936423Y-111306374D01*
X95845480Y-111170268D01*
X95729732Y-111054520D01*
X95593626Y-110963577D01*
X95442394Y-110900935D01*
X95281846Y-110869000D01*
X95118154Y-110869000D01*
X94957606Y-110900935D01*
X94806374Y-110963577D01*
X94670268Y-111054520D01*
X94554520Y-111170268D01*
X94463577Y-111306374D01*
X94400935Y-111457606D01*
X94369000Y-111618154D01*
X93031000Y-111618154D01*
X92999065Y-111457606D01*
X92936423Y-111306374D01*
X92845480Y-111170268D01*
X92729732Y-111054520D01*
X92593626Y-110963577D01*
X92442394Y-110900935D01*
X92281846Y-110869000D01*
X92118154Y-110869000D01*
X91957606Y-110900935D01*
X91806374Y-110963577D01*
X91670268Y-111054520D01*
X91554520Y-111170268D01*
X91463577Y-111306374D01*
X91400935Y-111457606D01*
X91369000Y-111618154D01*
X72073446Y-111618154D01*
X72120800Y-111380087D01*
X72120800Y-111119913D01*
X72070043Y-110864737D01*
X71970478Y-110624366D01*
X71825933Y-110408039D01*
X71641961Y-110224067D01*
X71425634Y-110079522D01*
X71185263Y-109979957D01*
X70930087Y-109929200D01*
X70669913Y-109929200D01*
X70414737Y-109979957D01*
X70174366Y-110079522D01*
X69958039Y-110224067D01*
X69774067Y-110408039D01*
X69629522Y-110624366D01*
X69530000Y-110864633D01*
X69430478Y-110624366D01*
X69285933Y-110408039D01*
X69101961Y-110224067D01*
X68885634Y-110079522D01*
X68816000Y-110050679D01*
X68816000Y-109787304D01*
X68818689Y-109759999D01*
X68816000Y-109732694D01*
X68816000Y-109732688D01*
X68807955Y-109651005D01*
X68776162Y-109546199D01*
X68724534Y-109449608D01*
X68681504Y-109397177D01*
X68672463Y-109386160D01*
X68672460Y-109386157D01*
X68655053Y-109364947D01*
X68633842Y-109347539D01*
X68336302Y-109050000D01*
X99967157Y-109050000D01*
X99967157Y-110750000D01*
X99974513Y-110824689D01*
X99996299Y-110896508D01*
X100031678Y-110962696D01*
X100079289Y-111020711D01*
X100137304Y-111068322D01*
X100203492Y-111103701D01*
X100275311Y-111125487D01*
X100350000Y-111132843D01*
X102050000Y-111132843D01*
X102124689Y-111125487D01*
X102196508Y-111103701D01*
X102262696Y-111068322D01*
X102320711Y-111020711D01*
X102368322Y-110962696D01*
X102403701Y-110896508D01*
X102425487Y-110824689D01*
X102432843Y-110750000D01*
X102432843Y-109050000D01*
X102425487Y-108975311D01*
X102403701Y-108903492D01*
X102368322Y-108837304D01*
X102320711Y-108779289D01*
X102262696Y-108731678D01*
X102196508Y-108696299D01*
X102124689Y-108674513D01*
X102050000Y-108667157D01*
X100350000Y-108667157D01*
X100275311Y-108674513D01*
X100203492Y-108696299D01*
X100137304Y-108731678D01*
X100079289Y-108779289D01*
X100031678Y-108837304D01*
X99996299Y-108903492D01*
X99974513Y-108975311D01*
X99967157Y-109050000D01*
X68336302Y-109050000D01*
X68212468Y-108926167D01*
X68195053Y-108904947D01*
X68110392Y-108835466D01*
X68013801Y-108783838D01*
X67908995Y-108752045D01*
X67827312Y-108744000D01*
X67827304Y-108744000D01*
X67800000Y-108741311D01*
X67772696Y-108744000D01*
X63827296Y-108744000D01*
X63799999Y-108741312D01*
X63772702Y-108744000D01*
X63772688Y-108744000D01*
X63696446Y-108751509D01*
X63691004Y-108752045D01*
X63659211Y-108761690D01*
X63586199Y-108783838D01*
X63489608Y-108835466D01*
X63448981Y-108868808D01*
X63426160Y-108887537D01*
X63426157Y-108887540D01*
X63404947Y-108904947D01*
X63387540Y-108926157D01*
X62726163Y-109587536D01*
X62704948Y-109604947D01*
X62635467Y-109689608D01*
X62632557Y-109695053D01*
X62583839Y-109786199D01*
X62552045Y-109891006D01*
X62541311Y-110000000D01*
X62544001Y-110027314D01*
X62544001Y-110100678D01*
X62474366Y-110129522D01*
X62258039Y-110274067D01*
X62074067Y-110458039D01*
X61929522Y-110674366D01*
X61829957Y-110914737D01*
X61779200Y-111169913D01*
X61779200Y-111430087D01*
X61829957Y-111685263D01*
X61854287Y-111744000D01*
X60814481Y-111744000D01*
X60773826Y-111645851D01*
X60622693Y-111419664D01*
X60430336Y-111227307D01*
X60204149Y-111076174D01*
X59952823Y-110972071D01*
X59686017Y-110919000D01*
X59413983Y-110919000D01*
X59147177Y-110972071D01*
X58895851Y-111076174D01*
X58669664Y-111227307D01*
X58477307Y-111419664D01*
X58326174Y-111645851D01*
X58222071Y-111897177D01*
X58169000Y-112163983D01*
X56370479Y-112163983D01*
X56363210Y-112068721D01*
X56292857Y-111816970D01*
X56174742Y-111583782D01*
X56142119Y-111534959D01*
X55951179Y-111431348D01*
X55082527Y-112300000D01*
X55017473Y-112300000D01*
X54148821Y-111431348D01*
X53957881Y-111534959D01*
X53829613Y-111762720D01*
X53748245Y-112011130D01*
X53716902Y-112270640D01*
X52028062Y-112270640D01*
X52031000Y-112240815D01*
X52031000Y-111398821D01*
X54181348Y-111398821D01*
X55050000Y-112267473D01*
X55918652Y-111398821D01*
X55815041Y-111207881D01*
X55587280Y-111079613D01*
X55338870Y-110998245D01*
X55079360Y-110966902D01*
X54818721Y-110986790D01*
X54566970Y-111057143D01*
X54333782Y-111175258D01*
X54284959Y-111207881D01*
X54181348Y-111398821D01*
X52031000Y-111398821D01*
X52031000Y-111259185D01*
X52018975Y-111137096D01*
X51971458Y-110980452D01*
X51894294Y-110836088D01*
X51790448Y-110709552D01*
X51663911Y-110605706D01*
X51519547Y-110528542D01*
X51362903Y-110481025D01*
X51200000Y-110464980D01*
X51037096Y-110481025D01*
X50880452Y-110528542D01*
X50736088Y-110605706D01*
X50609552Y-110709552D01*
X50505706Y-110836089D01*
X50428542Y-110980453D01*
X50381025Y-111137097D01*
X50369000Y-111259186D01*
X45431000Y-111259186D01*
X45431000Y-111259185D01*
X45418975Y-111137096D01*
X45371458Y-110980452D01*
X45294294Y-110836088D01*
X45190448Y-110709552D01*
X45063911Y-110605706D01*
X44919547Y-110528542D01*
X44762903Y-110481025D01*
X44600000Y-110464980D01*
X44437096Y-110481025D01*
X44280452Y-110528542D01*
X44136088Y-110605706D01*
X44009552Y-110709552D01*
X43905706Y-110836089D01*
X43828542Y-110980453D01*
X43781025Y-111137097D01*
X43769000Y-111259186D01*
X41006000Y-111259186D01*
X41006000Y-109663983D01*
X52419000Y-109663983D01*
X52419000Y-109936017D01*
X52472071Y-110202823D01*
X52576174Y-110454149D01*
X52727307Y-110680336D01*
X52919664Y-110872693D01*
X53145851Y-111023826D01*
X53397177Y-111127929D01*
X53663983Y-111181000D01*
X53936017Y-111181000D01*
X54202823Y-111127929D01*
X54454149Y-111023826D01*
X54680336Y-110872693D01*
X54872693Y-110680336D01*
X55023826Y-110454149D01*
X55127929Y-110202823D01*
X55181000Y-109936017D01*
X55181000Y-109663983D01*
X59419000Y-109663983D01*
X59419000Y-109936017D01*
X59472071Y-110202823D01*
X59576174Y-110454149D01*
X59727307Y-110680336D01*
X59919664Y-110872693D01*
X60145851Y-111023826D01*
X60397177Y-111127929D01*
X60663983Y-111181000D01*
X60936017Y-111181000D01*
X61202823Y-111127929D01*
X61454149Y-111023826D01*
X61680336Y-110872693D01*
X61872693Y-110680336D01*
X62023826Y-110454149D01*
X62127929Y-110202823D01*
X62181000Y-109936017D01*
X62181000Y-109663983D01*
X62127929Y-109397177D01*
X62023826Y-109145851D01*
X61872693Y-108919664D01*
X61680336Y-108727307D01*
X61454149Y-108576174D01*
X61202823Y-108472071D01*
X60936017Y-108419000D01*
X60663983Y-108419000D01*
X60397177Y-108472071D01*
X60145851Y-108576174D01*
X59919664Y-108727307D01*
X59727307Y-108919664D01*
X59576174Y-109145851D01*
X59472071Y-109397177D01*
X59419000Y-109663983D01*
X55181000Y-109663983D01*
X55127929Y-109397177D01*
X55023826Y-109145851D01*
X54872693Y-108919664D01*
X54680336Y-108727307D01*
X54454149Y-108576174D01*
X54202823Y-108472071D01*
X53936017Y-108419000D01*
X53663983Y-108419000D01*
X53397177Y-108472071D01*
X53145851Y-108576174D01*
X52919664Y-108727307D01*
X52727307Y-108919664D01*
X52576174Y-109145851D01*
X52472071Y-109397177D01*
X52419000Y-109663983D01*
X41006000Y-109663983D01*
X41006000Y-103104889D01*
X42119000Y-103104889D01*
X42119000Y-103495111D01*
X42195129Y-103877836D01*
X42344461Y-104238355D01*
X42561257Y-104562814D01*
X42837186Y-104838743D01*
X43161645Y-105055539D01*
X43522164Y-105204871D01*
X43904889Y-105281000D01*
X44295111Y-105281000D01*
X44677836Y-105204871D01*
X45038355Y-105055539D01*
X45362814Y-104838743D01*
X45638743Y-104562814D01*
X45780940Y-104350000D01*
X55321418Y-104350000D01*
X55327732Y-104414103D01*
X55346430Y-104475743D01*
X55376794Y-104532550D01*
X55417657Y-104582343D01*
X55467450Y-104623206D01*
X55524257Y-104653570D01*
X55585897Y-104672268D01*
X55650000Y-104678582D01*
X56395250Y-104677000D01*
X56477000Y-104595250D01*
X56477000Y-103523000D01*
X56523000Y-103523000D01*
X56523000Y-104595250D01*
X56604750Y-104677000D01*
X57350000Y-104678582D01*
X57414103Y-104672268D01*
X57475743Y-104653570D01*
X57532550Y-104623206D01*
X57582343Y-104582343D01*
X57623206Y-104532550D01*
X57653570Y-104475743D01*
X57672268Y-104414103D01*
X57678582Y-104350000D01*
X57677000Y-103604750D01*
X57595250Y-103523000D01*
X56523000Y-103523000D01*
X56477000Y-103523000D01*
X55404750Y-103523000D01*
X55323000Y-103604750D01*
X55321418Y-104350000D01*
X45780940Y-104350000D01*
X45855539Y-104238355D01*
X46004871Y-103877836D01*
X46081000Y-103495111D01*
X46081000Y-103104889D01*
X46004871Y-102722164D01*
X45974980Y-102650000D01*
X55321418Y-102650000D01*
X55323000Y-103395250D01*
X55404750Y-103477000D01*
X56477000Y-103477000D01*
X56477000Y-102404750D01*
X56523000Y-102404750D01*
X56523000Y-103477000D01*
X57595250Y-103477000D01*
X57677000Y-103395250D01*
X57678582Y-102650000D01*
X57672268Y-102585897D01*
X57653570Y-102524257D01*
X57623206Y-102467450D01*
X57582343Y-102417657D01*
X57532550Y-102376794D01*
X57475743Y-102346430D01*
X57414103Y-102327732D01*
X57350000Y-102321418D01*
X56604750Y-102323000D01*
X56523000Y-102404750D01*
X56477000Y-102404750D01*
X56395250Y-102323000D01*
X55650000Y-102321418D01*
X55585897Y-102327732D01*
X55524257Y-102346430D01*
X55467450Y-102376794D01*
X55417657Y-102417657D01*
X55376794Y-102467450D01*
X55346430Y-102524257D01*
X55327732Y-102585897D01*
X55321418Y-102650000D01*
X45974980Y-102650000D01*
X45855539Y-102361645D01*
X45638743Y-102037186D01*
X45362814Y-101761257D01*
X45038355Y-101544461D01*
X44677836Y-101395129D01*
X44295111Y-101319000D01*
X43904889Y-101319000D01*
X43522164Y-101395129D01*
X43161645Y-101544461D01*
X42837186Y-101761257D01*
X42561257Y-102037186D01*
X42344461Y-102361645D01*
X42195129Y-102722164D01*
X42119000Y-103104889D01*
X41006000Y-103104889D01*
X41006000Y-96288606D01*
X41619000Y-96288606D01*
X41619000Y-96511394D01*
X41662464Y-96729900D01*
X41747721Y-96935729D01*
X41871495Y-97120970D01*
X42029030Y-97278505D01*
X42214271Y-97402279D01*
X42420100Y-97487536D01*
X42638606Y-97531000D01*
X42861394Y-97531000D01*
X43079900Y-97487536D01*
X43285729Y-97402279D01*
X43470970Y-97278505D01*
X43628505Y-97120970D01*
X43752279Y-96935729D01*
X43837536Y-96729900D01*
X43881000Y-96511394D01*
X43881000Y-96288606D01*
X43837536Y-96070100D01*
X43814866Y-96015370D01*
X46249241Y-93580996D01*
X50836674Y-93580996D01*
X50764386Y-93755515D01*
X50719000Y-93983682D01*
X50719000Y-94216318D01*
X50764386Y-94444485D01*
X50853412Y-94659413D01*
X50982658Y-94852843D01*
X51147157Y-95017342D01*
X51340587Y-95146588D01*
X51555515Y-95235614D01*
X51783682Y-95281000D01*
X52016318Y-95281000D01*
X52160043Y-95252411D01*
X63631895Y-106724263D01*
X63651657Y-106748343D01*
X63747739Y-106827196D01*
X63857358Y-106885789D01*
X63976302Y-106921870D01*
X64069002Y-106931000D01*
X64069011Y-106931000D01*
X64099999Y-106934052D01*
X64130987Y-106931000D01*
X93001245Y-106931000D01*
X93082658Y-107052843D01*
X93247157Y-107217342D01*
X93440587Y-107346588D01*
X93655515Y-107435614D01*
X93883682Y-107481000D01*
X94116318Y-107481000D01*
X94344485Y-107435614D01*
X94559413Y-107346588D01*
X94752843Y-107217342D01*
X94917342Y-107052843D01*
X95046588Y-106859413D01*
X95135614Y-106644485D01*
X95181000Y-106416318D01*
X95181000Y-106183682D01*
X95135614Y-105955515D01*
X95046588Y-105740587D01*
X94917342Y-105547157D01*
X94752843Y-105382658D01*
X94559413Y-105253412D01*
X94344485Y-105164386D01*
X94116318Y-105119000D01*
X93883682Y-105119000D01*
X93655515Y-105164386D01*
X93440587Y-105253412D01*
X93247157Y-105382658D01*
X93082658Y-105547157D01*
X93001245Y-105669000D01*
X64361368Y-105669000D01*
X53976050Y-95283682D01*
X67269000Y-95283682D01*
X67269000Y-95516318D01*
X67314386Y-95744485D01*
X67403412Y-95959413D01*
X67532658Y-96152843D01*
X67697157Y-96317342D01*
X67890587Y-96446588D01*
X68105515Y-96535614D01*
X68333682Y-96581000D01*
X68566318Y-96581000D01*
X68794485Y-96535614D01*
X69009413Y-96446588D01*
X69202843Y-96317342D01*
X69367342Y-96152843D01*
X69496588Y-95959413D01*
X69500486Y-95950000D01*
X70087157Y-95950000D01*
X70087157Y-97650000D01*
X70094513Y-97724689D01*
X70116299Y-97796508D01*
X70151678Y-97862696D01*
X70199289Y-97920711D01*
X70257304Y-97968322D01*
X70323492Y-98003701D01*
X70395311Y-98025487D01*
X70470000Y-98032843D01*
X72170000Y-98032843D01*
X72244689Y-98025487D01*
X72316508Y-98003701D01*
X72382696Y-97968322D01*
X72440711Y-97920711D01*
X72488322Y-97862696D01*
X72523701Y-97796508D01*
X72545487Y-97724689D01*
X72552843Y-97650000D01*
X72552843Y-96678757D01*
X72629000Y-96678757D01*
X72629000Y-96921243D01*
X72676307Y-97159069D01*
X72769102Y-97383097D01*
X72903820Y-97584717D01*
X73075283Y-97756180D01*
X73276903Y-97890898D01*
X73500931Y-97983693D01*
X73738757Y-98031000D01*
X73981243Y-98031000D01*
X74219069Y-97983693D01*
X74443097Y-97890898D01*
X74644717Y-97756180D01*
X74816180Y-97584717D01*
X74950898Y-97383097D01*
X75043693Y-97159069D01*
X75091000Y-96921243D01*
X75091000Y-96678757D01*
X75169000Y-96678757D01*
X75169000Y-96921243D01*
X75216307Y-97159069D01*
X75309102Y-97383097D01*
X75443820Y-97584717D01*
X75615283Y-97756180D01*
X75816903Y-97890898D01*
X76040931Y-97983693D01*
X76278757Y-98031000D01*
X76521243Y-98031000D01*
X76759069Y-97983693D01*
X76983097Y-97890898D01*
X77184717Y-97756180D01*
X77356180Y-97584717D01*
X77490898Y-97383097D01*
X77583693Y-97159069D01*
X77631000Y-96921243D01*
X77631000Y-96678757D01*
X77583693Y-96440931D01*
X77490898Y-96216903D01*
X77356180Y-96015283D01*
X77184717Y-95843820D01*
X76983097Y-95709102D01*
X76759069Y-95616307D01*
X76521243Y-95569000D01*
X76278757Y-95569000D01*
X76040931Y-95616307D01*
X75816903Y-95709102D01*
X75615283Y-95843820D01*
X75443820Y-96015283D01*
X75309102Y-96216903D01*
X75216307Y-96440931D01*
X75169000Y-96678757D01*
X75091000Y-96678757D01*
X75043693Y-96440931D01*
X74950898Y-96216903D01*
X74816180Y-96015283D01*
X74644717Y-95843820D01*
X74443097Y-95709102D01*
X74219069Y-95616307D01*
X73981243Y-95569000D01*
X73738757Y-95569000D01*
X73500931Y-95616307D01*
X73276903Y-95709102D01*
X73075283Y-95843820D01*
X72903820Y-96015283D01*
X72769102Y-96216903D01*
X72676307Y-96440931D01*
X72629000Y-96678757D01*
X72552843Y-96678757D01*
X72552843Y-95950000D01*
X72545487Y-95875311D01*
X72523701Y-95803492D01*
X72488322Y-95737304D01*
X72440711Y-95679289D01*
X72382696Y-95631678D01*
X72316508Y-95596299D01*
X72244689Y-95574513D01*
X72170000Y-95567157D01*
X70470000Y-95567157D01*
X70395311Y-95574513D01*
X70323492Y-95596299D01*
X70257304Y-95631678D01*
X70199289Y-95679289D01*
X70151678Y-95737304D01*
X70116299Y-95803492D01*
X70094513Y-95875311D01*
X70087157Y-95950000D01*
X69500486Y-95950000D01*
X69585614Y-95744485D01*
X69631000Y-95516318D01*
X69631000Y-95283682D01*
X69630467Y-95281000D01*
X79300762Y-95281000D01*
X83943170Y-99923406D01*
X83958236Y-99941764D01*
X84031478Y-100001872D01*
X84085932Y-100030978D01*
X84115038Y-100046536D01*
X84205707Y-100074040D01*
X84300000Y-100083327D01*
X84323627Y-100081000D01*
X90400764Y-100081000D01*
X97143170Y-106823406D01*
X97158236Y-106841764D01*
X97231478Y-106901872D01*
X97268890Y-106921869D01*
X97315038Y-106946536D01*
X97405707Y-106974040D01*
X97500000Y-106983327D01*
X97523626Y-106981000D01*
X99420932Y-106981000D01*
X99453412Y-107059413D01*
X99582658Y-107252843D01*
X99747157Y-107417342D01*
X99940587Y-107546588D01*
X100155515Y-107635614D01*
X100383682Y-107681000D01*
X100616318Y-107681000D01*
X100844485Y-107635614D01*
X101059413Y-107546588D01*
X101252843Y-107417342D01*
X101417342Y-107252843D01*
X101546588Y-107059413D01*
X101635614Y-106844485D01*
X101681000Y-106616318D01*
X101681000Y-106383682D01*
X101635614Y-106155515D01*
X101546588Y-105940587D01*
X101417342Y-105747157D01*
X101252843Y-105582658D01*
X101059413Y-105453412D01*
X100844485Y-105364386D01*
X100616318Y-105319000D01*
X100383682Y-105319000D01*
X100155515Y-105364386D01*
X99940587Y-105453412D01*
X99747157Y-105582658D01*
X99582658Y-105747157D01*
X99453412Y-105940587D01*
X99420932Y-106019000D01*
X97699236Y-106019000D01*
X91011236Y-99331000D01*
X95369010Y-99331000D01*
X95400000Y-99334052D01*
X95415868Y-99332489D01*
X95255515Y-99364386D01*
X95040587Y-99453412D01*
X94847157Y-99582658D01*
X94682658Y-99747157D01*
X94553412Y-99940587D01*
X94464386Y-100155515D01*
X94419000Y-100383682D01*
X94419000Y-100616318D01*
X94464386Y-100844485D01*
X94553412Y-101059413D01*
X94682658Y-101252843D01*
X94847157Y-101417342D01*
X95040587Y-101546588D01*
X95255515Y-101635614D01*
X95483682Y-101681000D01*
X95716318Y-101681000D01*
X95944485Y-101635614D01*
X96159413Y-101546588D01*
X96352843Y-101417342D01*
X96517342Y-101252843D01*
X96646588Y-101059413D01*
X96648002Y-101056000D01*
X97072696Y-101056000D01*
X97100000Y-101058689D01*
X97127304Y-101056000D01*
X97127312Y-101056000D01*
X97208995Y-101047955D01*
X97313801Y-101016162D01*
X97410392Y-100964534D01*
X97495053Y-100895053D01*
X97512469Y-100873832D01*
X98652102Y-99734200D01*
X98655515Y-99735614D01*
X98883682Y-99781000D01*
X99116318Y-99781000D01*
X99344485Y-99735614D01*
X99559413Y-99646588D01*
X99752843Y-99517342D01*
X99917342Y-99352843D01*
X100046588Y-99159413D01*
X100135614Y-98944485D01*
X100181000Y-98716318D01*
X100181000Y-98483682D01*
X100135614Y-98255515D01*
X100046588Y-98040587D01*
X99917342Y-97847157D01*
X99752843Y-97682658D01*
X99559413Y-97553412D01*
X99344485Y-97464386D01*
X99116318Y-97419000D01*
X98883682Y-97419000D01*
X98655515Y-97464386D01*
X98440587Y-97553412D01*
X98247157Y-97682658D01*
X98082658Y-97847157D01*
X97953412Y-98040587D01*
X97864386Y-98255515D01*
X97819000Y-98483682D01*
X97819000Y-98716318D01*
X97864386Y-98944485D01*
X97865800Y-98947898D01*
X96869699Y-99944000D01*
X96648002Y-99944000D01*
X96646588Y-99940587D01*
X96517342Y-99747157D01*
X96352843Y-99582658D01*
X96159413Y-99453412D01*
X95944485Y-99364386D01*
X95716318Y-99319000D01*
X95533159Y-99319000D01*
X95642642Y-99285789D01*
X95752261Y-99227196D01*
X95848343Y-99148343D01*
X95868105Y-99124263D01*
X101639958Y-93352411D01*
X101783682Y-93381000D01*
X102016318Y-93381000D01*
X102244485Y-93335614D01*
X102459413Y-93246588D01*
X102652843Y-93117342D01*
X102817342Y-92952843D01*
X102946588Y-92759413D01*
X103035614Y-92544485D01*
X103081000Y-92316318D01*
X103081000Y-92083682D01*
X103035614Y-91855515D01*
X102946588Y-91640587D01*
X102817342Y-91447157D01*
X102652843Y-91282658D01*
X102459413Y-91153412D01*
X102381000Y-91120932D01*
X102381000Y-89423626D01*
X102383327Y-89400000D01*
X102374040Y-89305707D01*
X102346536Y-89215040D01*
X102346536Y-89215039D01*
X102301872Y-89131478D01*
X102241764Y-89058236D01*
X102223411Y-89043174D01*
X102203134Y-89022898D01*
X102235614Y-88944485D01*
X102281000Y-88716318D01*
X102281000Y-88483682D01*
X102235614Y-88255515D01*
X102146588Y-88040587D01*
X102017342Y-87847157D01*
X101852843Y-87682658D01*
X101659413Y-87553412D01*
X101444485Y-87464386D01*
X101216318Y-87419000D01*
X100983682Y-87419000D01*
X100755515Y-87464386D01*
X100540587Y-87553412D01*
X100347157Y-87682658D01*
X100182658Y-87847157D01*
X100053412Y-88040587D01*
X99964386Y-88255515D01*
X99919000Y-88483682D01*
X99919000Y-88716318D01*
X99964386Y-88944485D01*
X100053412Y-89159413D01*
X100182658Y-89352843D01*
X100347157Y-89517342D01*
X100540587Y-89646588D01*
X100755515Y-89735614D01*
X100983682Y-89781000D01*
X101216318Y-89781000D01*
X101419000Y-89740683D01*
X101419001Y-91120932D01*
X101340587Y-91153412D01*
X101147157Y-91282658D01*
X100982658Y-91447157D01*
X100853412Y-91640587D01*
X100764386Y-91855515D01*
X100719000Y-92083682D01*
X100719000Y-92316318D01*
X100747589Y-92460042D01*
X95138632Y-98069000D01*
X87261369Y-98069000D01*
X81252411Y-92060043D01*
X81281000Y-91916318D01*
X81281000Y-91683682D01*
X81235614Y-91455515D01*
X81146588Y-91240587D01*
X81017342Y-91047157D01*
X80852843Y-90882658D01*
X80659413Y-90753412D01*
X80444485Y-90664386D01*
X80216318Y-90619000D01*
X79983682Y-90619000D01*
X79755515Y-90664386D01*
X79540587Y-90753412D01*
X79347157Y-90882658D01*
X79182658Y-91047157D01*
X79053412Y-91240587D01*
X78964386Y-91455515D01*
X78919000Y-91683682D01*
X78919000Y-91916318D01*
X78964386Y-92144485D01*
X79053412Y-92359413D01*
X79182658Y-92552843D01*
X79347157Y-92717342D01*
X79540587Y-92846588D01*
X79755515Y-92935614D01*
X79983682Y-92981000D01*
X80216318Y-92981000D01*
X80360043Y-92952411D01*
X86526631Y-99119000D01*
X84499236Y-99119000D01*
X79856828Y-94476594D01*
X79841762Y-94458236D01*
X79768520Y-94398128D01*
X79684959Y-94353464D01*
X79594290Y-94325960D01*
X79523624Y-94319000D01*
X79499998Y-94316673D01*
X79476372Y-94319000D01*
X69429834Y-94319000D01*
X69412435Y-94316833D01*
X69382579Y-94319000D01*
X69376374Y-94319000D01*
X69358991Y-94320712D01*
X69317935Y-94323692D01*
X69311924Y-94325348D01*
X69305708Y-94325960D01*
X69266268Y-94337924D01*
X69226588Y-94348854D01*
X69221013Y-94351652D01*
X69215039Y-94353464D01*
X69178713Y-94372880D01*
X69163124Y-94380704D01*
X69157881Y-94384016D01*
X69131478Y-94398128D01*
X69117924Y-94409251D01*
X69105102Y-94417349D01*
X69009413Y-94353412D01*
X68794485Y-94264386D01*
X68566318Y-94219000D01*
X68333682Y-94219000D01*
X68105515Y-94264386D01*
X67890587Y-94353412D01*
X67697157Y-94482658D01*
X67532658Y-94647157D01*
X67403412Y-94840587D01*
X67314386Y-95055515D01*
X67269000Y-95283682D01*
X53976050Y-95283682D01*
X53365786Y-94673418D01*
X53452261Y-94627196D01*
X53548343Y-94548343D01*
X53568105Y-94524263D01*
X55324264Y-92768104D01*
X55348343Y-92748343D01*
X55427196Y-92652261D01*
X55485789Y-92542642D01*
X55521870Y-92423698D01*
X55531000Y-92330998D01*
X55531000Y-92330989D01*
X55534052Y-92300001D01*
X55531000Y-92269013D01*
X55531000Y-91161368D01*
X57108686Y-89583682D01*
X58119000Y-89583682D01*
X58119000Y-89816318D01*
X58164386Y-90044485D01*
X58253412Y-90259413D01*
X58382658Y-90452843D01*
X58547157Y-90617342D01*
X58740587Y-90746588D01*
X58955515Y-90835614D01*
X59183682Y-90881000D01*
X59416318Y-90881000D01*
X59644485Y-90835614D01*
X59859413Y-90746588D01*
X60052843Y-90617342D01*
X60217342Y-90452843D01*
X60298755Y-90331000D01*
X71169010Y-90331000D01*
X71200000Y-90334052D01*
X71230990Y-90331000D01*
X71230998Y-90331000D01*
X71323698Y-90321870D01*
X71442642Y-90285789D01*
X71552261Y-90227196D01*
X71648343Y-90148343D01*
X71668105Y-90124263D01*
X78339958Y-83452411D01*
X78483682Y-83481000D01*
X78716318Y-83481000D01*
X78944485Y-83435614D01*
X79159413Y-83346588D01*
X79352843Y-83217342D01*
X79517342Y-83052843D01*
X79646588Y-82859413D01*
X79735614Y-82644485D01*
X79781000Y-82416318D01*
X79781000Y-82183682D01*
X79735614Y-81955515D01*
X79646588Y-81740587D01*
X79517342Y-81547157D01*
X79352843Y-81382658D01*
X79159413Y-81253412D01*
X78944485Y-81164386D01*
X78716318Y-81119000D01*
X78483682Y-81119000D01*
X78255515Y-81164386D01*
X78040587Y-81253412D01*
X77847157Y-81382658D01*
X77682658Y-81547157D01*
X77553412Y-81740587D01*
X77464386Y-81955515D01*
X77419000Y-82183682D01*
X77419000Y-82416318D01*
X77447589Y-82560042D01*
X70938632Y-89069000D01*
X60298755Y-89069000D01*
X60217342Y-88947157D01*
X60052843Y-88782658D01*
X59859413Y-88653412D01*
X59644485Y-88564386D01*
X59416318Y-88519000D01*
X59183682Y-88519000D01*
X58955515Y-88564386D01*
X58740587Y-88653412D01*
X58547157Y-88782658D01*
X58382658Y-88947157D01*
X58253412Y-89140587D01*
X58164386Y-89355515D01*
X58119000Y-89583682D01*
X57108686Y-89583682D01*
X58424269Y-88268100D01*
X58448343Y-88248343D01*
X58527196Y-88152261D01*
X58585789Y-88042642D01*
X58621870Y-87923698D01*
X58623857Y-87903528D01*
X58752843Y-87817342D01*
X58917342Y-87652843D01*
X59046588Y-87459413D01*
X59135614Y-87244485D01*
X59181000Y-87016318D01*
X59181000Y-86783682D01*
X59135614Y-86555515D01*
X59046588Y-86340587D01*
X58917342Y-86147157D01*
X58752843Y-85982658D01*
X58559413Y-85853412D01*
X58344485Y-85764386D01*
X58116318Y-85719000D01*
X57883682Y-85719000D01*
X57655515Y-85764386D01*
X57440587Y-85853412D01*
X57247157Y-85982658D01*
X57082658Y-86147157D01*
X56953412Y-86340587D01*
X56864386Y-86555515D01*
X56819000Y-86783682D01*
X56819000Y-87016318D01*
X56864386Y-87244485D01*
X56953412Y-87459413D01*
X57082658Y-87652843D01*
X57168723Y-87738908D01*
X54475733Y-90431899D01*
X54451658Y-90451657D01*
X54431900Y-90475732D01*
X54431897Y-90475735D01*
X54372804Y-90547740D01*
X54314211Y-90657359D01*
X54278130Y-90776303D01*
X54265948Y-90900000D01*
X54269001Y-90931000D01*
X54269000Y-92038632D01*
X52874673Y-93432959D01*
X52817342Y-93347157D01*
X52670184Y-93199999D01*
X52817342Y-93052840D01*
X52946588Y-92859410D01*
X53035614Y-92644482D01*
X53081000Y-92416315D01*
X53081000Y-92183679D01*
X53035614Y-91955512D01*
X52946588Y-91740584D01*
X52817342Y-91547154D01*
X52652843Y-91382655D01*
X52459413Y-91253409D01*
X52244485Y-91164383D01*
X52016318Y-91118997D01*
X51783682Y-91118997D01*
X51555515Y-91164383D01*
X51340587Y-91253409D01*
X51147157Y-91382655D01*
X50982658Y-91547154D01*
X50853412Y-91740584D01*
X50764386Y-91955512D01*
X50719000Y-92183679D01*
X50719000Y-92416315D01*
X50759316Y-92618996D01*
X46073619Y-92618996D01*
X46050003Y-92616670D01*
X46026387Y-92618996D01*
X46026378Y-92618996D01*
X45955712Y-92625956D01*
X45865043Y-92653460D01*
X45781482Y-92698124D01*
X45708240Y-92758232D01*
X45693179Y-92776584D01*
X43134630Y-95335134D01*
X43079900Y-95312464D01*
X42861394Y-95269000D01*
X42638606Y-95269000D01*
X42420100Y-95312464D01*
X42214271Y-95397721D01*
X42029030Y-95521495D01*
X41871495Y-95679030D01*
X41747721Y-95864271D01*
X41662464Y-96070100D01*
X41619000Y-96288606D01*
X41006000Y-96288606D01*
X41006000Y-94623510D01*
X42059017Y-94623510D01*
X42132643Y-94788849D01*
X42317912Y-94892210D01*
X42519784Y-94957441D01*
X42730504Y-94982035D01*
X42941973Y-94965048D01*
X43146065Y-94907131D01*
X43334936Y-94810510D01*
X43367357Y-94788849D01*
X43440983Y-94623510D01*
X42750000Y-93932527D01*
X42059017Y-94623510D01*
X41006000Y-94623510D01*
X41006000Y-93880504D01*
X41667965Y-93880504D01*
X41684952Y-94091973D01*
X41742869Y-94296065D01*
X41839490Y-94484936D01*
X41861151Y-94517357D01*
X42026490Y-94590983D01*
X42717473Y-93900000D01*
X42782527Y-93900000D01*
X43473510Y-94590983D01*
X43638849Y-94517357D01*
X43742210Y-94332088D01*
X43807441Y-94130216D01*
X43832035Y-93919496D01*
X43815048Y-93708027D01*
X43757131Y-93503935D01*
X43660510Y-93315064D01*
X43638849Y-93282643D01*
X43473510Y-93209017D01*
X42782527Y-93900000D01*
X42717473Y-93900000D01*
X42026490Y-93209017D01*
X41861151Y-93282643D01*
X41757790Y-93467912D01*
X41692559Y-93669784D01*
X41667965Y-93880504D01*
X41006000Y-93880504D01*
X41006000Y-93176490D01*
X42059017Y-93176490D01*
X42750000Y-93867473D01*
X43440983Y-93176490D01*
X43367357Y-93011151D01*
X43182088Y-92907790D01*
X42980216Y-92842559D01*
X42769496Y-92817965D01*
X42558027Y-92834952D01*
X42353935Y-92892869D01*
X42165064Y-92989490D01*
X42132643Y-93011151D01*
X42059017Y-93176490D01*
X41006000Y-93176490D01*
X41006000Y-82418757D01*
X55069000Y-82418757D01*
X55069000Y-82661243D01*
X55116307Y-82899069D01*
X55209102Y-83123097D01*
X55343820Y-83324717D01*
X55515283Y-83496180D01*
X55716903Y-83630898D01*
X55940931Y-83723693D01*
X56178757Y-83771000D01*
X56421243Y-83771000D01*
X56659069Y-83723693D01*
X56883097Y-83630898D01*
X57084717Y-83496180D01*
X57256180Y-83324717D01*
X57390898Y-83123097D01*
X57483693Y-82899069D01*
X57531000Y-82661243D01*
X57531000Y-82418757D01*
X57609000Y-82418757D01*
X57609000Y-82661243D01*
X57656307Y-82899069D01*
X57749102Y-83123097D01*
X57883820Y-83324717D01*
X58055283Y-83496180D01*
X58256903Y-83630898D01*
X58480931Y-83723693D01*
X58718757Y-83771000D01*
X58961243Y-83771000D01*
X59199069Y-83723693D01*
X59423097Y-83630898D01*
X59624717Y-83496180D01*
X59796180Y-83324717D01*
X59930898Y-83123097D01*
X60023693Y-82899069D01*
X60071000Y-82661243D01*
X60071000Y-82418757D01*
X60149000Y-82418757D01*
X60149000Y-82661243D01*
X60196307Y-82899069D01*
X60289102Y-83123097D01*
X60423820Y-83324717D01*
X60595283Y-83496180D01*
X60796903Y-83630898D01*
X61020931Y-83723693D01*
X61258757Y-83771000D01*
X61501243Y-83771000D01*
X61739069Y-83723693D01*
X61963097Y-83630898D01*
X62164717Y-83496180D01*
X62336180Y-83324717D01*
X62470898Y-83123097D01*
X62563693Y-82899069D01*
X62586641Y-82783702D01*
X65219000Y-82783702D01*
X65219000Y-83016338D01*
X65264386Y-83244505D01*
X65353412Y-83459433D01*
X65482658Y-83652863D01*
X65647157Y-83817362D01*
X65840587Y-83946608D01*
X66055515Y-84035634D01*
X66283682Y-84081020D01*
X66516318Y-84081020D01*
X66744485Y-84035634D01*
X66959413Y-83946608D01*
X67152843Y-83817362D01*
X67317342Y-83652863D01*
X67446588Y-83459433D01*
X67479068Y-83381020D01*
X75076354Y-83381020D01*
X75099980Y-83383347D01*
X75123606Y-83381020D01*
X75194272Y-83374060D01*
X75284941Y-83346556D01*
X75368502Y-83301892D01*
X75441744Y-83241784D01*
X75456810Y-83223426D01*
X80077102Y-78603134D01*
X80155515Y-78635614D01*
X80383682Y-78681000D01*
X80616318Y-78681000D01*
X80844485Y-78635614D01*
X81059413Y-78546588D01*
X81252843Y-78417342D01*
X81417342Y-78252843D01*
X81546588Y-78059413D01*
X81635614Y-77844485D01*
X81681000Y-77616318D01*
X81681000Y-77383682D01*
X81635614Y-77155515D01*
X81546588Y-76940587D01*
X81417342Y-76747157D01*
X81252843Y-76582658D01*
X81059413Y-76453412D01*
X80844485Y-76364386D01*
X80616318Y-76319000D01*
X80383682Y-76319000D01*
X80155515Y-76364386D01*
X79940587Y-76453412D01*
X79747157Y-76582658D01*
X79582658Y-76747157D01*
X79453412Y-76940587D01*
X79364386Y-77155515D01*
X79319000Y-77383682D01*
X79319000Y-77616318D01*
X79364386Y-77844485D01*
X79396866Y-77922898D01*
X74900744Y-82419020D01*
X67479068Y-82419020D01*
X67446588Y-82340607D01*
X67317342Y-82147177D01*
X67152843Y-81982678D01*
X66959413Y-81853432D01*
X66744485Y-81764406D01*
X66516318Y-81719020D01*
X66283682Y-81719020D01*
X66055515Y-81764406D01*
X65840587Y-81853432D01*
X65647157Y-81982678D01*
X65482658Y-82147177D01*
X65353412Y-82340607D01*
X65264386Y-82555535D01*
X65219000Y-82783702D01*
X62586641Y-82783702D01*
X62611000Y-82661243D01*
X62611000Y-82418757D01*
X62563693Y-82180931D01*
X62470898Y-81956903D01*
X62336180Y-81755283D01*
X62164717Y-81583820D01*
X61963097Y-81449102D01*
X61739069Y-81356307D01*
X61501243Y-81309000D01*
X61258757Y-81309000D01*
X61020931Y-81356307D01*
X60796903Y-81449102D01*
X60595283Y-81583820D01*
X60423820Y-81755283D01*
X60289102Y-81956903D01*
X60196307Y-82180931D01*
X60149000Y-82418757D01*
X60071000Y-82418757D01*
X60023693Y-82180931D01*
X59930898Y-81956903D01*
X59796180Y-81755283D01*
X59624717Y-81583820D01*
X59423097Y-81449102D01*
X59199069Y-81356307D01*
X58961243Y-81309000D01*
X58718757Y-81309000D01*
X58480931Y-81356307D01*
X58256903Y-81449102D01*
X58055283Y-81583820D01*
X57883820Y-81755283D01*
X57749102Y-81956903D01*
X57656307Y-82180931D01*
X57609000Y-82418757D01*
X57531000Y-82418757D01*
X57483693Y-82180931D01*
X57390898Y-81956903D01*
X57256180Y-81755283D01*
X57084717Y-81583820D01*
X56883097Y-81449102D01*
X56659069Y-81356307D01*
X56421243Y-81309000D01*
X56178757Y-81309000D01*
X55940931Y-81356307D01*
X55716903Y-81449102D01*
X55515283Y-81583820D01*
X55343820Y-81755283D01*
X55209102Y-81956903D01*
X55116307Y-82180931D01*
X55069000Y-82418757D01*
X41006000Y-82418757D01*
X41006000Y-80850000D01*
X55121418Y-80850000D01*
X55127732Y-80914103D01*
X55146430Y-80975743D01*
X55176794Y-81032550D01*
X55217657Y-81082343D01*
X55267450Y-81123206D01*
X55324257Y-81153570D01*
X55385897Y-81172268D01*
X55450000Y-81178582D01*
X56195250Y-81177000D01*
X56277000Y-81095250D01*
X56277000Y-80023000D01*
X56323000Y-80023000D01*
X56323000Y-81095250D01*
X56404750Y-81177000D01*
X57150000Y-81178582D01*
X57214103Y-81172268D01*
X57275743Y-81153570D01*
X57332550Y-81123206D01*
X57382343Y-81082343D01*
X57423206Y-81032550D01*
X57453570Y-80975743D01*
X57472268Y-80914103D01*
X57478582Y-80850000D01*
X57477217Y-80206805D01*
X57681310Y-80206805D01*
X57743920Y-80428881D01*
X57848651Y-80634475D01*
X57991479Y-80815686D01*
X58166916Y-80965551D01*
X58368219Y-81078310D01*
X58587652Y-81149630D01*
X58633195Y-81158689D01*
X58817000Y-81095008D01*
X58817000Y-80023000D01*
X58863000Y-80023000D01*
X58863000Y-81095008D01*
X59046805Y-81158689D01*
X59092348Y-81149630D01*
X59311781Y-81078310D01*
X59513084Y-80965551D01*
X59688521Y-80815686D01*
X59831349Y-80634475D01*
X59936080Y-80428881D01*
X59998690Y-80206805D01*
X59935026Y-80023000D01*
X58863000Y-80023000D01*
X58817000Y-80023000D01*
X57744974Y-80023000D01*
X57681310Y-80206805D01*
X57477217Y-80206805D01*
X57477000Y-80104750D01*
X57395250Y-80023000D01*
X56323000Y-80023000D01*
X56277000Y-80023000D01*
X55204750Y-80023000D01*
X55123000Y-80104750D01*
X55121418Y-80850000D01*
X41006000Y-80850000D01*
X41006000Y-79150000D01*
X55121418Y-79150000D01*
X55123000Y-79895250D01*
X55204750Y-79977000D01*
X56277000Y-79977000D01*
X56277000Y-78904750D01*
X56323000Y-78904750D01*
X56323000Y-79977000D01*
X57395250Y-79977000D01*
X57477000Y-79895250D01*
X57477216Y-79793195D01*
X57681310Y-79793195D01*
X57744974Y-79977000D01*
X58817000Y-79977000D01*
X58817000Y-78904992D01*
X58863000Y-78904992D01*
X58863000Y-79977000D01*
X59935026Y-79977000D01*
X59969054Y-79878757D01*
X60149000Y-79878757D01*
X60149000Y-80121243D01*
X60196307Y-80359069D01*
X60289102Y-80583097D01*
X60423820Y-80784717D01*
X60595283Y-80956180D01*
X60796903Y-81090898D01*
X61020931Y-81183693D01*
X61258757Y-81231000D01*
X61501243Y-81231000D01*
X61739069Y-81183693D01*
X61963097Y-81090898D01*
X62164717Y-80956180D01*
X62336180Y-80784717D01*
X62470898Y-80583097D01*
X62563693Y-80359069D01*
X62611000Y-80121243D01*
X62611000Y-79878757D01*
X62563693Y-79640931D01*
X62470898Y-79416903D01*
X62336180Y-79215283D01*
X62164717Y-79043820D01*
X61963097Y-78909102D01*
X61739069Y-78816307D01*
X61501243Y-78769000D01*
X61258757Y-78769000D01*
X61020931Y-78816307D01*
X60796903Y-78909102D01*
X60595283Y-79043820D01*
X60423820Y-79215283D01*
X60289102Y-79416903D01*
X60196307Y-79640931D01*
X60149000Y-79878757D01*
X59969054Y-79878757D01*
X59998690Y-79793195D01*
X59936080Y-79571119D01*
X59831349Y-79365525D01*
X59688521Y-79184314D01*
X59513084Y-79034449D01*
X59311781Y-78921690D01*
X59092348Y-78850370D01*
X59046805Y-78841311D01*
X58863000Y-78904992D01*
X58817000Y-78904992D01*
X58633195Y-78841311D01*
X58587652Y-78850370D01*
X58368219Y-78921690D01*
X58166916Y-79034449D01*
X57991479Y-79184314D01*
X57848651Y-79365525D01*
X57743920Y-79571119D01*
X57681310Y-79793195D01*
X57477216Y-79793195D01*
X57478582Y-79150000D01*
X57472268Y-79085897D01*
X57453570Y-79024257D01*
X57423206Y-78967450D01*
X57382343Y-78917657D01*
X57332550Y-78876794D01*
X57275743Y-78846430D01*
X57214103Y-78827732D01*
X57150000Y-78821418D01*
X56404750Y-78823000D01*
X56323000Y-78904750D01*
X56277000Y-78904750D01*
X56195250Y-78823000D01*
X55450000Y-78821418D01*
X55385897Y-78827732D01*
X55324257Y-78846430D01*
X55267450Y-78876794D01*
X55217657Y-78917657D01*
X55176794Y-78967450D01*
X55146430Y-79024257D01*
X55127732Y-79085897D01*
X55121418Y-79150000D01*
X41006000Y-79150000D01*
X41006000Y-75819854D01*
X41027077Y-75604889D01*
X42119000Y-75604889D01*
X42119000Y-75995111D01*
X42195129Y-76377836D01*
X42344461Y-76738355D01*
X42561257Y-77062814D01*
X42837186Y-77338743D01*
X43161645Y-77555539D01*
X43522164Y-77704871D01*
X43904889Y-77781000D01*
X44295111Y-77781000D01*
X44677836Y-77704871D01*
X45038355Y-77555539D01*
X45362814Y-77338743D01*
X45638743Y-77062814D01*
X45855539Y-76738355D01*
X46004871Y-76377836D01*
X46081000Y-75995111D01*
X46081000Y-75604889D01*
X98219000Y-75604889D01*
X98219000Y-75995111D01*
X98295129Y-76377836D01*
X98444461Y-76738355D01*
X98661257Y-77062814D01*
X98937186Y-77338743D01*
X99261645Y-77555539D01*
X99622164Y-77704871D01*
X100004889Y-77781000D01*
X100395111Y-77781000D01*
X100777836Y-77704871D01*
X101138355Y-77555539D01*
X101462814Y-77338743D01*
X101738743Y-77062814D01*
X101955539Y-76738355D01*
X102104871Y-76377836D01*
X102181000Y-75995111D01*
X102181000Y-75604889D01*
X102104871Y-75222164D01*
X101955539Y-74861645D01*
X101738743Y-74537186D01*
X101462814Y-74261257D01*
X101138355Y-74044461D01*
X100777836Y-73895129D01*
X100395111Y-73819000D01*
X100004889Y-73819000D01*
X99622164Y-73895129D01*
X99261645Y-74044461D01*
X98937186Y-74261257D01*
X98661257Y-74537186D01*
X98444461Y-74861645D01*
X98295129Y-75222164D01*
X98219000Y-75604889D01*
X46081000Y-75604889D01*
X46004871Y-75222164D01*
X45855539Y-74861645D01*
X45638743Y-74537186D01*
X45362814Y-74261257D01*
X45038355Y-74044461D01*
X44677836Y-73895129D01*
X44295111Y-73819000D01*
X43904889Y-73819000D01*
X43522164Y-73895129D01*
X43161645Y-74044461D01*
X42837186Y-74261257D01*
X42561257Y-74537186D01*
X42344461Y-74861645D01*
X42195129Y-75222164D01*
X42119000Y-75604889D01*
X41027077Y-75604889D01*
X41066834Y-75199420D01*
X41241255Y-74621712D01*
X41524566Y-74088882D01*
X41905972Y-73621230D01*
X42370946Y-73236571D01*
X42901781Y-72949550D01*
X43478255Y-72771102D01*
X44097545Y-72706011D01*
X44100837Y-72706000D01*
X100180146Y-72706000D01*
X100800580Y-72766834D01*
%TA.AperFunction,Conductor*%
D21*
G36*
X100800580Y-72766834D02*
G01*
X101378288Y-72941255D01*
X101911118Y-73224566D01*
X102378770Y-73605972D01*
X102763429Y-74070946D01*
X103050450Y-74601781D01*
X103228898Y-75178255D01*
X103293989Y-75797545D01*
X103294001Y-75801124D01*
X103294000Y-110780146D01*
X103233166Y-111400580D01*
X103058745Y-111978290D01*
X102775434Y-112511118D01*
X102394032Y-112978765D01*
X101929057Y-113363427D01*
X101398222Y-113650449D01*
X100821745Y-113828898D01*
X100202455Y-113893989D01*
X100199163Y-113894000D01*
X43734083Y-113894000D01*
X43731734Y-113893582D01*
X43726079Y-113893177D01*
X43181522Y-113858050D01*
X42692633Y-113728049D01*
X42238303Y-113505565D01*
X41838607Y-113201179D01*
X54181348Y-113201179D01*
X54284959Y-113392119D01*
X54512720Y-113520387D01*
X54761130Y-113601755D01*
X55020640Y-113633098D01*
X55281279Y-113613210D01*
X55533030Y-113542857D01*
X55766218Y-113424742D01*
X55815041Y-113392119D01*
X55918652Y-113201179D01*
X55050000Y-112332527D01*
X54181348Y-113201179D01*
X41838607Y-113201179D01*
X41835836Y-113199069D01*
X41500572Y-112820245D01*
X41245270Y-112383508D01*
X41079662Y-111905507D01*
X41007871Y-111388741D01*
X41006000Y-111295888D01*
X41006000Y-111259186D01*
X43769000Y-111259186D01*
X43769000Y-112240815D01*
X43781026Y-112362904D01*
X43828543Y-112519548D01*
X43905707Y-112663912D01*
X44009553Y-112790448D01*
X44136089Y-112894294D01*
X44280453Y-112971458D01*
X44437097Y-113018975D01*
X44600000Y-113035020D01*
X44762904Y-113018975D01*
X44919548Y-112971458D01*
X45063912Y-112894294D01*
X45190448Y-112790448D01*
X45294294Y-112663912D01*
X45371458Y-112519548D01*
X45418975Y-112362904D01*
X45431000Y-112240815D01*
X45431000Y-111259186D01*
X50369000Y-111259186D01*
X50369000Y-112240815D01*
X50381026Y-112362904D01*
X50428543Y-112519548D01*
X50505707Y-112663912D01*
X50609553Y-112790448D01*
X50736089Y-112894294D01*
X50880453Y-112971458D01*
X51037097Y-113018975D01*
X51200000Y-113035020D01*
X51362904Y-113018975D01*
X51519548Y-112971458D01*
X51663912Y-112894294D01*
X51790448Y-112790448D01*
X51894294Y-112663912D01*
X51971458Y-112519548D01*
X52018975Y-112362904D01*
X52028062Y-112270640D01*
X53716902Y-112270640D01*
X53736790Y-112531279D01*
X53807143Y-112783030D01*
X53925258Y-113016218D01*
X53957881Y-113065041D01*
X54148821Y-113168652D01*
X55017473Y-112300000D01*
X55082527Y-112300000D01*
X55951179Y-113168652D01*
X56142119Y-113065041D01*
X56270387Y-112837280D01*
X56351755Y-112588870D01*
X56383098Y-112329360D01*
X56370479Y-112163983D01*
X58169000Y-112163983D01*
X58169000Y-112436017D01*
X58222071Y-112702823D01*
X58326174Y-112954149D01*
X58477307Y-113180336D01*
X58669664Y-113372693D01*
X58895851Y-113523826D01*
X59147177Y-113627929D01*
X59413983Y-113681000D01*
X59686017Y-113681000D01*
X59952823Y-113627929D01*
X60204149Y-113523826D01*
X60430336Y-113372693D01*
X60622693Y-113180336D01*
X60773826Y-112954149D01*
X60814481Y-112856000D01*
X62072696Y-112856000D01*
X62100000Y-112858689D01*
X62127304Y-112856000D01*
X62127312Y-112856000D01*
X62208995Y-112847955D01*
X62313801Y-112816162D01*
X62410392Y-112764534D01*
X62495053Y-112695053D01*
X62512469Y-112673832D01*
X62645102Y-112541199D01*
X62714737Y-112570043D01*
X62969913Y-112620800D01*
X63230087Y-112620800D01*
X63485263Y-112570043D01*
X63725634Y-112470478D01*
X63941961Y-112325933D01*
X64125933Y-112141961D01*
X64270478Y-111925634D01*
X64370000Y-111685367D01*
X64469522Y-111925634D01*
X64614067Y-112141961D01*
X64798039Y-112325933D01*
X65014366Y-112470478D01*
X65254737Y-112570043D01*
X65509913Y-112620800D01*
X65770087Y-112620800D01*
X66025263Y-112570043D01*
X66265634Y-112470478D01*
X66481961Y-112325933D01*
X66665933Y-112141961D01*
X66810478Y-111925634D01*
X66910043Y-111685263D01*
X66954973Y-111459383D01*
X66989957Y-111635263D01*
X67089522Y-111875634D01*
X67234067Y-112091961D01*
X67418039Y-112275933D01*
X67634366Y-112420478D01*
X67874737Y-112520043D01*
X68129913Y-112570800D01*
X68390087Y-112570800D01*
X68645263Y-112520043D01*
X68885634Y-112420478D01*
X69101961Y-112275933D01*
X69285933Y-112091961D01*
X69430478Y-111875634D01*
X69530000Y-111635367D01*
X69629522Y-111875634D01*
X69774067Y-112091961D01*
X69958039Y-112275933D01*
X70174366Y-112420478D01*
X70414737Y-112520043D01*
X70669913Y-112570800D01*
X70930087Y-112570800D01*
X71185263Y-112520043D01*
X71425634Y-112420478D01*
X71641961Y-112275933D01*
X71825933Y-112091961D01*
X71970478Y-111875634D01*
X72070043Y-111635263D01*
X72073446Y-111618154D01*
X91369000Y-111618154D01*
X91369000Y-111781846D01*
X91400935Y-111942394D01*
X91463577Y-112093626D01*
X91554520Y-112229732D01*
X91670268Y-112345480D01*
X91806374Y-112436423D01*
X91957606Y-112499065D01*
X92118154Y-112531000D01*
X92281846Y-112531000D01*
X92442394Y-112499065D01*
X92593626Y-112436423D01*
X92729732Y-112345480D01*
X92845480Y-112229732D01*
X92936423Y-112093626D01*
X92999065Y-111942394D01*
X93031000Y-111781846D01*
X93031000Y-111618154D01*
X94369000Y-111618154D01*
X94369000Y-111781846D01*
X94400935Y-111942394D01*
X94463577Y-112093626D01*
X94554520Y-112229732D01*
X94670268Y-112345480D01*
X94806374Y-112436423D01*
X94957606Y-112499065D01*
X95118154Y-112531000D01*
X95281846Y-112531000D01*
X95442394Y-112499065D01*
X95593626Y-112436423D01*
X95729732Y-112345480D01*
X95845480Y-112229732D01*
X95936423Y-112093626D01*
X95999065Y-111942394D01*
X96031000Y-111781846D01*
X96031000Y-111618154D01*
X95999065Y-111457606D01*
X95936423Y-111306374D01*
X95845480Y-111170268D01*
X95729732Y-111054520D01*
X95593626Y-110963577D01*
X95442394Y-110900935D01*
X95281846Y-110869000D01*
X95118154Y-110869000D01*
X94957606Y-110900935D01*
X94806374Y-110963577D01*
X94670268Y-111054520D01*
X94554520Y-111170268D01*
X94463577Y-111306374D01*
X94400935Y-111457606D01*
X94369000Y-111618154D01*
X93031000Y-111618154D01*
X92999065Y-111457606D01*
X92936423Y-111306374D01*
X92845480Y-111170268D01*
X92729732Y-111054520D01*
X92593626Y-110963577D01*
X92442394Y-110900935D01*
X92281846Y-110869000D01*
X92118154Y-110869000D01*
X91957606Y-110900935D01*
X91806374Y-110963577D01*
X91670268Y-111054520D01*
X91554520Y-111170268D01*
X91463577Y-111306374D01*
X91400935Y-111457606D01*
X91369000Y-111618154D01*
X72073446Y-111618154D01*
X72120800Y-111380087D01*
X72120800Y-111119913D01*
X72070043Y-110864737D01*
X71970478Y-110624366D01*
X71825933Y-110408039D01*
X71641961Y-110224067D01*
X71425634Y-110079522D01*
X71185263Y-109979957D01*
X70930087Y-109929200D01*
X70669913Y-109929200D01*
X70414737Y-109979957D01*
X70174366Y-110079522D01*
X69958039Y-110224067D01*
X69774067Y-110408039D01*
X69629522Y-110624366D01*
X69530000Y-110864633D01*
X69430478Y-110624366D01*
X69285933Y-110408039D01*
X69101961Y-110224067D01*
X68885634Y-110079522D01*
X68816000Y-110050679D01*
X68816000Y-109787304D01*
X68818689Y-109759999D01*
X68816000Y-109732694D01*
X68816000Y-109732688D01*
X68807955Y-109651005D01*
X68776162Y-109546199D01*
X68724534Y-109449608D01*
X68681504Y-109397177D01*
X68672463Y-109386160D01*
X68672460Y-109386157D01*
X68655053Y-109364947D01*
X68633842Y-109347539D01*
X68336302Y-109050000D01*
X99967157Y-109050000D01*
X99967157Y-110750000D01*
X99974513Y-110824689D01*
X99996299Y-110896508D01*
X100031678Y-110962696D01*
X100079289Y-111020711D01*
X100137304Y-111068322D01*
X100203492Y-111103701D01*
X100275311Y-111125487D01*
X100350000Y-111132843D01*
X102050000Y-111132843D01*
X102124689Y-111125487D01*
X102196508Y-111103701D01*
X102262696Y-111068322D01*
X102320711Y-111020711D01*
X102368322Y-110962696D01*
X102403701Y-110896508D01*
X102425487Y-110824689D01*
X102432843Y-110750000D01*
X102432843Y-109050000D01*
X102425487Y-108975311D01*
X102403701Y-108903492D01*
X102368322Y-108837304D01*
X102320711Y-108779289D01*
X102262696Y-108731678D01*
X102196508Y-108696299D01*
X102124689Y-108674513D01*
X102050000Y-108667157D01*
X100350000Y-108667157D01*
X100275311Y-108674513D01*
X100203492Y-108696299D01*
X100137304Y-108731678D01*
X100079289Y-108779289D01*
X100031678Y-108837304D01*
X99996299Y-108903492D01*
X99974513Y-108975311D01*
X99967157Y-109050000D01*
X68336302Y-109050000D01*
X68212468Y-108926167D01*
X68195053Y-108904947D01*
X68110392Y-108835466D01*
X68013801Y-108783838D01*
X67908995Y-108752045D01*
X67827312Y-108744000D01*
X67827304Y-108744000D01*
X67800000Y-108741311D01*
X67772696Y-108744000D01*
X63827296Y-108744000D01*
X63799999Y-108741312D01*
X63772702Y-108744000D01*
X63772688Y-108744000D01*
X63696446Y-108751509D01*
X63691004Y-108752045D01*
X63659211Y-108761690D01*
X63586199Y-108783838D01*
X63489608Y-108835466D01*
X63448981Y-108868808D01*
X63426160Y-108887537D01*
X63426157Y-108887540D01*
X63404947Y-108904947D01*
X63387540Y-108926157D01*
X62726163Y-109587536D01*
X62704948Y-109604947D01*
X62635467Y-109689608D01*
X62632557Y-109695053D01*
X62583839Y-109786199D01*
X62552045Y-109891006D01*
X62541311Y-110000000D01*
X62544001Y-110027314D01*
X62544001Y-110100678D01*
X62474366Y-110129522D01*
X62258039Y-110274067D01*
X62074067Y-110458039D01*
X61929522Y-110674366D01*
X61829957Y-110914737D01*
X61779200Y-111169913D01*
X61779200Y-111430087D01*
X61829957Y-111685263D01*
X61854287Y-111744000D01*
X60814481Y-111744000D01*
X60773826Y-111645851D01*
X60622693Y-111419664D01*
X60430336Y-111227307D01*
X60204149Y-111076174D01*
X59952823Y-110972071D01*
X59686017Y-110919000D01*
X59413983Y-110919000D01*
X59147177Y-110972071D01*
X58895851Y-111076174D01*
X58669664Y-111227307D01*
X58477307Y-111419664D01*
X58326174Y-111645851D01*
X58222071Y-111897177D01*
X58169000Y-112163983D01*
X56370479Y-112163983D01*
X56363210Y-112068721D01*
X56292857Y-111816970D01*
X56174742Y-111583782D01*
X56142119Y-111534959D01*
X55951179Y-111431348D01*
X55082527Y-112300000D01*
X55017473Y-112300000D01*
X54148821Y-111431348D01*
X53957881Y-111534959D01*
X53829613Y-111762720D01*
X53748245Y-112011130D01*
X53716902Y-112270640D01*
X52028062Y-112270640D01*
X52031000Y-112240815D01*
X52031000Y-111398821D01*
X54181348Y-111398821D01*
X55050000Y-112267473D01*
X55918652Y-111398821D01*
X55815041Y-111207881D01*
X55587280Y-111079613D01*
X55338870Y-110998245D01*
X55079360Y-110966902D01*
X54818721Y-110986790D01*
X54566970Y-111057143D01*
X54333782Y-111175258D01*
X54284959Y-111207881D01*
X54181348Y-111398821D01*
X52031000Y-111398821D01*
X52031000Y-111259185D01*
X52018975Y-111137096D01*
X51971458Y-110980452D01*
X51894294Y-110836088D01*
X51790448Y-110709552D01*
X51663911Y-110605706D01*
X51519547Y-110528542D01*
X51362903Y-110481025D01*
X51200000Y-110464980D01*
X51037096Y-110481025D01*
X50880452Y-110528542D01*
X50736088Y-110605706D01*
X50609552Y-110709552D01*
X50505706Y-110836089D01*
X50428542Y-110980453D01*
X50381025Y-111137097D01*
X50369000Y-111259186D01*
X45431000Y-111259186D01*
X45431000Y-111259185D01*
X45418975Y-111137096D01*
X45371458Y-110980452D01*
X45294294Y-110836088D01*
X45190448Y-110709552D01*
X45063911Y-110605706D01*
X44919547Y-110528542D01*
X44762903Y-110481025D01*
X44600000Y-110464980D01*
X44437096Y-110481025D01*
X44280452Y-110528542D01*
X44136088Y-110605706D01*
X44009552Y-110709552D01*
X43905706Y-110836089D01*
X43828542Y-110980453D01*
X43781025Y-111137097D01*
X43769000Y-111259186D01*
X41006000Y-111259186D01*
X41006000Y-109663983D01*
X52419000Y-109663983D01*
X52419000Y-109936017D01*
X52472071Y-110202823D01*
X52576174Y-110454149D01*
X52727307Y-110680336D01*
X52919664Y-110872693D01*
X53145851Y-111023826D01*
X53397177Y-111127929D01*
X53663983Y-111181000D01*
X53936017Y-111181000D01*
X54202823Y-111127929D01*
X54454149Y-111023826D01*
X54680336Y-110872693D01*
X54872693Y-110680336D01*
X55023826Y-110454149D01*
X55127929Y-110202823D01*
X55181000Y-109936017D01*
X55181000Y-109663983D01*
X59419000Y-109663983D01*
X59419000Y-109936017D01*
X59472071Y-110202823D01*
X59576174Y-110454149D01*
X59727307Y-110680336D01*
X59919664Y-110872693D01*
X60145851Y-111023826D01*
X60397177Y-111127929D01*
X60663983Y-111181000D01*
X60936017Y-111181000D01*
X61202823Y-111127929D01*
X61454149Y-111023826D01*
X61680336Y-110872693D01*
X61872693Y-110680336D01*
X62023826Y-110454149D01*
X62127929Y-110202823D01*
X62181000Y-109936017D01*
X62181000Y-109663983D01*
X62127929Y-109397177D01*
X62023826Y-109145851D01*
X61872693Y-108919664D01*
X61680336Y-108727307D01*
X61454149Y-108576174D01*
X61202823Y-108472071D01*
X60936017Y-108419000D01*
X60663983Y-108419000D01*
X60397177Y-108472071D01*
X60145851Y-108576174D01*
X59919664Y-108727307D01*
X59727307Y-108919664D01*
X59576174Y-109145851D01*
X59472071Y-109397177D01*
X59419000Y-109663983D01*
X55181000Y-109663983D01*
X55127929Y-109397177D01*
X55023826Y-109145851D01*
X54872693Y-108919664D01*
X54680336Y-108727307D01*
X54454149Y-108576174D01*
X54202823Y-108472071D01*
X53936017Y-108419000D01*
X53663983Y-108419000D01*
X53397177Y-108472071D01*
X53145851Y-108576174D01*
X52919664Y-108727307D01*
X52727307Y-108919664D01*
X52576174Y-109145851D01*
X52472071Y-109397177D01*
X52419000Y-109663983D01*
X41006000Y-109663983D01*
X41006000Y-103104889D01*
X42119000Y-103104889D01*
X42119000Y-103495111D01*
X42195129Y-103877836D01*
X42344461Y-104238355D01*
X42561257Y-104562814D01*
X42837186Y-104838743D01*
X43161645Y-105055539D01*
X43522164Y-105204871D01*
X43904889Y-105281000D01*
X44295111Y-105281000D01*
X44677836Y-105204871D01*
X45038355Y-105055539D01*
X45362814Y-104838743D01*
X45638743Y-104562814D01*
X45780940Y-104350000D01*
X55321418Y-104350000D01*
X55327732Y-104414103D01*
X55346430Y-104475743D01*
X55376794Y-104532550D01*
X55417657Y-104582343D01*
X55467450Y-104623206D01*
X55524257Y-104653570D01*
X55585897Y-104672268D01*
X55650000Y-104678582D01*
X56395250Y-104677000D01*
X56477000Y-104595250D01*
X56477000Y-103523000D01*
X56523000Y-103523000D01*
X56523000Y-104595250D01*
X56604750Y-104677000D01*
X57350000Y-104678582D01*
X57414103Y-104672268D01*
X57475743Y-104653570D01*
X57532550Y-104623206D01*
X57582343Y-104582343D01*
X57623206Y-104532550D01*
X57653570Y-104475743D01*
X57672268Y-104414103D01*
X57678582Y-104350000D01*
X57677000Y-103604750D01*
X57595250Y-103523000D01*
X56523000Y-103523000D01*
X56477000Y-103523000D01*
X55404750Y-103523000D01*
X55323000Y-103604750D01*
X55321418Y-104350000D01*
X45780940Y-104350000D01*
X45855539Y-104238355D01*
X46004871Y-103877836D01*
X46081000Y-103495111D01*
X46081000Y-103104889D01*
X46004871Y-102722164D01*
X45974980Y-102650000D01*
X55321418Y-102650000D01*
X55323000Y-103395250D01*
X55404750Y-103477000D01*
X56477000Y-103477000D01*
X56477000Y-102404750D01*
X56523000Y-102404750D01*
X56523000Y-103477000D01*
X57595250Y-103477000D01*
X57677000Y-103395250D01*
X57678582Y-102650000D01*
X57672268Y-102585897D01*
X57653570Y-102524257D01*
X57623206Y-102467450D01*
X57582343Y-102417657D01*
X57532550Y-102376794D01*
X57475743Y-102346430D01*
X57414103Y-102327732D01*
X57350000Y-102321418D01*
X56604750Y-102323000D01*
X56523000Y-102404750D01*
X56477000Y-102404750D01*
X56395250Y-102323000D01*
X55650000Y-102321418D01*
X55585897Y-102327732D01*
X55524257Y-102346430D01*
X55467450Y-102376794D01*
X55417657Y-102417657D01*
X55376794Y-102467450D01*
X55346430Y-102524257D01*
X55327732Y-102585897D01*
X55321418Y-102650000D01*
X45974980Y-102650000D01*
X45855539Y-102361645D01*
X45638743Y-102037186D01*
X45362814Y-101761257D01*
X45038355Y-101544461D01*
X44677836Y-101395129D01*
X44295111Y-101319000D01*
X43904889Y-101319000D01*
X43522164Y-101395129D01*
X43161645Y-101544461D01*
X42837186Y-101761257D01*
X42561257Y-102037186D01*
X42344461Y-102361645D01*
X42195129Y-102722164D01*
X42119000Y-103104889D01*
X41006000Y-103104889D01*
X41006000Y-96288606D01*
X41619000Y-96288606D01*
X41619000Y-96511394D01*
X41662464Y-96729900D01*
X41747721Y-96935729D01*
X41871495Y-97120970D01*
X42029030Y-97278505D01*
X42214271Y-97402279D01*
X42420100Y-97487536D01*
X42638606Y-97531000D01*
X42861394Y-97531000D01*
X43079900Y-97487536D01*
X43285729Y-97402279D01*
X43470970Y-97278505D01*
X43628505Y-97120970D01*
X43752279Y-96935729D01*
X43837536Y-96729900D01*
X43881000Y-96511394D01*
X43881000Y-96288606D01*
X43837536Y-96070100D01*
X43814866Y-96015370D01*
X46249241Y-93580996D01*
X50836674Y-93580996D01*
X50764386Y-93755515D01*
X50719000Y-93983682D01*
X50719000Y-94216318D01*
X50764386Y-94444485D01*
X50853412Y-94659413D01*
X50982658Y-94852843D01*
X51147157Y-95017342D01*
X51340587Y-95146588D01*
X51555515Y-95235614D01*
X51783682Y-95281000D01*
X52016318Y-95281000D01*
X52160043Y-95252411D01*
X63631895Y-106724263D01*
X63651657Y-106748343D01*
X63747739Y-106827196D01*
X63857358Y-106885789D01*
X63976302Y-106921870D01*
X64069002Y-106931000D01*
X64069011Y-106931000D01*
X64099999Y-106934052D01*
X64130987Y-106931000D01*
X93001245Y-106931000D01*
X93082658Y-107052843D01*
X93247157Y-107217342D01*
X93440587Y-107346588D01*
X93655515Y-107435614D01*
X93883682Y-107481000D01*
X94116318Y-107481000D01*
X94344485Y-107435614D01*
X94559413Y-107346588D01*
X94752843Y-107217342D01*
X94917342Y-107052843D01*
X95046588Y-106859413D01*
X95135614Y-106644485D01*
X95181000Y-106416318D01*
X95181000Y-106183682D01*
X95135614Y-105955515D01*
X95046588Y-105740587D01*
X94917342Y-105547157D01*
X94752843Y-105382658D01*
X94559413Y-105253412D01*
X94344485Y-105164386D01*
X94116318Y-105119000D01*
X93883682Y-105119000D01*
X93655515Y-105164386D01*
X93440587Y-105253412D01*
X93247157Y-105382658D01*
X93082658Y-105547157D01*
X93001245Y-105669000D01*
X64361368Y-105669000D01*
X53976050Y-95283682D01*
X67269000Y-95283682D01*
X67269000Y-95516318D01*
X67314386Y-95744485D01*
X67403412Y-95959413D01*
X67532658Y-96152843D01*
X67697157Y-96317342D01*
X67890587Y-96446588D01*
X68105515Y-96535614D01*
X68333682Y-96581000D01*
X68566318Y-96581000D01*
X68794485Y-96535614D01*
X69009413Y-96446588D01*
X69202843Y-96317342D01*
X69367342Y-96152843D01*
X69496588Y-95959413D01*
X69500486Y-95950000D01*
X70087157Y-95950000D01*
X70087157Y-97650000D01*
X70094513Y-97724689D01*
X70116299Y-97796508D01*
X70151678Y-97862696D01*
X70199289Y-97920711D01*
X70257304Y-97968322D01*
X70323492Y-98003701D01*
X70395311Y-98025487D01*
X70470000Y-98032843D01*
X72170000Y-98032843D01*
X72244689Y-98025487D01*
X72316508Y-98003701D01*
X72382696Y-97968322D01*
X72440711Y-97920711D01*
X72488322Y-97862696D01*
X72523701Y-97796508D01*
X72545487Y-97724689D01*
X72552843Y-97650000D01*
X72552843Y-96678757D01*
X72629000Y-96678757D01*
X72629000Y-96921243D01*
X72676307Y-97159069D01*
X72769102Y-97383097D01*
X72903820Y-97584717D01*
X73075283Y-97756180D01*
X73276903Y-97890898D01*
X73500931Y-97983693D01*
X73738757Y-98031000D01*
X73981243Y-98031000D01*
X74219069Y-97983693D01*
X74443097Y-97890898D01*
X74644717Y-97756180D01*
X74816180Y-97584717D01*
X74950898Y-97383097D01*
X75043693Y-97159069D01*
X75091000Y-96921243D01*
X75091000Y-96678757D01*
X75169000Y-96678757D01*
X75169000Y-96921243D01*
X75216307Y-97159069D01*
X75309102Y-97383097D01*
X75443820Y-97584717D01*
X75615283Y-97756180D01*
X75816903Y-97890898D01*
X76040931Y-97983693D01*
X76278757Y-98031000D01*
X76521243Y-98031000D01*
X76759069Y-97983693D01*
X76983097Y-97890898D01*
X77184717Y-97756180D01*
X77356180Y-97584717D01*
X77490898Y-97383097D01*
X77583693Y-97159069D01*
X77631000Y-96921243D01*
X77631000Y-96678757D01*
X77583693Y-96440931D01*
X77490898Y-96216903D01*
X77356180Y-96015283D01*
X77184717Y-95843820D01*
X76983097Y-95709102D01*
X76759069Y-95616307D01*
X76521243Y-95569000D01*
X76278757Y-95569000D01*
X76040931Y-95616307D01*
X75816903Y-95709102D01*
X75615283Y-95843820D01*
X75443820Y-96015283D01*
X75309102Y-96216903D01*
X75216307Y-96440931D01*
X75169000Y-96678757D01*
X75091000Y-96678757D01*
X75043693Y-96440931D01*
X74950898Y-96216903D01*
X74816180Y-96015283D01*
X74644717Y-95843820D01*
X74443097Y-95709102D01*
X74219069Y-95616307D01*
X73981243Y-95569000D01*
X73738757Y-95569000D01*
X73500931Y-95616307D01*
X73276903Y-95709102D01*
X73075283Y-95843820D01*
X72903820Y-96015283D01*
X72769102Y-96216903D01*
X72676307Y-96440931D01*
X72629000Y-96678757D01*
X72552843Y-96678757D01*
X72552843Y-95950000D01*
X72545487Y-95875311D01*
X72523701Y-95803492D01*
X72488322Y-95737304D01*
X72440711Y-95679289D01*
X72382696Y-95631678D01*
X72316508Y-95596299D01*
X72244689Y-95574513D01*
X72170000Y-95567157D01*
X70470000Y-95567157D01*
X70395311Y-95574513D01*
X70323492Y-95596299D01*
X70257304Y-95631678D01*
X70199289Y-95679289D01*
X70151678Y-95737304D01*
X70116299Y-95803492D01*
X70094513Y-95875311D01*
X70087157Y-95950000D01*
X69500486Y-95950000D01*
X69585614Y-95744485D01*
X69631000Y-95516318D01*
X69631000Y-95283682D01*
X69630467Y-95281000D01*
X79300762Y-95281000D01*
X83943170Y-99923406D01*
X83958236Y-99941764D01*
X84031478Y-100001872D01*
X84085932Y-100030978D01*
X84115038Y-100046536D01*
X84205707Y-100074040D01*
X84300000Y-100083327D01*
X84323627Y-100081000D01*
X90400764Y-100081000D01*
X97143170Y-106823406D01*
X97158236Y-106841764D01*
X97231478Y-106901872D01*
X97268890Y-106921869D01*
X97315038Y-106946536D01*
X97405707Y-106974040D01*
X97500000Y-106983327D01*
X97523626Y-106981000D01*
X99420932Y-106981000D01*
X99453412Y-107059413D01*
X99582658Y-107252843D01*
X99747157Y-107417342D01*
X99940587Y-107546588D01*
X100155515Y-107635614D01*
X100383682Y-107681000D01*
X100616318Y-107681000D01*
X100844485Y-107635614D01*
X101059413Y-107546588D01*
X101252843Y-107417342D01*
X101417342Y-107252843D01*
X101546588Y-107059413D01*
X101635614Y-106844485D01*
X101681000Y-106616318D01*
X101681000Y-106383682D01*
X101635614Y-106155515D01*
X101546588Y-105940587D01*
X101417342Y-105747157D01*
X101252843Y-105582658D01*
X101059413Y-105453412D01*
X100844485Y-105364386D01*
X100616318Y-105319000D01*
X100383682Y-105319000D01*
X100155515Y-105364386D01*
X99940587Y-105453412D01*
X99747157Y-105582658D01*
X99582658Y-105747157D01*
X99453412Y-105940587D01*
X99420932Y-106019000D01*
X97699236Y-106019000D01*
X91011236Y-99331000D01*
X95369010Y-99331000D01*
X95400000Y-99334052D01*
X95415868Y-99332489D01*
X95255515Y-99364386D01*
X95040587Y-99453412D01*
X94847157Y-99582658D01*
X94682658Y-99747157D01*
X94553412Y-99940587D01*
X94464386Y-100155515D01*
X94419000Y-100383682D01*
X94419000Y-100616318D01*
X94464386Y-100844485D01*
X94553412Y-101059413D01*
X94682658Y-101252843D01*
X94847157Y-101417342D01*
X95040587Y-101546588D01*
X95255515Y-101635614D01*
X95483682Y-101681000D01*
X95716318Y-101681000D01*
X95944485Y-101635614D01*
X96159413Y-101546588D01*
X96352843Y-101417342D01*
X96517342Y-101252843D01*
X96646588Y-101059413D01*
X96648002Y-101056000D01*
X97072696Y-101056000D01*
X97100000Y-101058689D01*
X97127304Y-101056000D01*
X97127312Y-101056000D01*
X97208995Y-101047955D01*
X97313801Y-101016162D01*
X97410392Y-100964534D01*
X97495053Y-100895053D01*
X97512469Y-100873832D01*
X98652102Y-99734200D01*
X98655515Y-99735614D01*
X98883682Y-99781000D01*
X99116318Y-99781000D01*
X99344485Y-99735614D01*
X99559413Y-99646588D01*
X99752843Y-99517342D01*
X99917342Y-99352843D01*
X100046588Y-99159413D01*
X100135614Y-98944485D01*
X100181000Y-98716318D01*
X100181000Y-98483682D01*
X100135614Y-98255515D01*
X100046588Y-98040587D01*
X99917342Y-97847157D01*
X99752843Y-97682658D01*
X99559413Y-97553412D01*
X99344485Y-97464386D01*
X99116318Y-97419000D01*
X98883682Y-97419000D01*
X98655515Y-97464386D01*
X98440587Y-97553412D01*
X98247157Y-97682658D01*
X98082658Y-97847157D01*
X97953412Y-98040587D01*
X97864386Y-98255515D01*
X97819000Y-98483682D01*
X97819000Y-98716318D01*
X97864386Y-98944485D01*
X97865800Y-98947898D01*
X96869699Y-99944000D01*
X96648002Y-99944000D01*
X96646588Y-99940587D01*
X96517342Y-99747157D01*
X96352843Y-99582658D01*
X96159413Y-99453412D01*
X95944485Y-99364386D01*
X95716318Y-99319000D01*
X95533159Y-99319000D01*
X95642642Y-99285789D01*
X95752261Y-99227196D01*
X95848343Y-99148343D01*
X95868105Y-99124263D01*
X101639958Y-93352411D01*
X101783682Y-93381000D01*
X102016318Y-93381000D01*
X102244485Y-93335614D01*
X102459413Y-93246588D01*
X102652843Y-93117342D01*
X102817342Y-92952843D01*
X102946588Y-92759413D01*
X103035614Y-92544485D01*
X103081000Y-92316318D01*
X103081000Y-92083682D01*
X103035614Y-91855515D01*
X102946588Y-91640587D01*
X102817342Y-91447157D01*
X102652843Y-91282658D01*
X102459413Y-91153412D01*
X102381000Y-91120932D01*
X102381000Y-89423626D01*
X102383327Y-89400000D01*
X102374040Y-89305707D01*
X102346536Y-89215040D01*
X102346536Y-89215039D01*
X102301872Y-89131478D01*
X102241764Y-89058236D01*
X102223411Y-89043174D01*
X102203134Y-89022898D01*
X102235614Y-88944485D01*
X102281000Y-88716318D01*
X102281000Y-88483682D01*
X102235614Y-88255515D01*
X102146588Y-88040587D01*
X102017342Y-87847157D01*
X101852843Y-87682658D01*
X101659413Y-87553412D01*
X101444485Y-87464386D01*
X101216318Y-87419000D01*
X100983682Y-87419000D01*
X100755515Y-87464386D01*
X100540587Y-87553412D01*
X100347157Y-87682658D01*
X100182658Y-87847157D01*
X100053412Y-88040587D01*
X99964386Y-88255515D01*
X99919000Y-88483682D01*
X99919000Y-88716318D01*
X99964386Y-88944485D01*
X100053412Y-89159413D01*
X100182658Y-89352843D01*
X100347157Y-89517342D01*
X100540587Y-89646588D01*
X100755515Y-89735614D01*
X100983682Y-89781000D01*
X101216318Y-89781000D01*
X101419000Y-89740683D01*
X101419001Y-91120932D01*
X101340587Y-91153412D01*
X101147157Y-91282658D01*
X100982658Y-91447157D01*
X100853412Y-91640587D01*
X100764386Y-91855515D01*
X100719000Y-92083682D01*
X100719000Y-92316318D01*
X100747589Y-92460042D01*
X95138632Y-98069000D01*
X87261369Y-98069000D01*
X81252411Y-92060043D01*
X81281000Y-91916318D01*
X81281000Y-91683682D01*
X81235614Y-91455515D01*
X81146588Y-91240587D01*
X81017342Y-91047157D01*
X80852843Y-90882658D01*
X80659413Y-90753412D01*
X80444485Y-90664386D01*
X80216318Y-90619000D01*
X79983682Y-90619000D01*
X79755515Y-90664386D01*
X79540587Y-90753412D01*
X79347157Y-90882658D01*
X79182658Y-91047157D01*
X79053412Y-91240587D01*
X78964386Y-91455515D01*
X78919000Y-91683682D01*
X78919000Y-91916318D01*
X78964386Y-92144485D01*
X79053412Y-92359413D01*
X79182658Y-92552843D01*
X79347157Y-92717342D01*
X79540587Y-92846588D01*
X79755515Y-92935614D01*
X79983682Y-92981000D01*
X80216318Y-92981000D01*
X80360043Y-92952411D01*
X86526631Y-99119000D01*
X84499236Y-99119000D01*
X79856828Y-94476594D01*
X79841762Y-94458236D01*
X79768520Y-94398128D01*
X79684959Y-94353464D01*
X79594290Y-94325960D01*
X79523624Y-94319000D01*
X79499998Y-94316673D01*
X79476372Y-94319000D01*
X69429834Y-94319000D01*
X69412435Y-94316833D01*
X69382579Y-94319000D01*
X69376374Y-94319000D01*
X69358991Y-94320712D01*
X69317935Y-94323692D01*
X69311924Y-94325348D01*
X69305708Y-94325960D01*
X69266268Y-94337924D01*
X69226588Y-94348854D01*
X69221013Y-94351652D01*
X69215039Y-94353464D01*
X69178713Y-94372880D01*
X69163124Y-94380704D01*
X69157881Y-94384016D01*
X69131478Y-94398128D01*
X69117924Y-94409251D01*
X69105102Y-94417349D01*
X69009413Y-94353412D01*
X68794485Y-94264386D01*
X68566318Y-94219000D01*
X68333682Y-94219000D01*
X68105515Y-94264386D01*
X67890587Y-94353412D01*
X67697157Y-94482658D01*
X67532658Y-94647157D01*
X67403412Y-94840587D01*
X67314386Y-95055515D01*
X67269000Y-95283682D01*
X53976050Y-95283682D01*
X53365786Y-94673418D01*
X53452261Y-94627196D01*
X53548343Y-94548343D01*
X53568105Y-94524263D01*
X55324264Y-92768104D01*
X55348343Y-92748343D01*
X55427196Y-92652261D01*
X55485789Y-92542642D01*
X55521870Y-92423698D01*
X55531000Y-92330998D01*
X55531000Y-92330989D01*
X55534052Y-92300001D01*
X55531000Y-92269013D01*
X55531000Y-91161368D01*
X57108686Y-89583682D01*
X58119000Y-89583682D01*
X58119000Y-89816318D01*
X58164386Y-90044485D01*
X58253412Y-90259413D01*
X58382658Y-90452843D01*
X58547157Y-90617342D01*
X58740587Y-90746588D01*
X58955515Y-90835614D01*
X59183682Y-90881000D01*
X59416318Y-90881000D01*
X59644485Y-90835614D01*
X59859413Y-90746588D01*
X60052843Y-90617342D01*
X60217342Y-90452843D01*
X60298755Y-90331000D01*
X71169010Y-90331000D01*
X71200000Y-90334052D01*
X71230990Y-90331000D01*
X71230998Y-90331000D01*
X71323698Y-90321870D01*
X71442642Y-90285789D01*
X71552261Y-90227196D01*
X71648343Y-90148343D01*
X71668105Y-90124263D01*
X78339958Y-83452411D01*
X78483682Y-83481000D01*
X78716318Y-83481000D01*
X78944485Y-83435614D01*
X79159413Y-83346588D01*
X79352843Y-83217342D01*
X79517342Y-83052843D01*
X79646588Y-82859413D01*
X79735614Y-82644485D01*
X79781000Y-82416318D01*
X79781000Y-82183682D01*
X79735614Y-81955515D01*
X79646588Y-81740587D01*
X79517342Y-81547157D01*
X79352843Y-81382658D01*
X79159413Y-81253412D01*
X78944485Y-81164386D01*
X78716318Y-81119000D01*
X78483682Y-81119000D01*
X78255515Y-81164386D01*
X78040587Y-81253412D01*
X77847157Y-81382658D01*
X77682658Y-81547157D01*
X77553412Y-81740587D01*
X77464386Y-81955515D01*
X77419000Y-82183682D01*
X77419000Y-82416318D01*
X77447589Y-82560042D01*
X70938632Y-89069000D01*
X60298755Y-89069000D01*
X60217342Y-88947157D01*
X60052843Y-88782658D01*
X59859413Y-88653412D01*
X59644485Y-88564386D01*
X59416318Y-88519000D01*
X59183682Y-88519000D01*
X58955515Y-88564386D01*
X58740587Y-88653412D01*
X58547157Y-88782658D01*
X58382658Y-88947157D01*
X58253412Y-89140587D01*
X58164386Y-89355515D01*
X58119000Y-89583682D01*
X57108686Y-89583682D01*
X58424269Y-88268100D01*
X58448343Y-88248343D01*
X58527196Y-88152261D01*
X58585789Y-88042642D01*
X58621870Y-87923698D01*
X58623857Y-87903528D01*
X58752843Y-87817342D01*
X58917342Y-87652843D01*
X59046588Y-87459413D01*
X59135614Y-87244485D01*
X59181000Y-87016318D01*
X59181000Y-86783682D01*
X59135614Y-86555515D01*
X59046588Y-86340587D01*
X58917342Y-86147157D01*
X58752843Y-85982658D01*
X58559413Y-85853412D01*
X58344485Y-85764386D01*
X58116318Y-85719000D01*
X57883682Y-85719000D01*
X57655515Y-85764386D01*
X57440587Y-85853412D01*
X57247157Y-85982658D01*
X57082658Y-86147157D01*
X56953412Y-86340587D01*
X56864386Y-86555515D01*
X56819000Y-86783682D01*
X56819000Y-87016318D01*
X56864386Y-87244485D01*
X56953412Y-87459413D01*
X57082658Y-87652843D01*
X57168723Y-87738908D01*
X54475733Y-90431899D01*
X54451658Y-90451657D01*
X54431900Y-90475732D01*
X54431897Y-90475735D01*
X54372804Y-90547740D01*
X54314211Y-90657359D01*
X54278130Y-90776303D01*
X54265948Y-90900000D01*
X54269001Y-90931000D01*
X54269000Y-92038632D01*
X52874673Y-93432959D01*
X52817342Y-93347157D01*
X52670184Y-93199999D01*
X52817342Y-93052840D01*
X52946588Y-92859410D01*
X53035614Y-92644482D01*
X53081000Y-92416315D01*
X53081000Y-92183679D01*
X53035614Y-91955512D01*
X52946588Y-91740584D01*
X52817342Y-91547154D01*
X52652843Y-91382655D01*
X52459413Y-91253409D01*
X52244485Y-91164383D01*
X52016318Y-91118997D01*
X51783682Y-91118997D01*
X51555515Y-91164383D01*
X51340587Y-91253409D01*
X51147157Y-91382655D01*
X50982658Y-91547154D01*
X50853412Y-91740584D01*
X50764386Y-91955512D01*
X50719000Y-92183679D01*
X50719000Y-92416315D01*
X50759316Y-92618996D01*
X46073619Y-92618996D01*
X46050003Y-92616670D01*
X46026387Y-92618996D01*
X46026378Y-92618996D01*
X45955712Y-92625956D01*
X45865043Y-92653460D01*
X45781482Y-92698124D01*
X45708240Y-92758232D01*
X45693179Y-92776584D01*
X43134630Y-95335134D01*
X43079900Y-95312464D01*
X42861394Y-95269000D01*
X42638606Y-95269000D01*
X42420100Y-95312464D01*
X42214271Y-95397721D01*
X42029030Y-95521495D01*
X41871495Y-95679030D01*
X41747721Y-95864271D01*
X41662464Y-96070100D01*
X41619000Y-96288606D01*
X41006000Y-96288606D01*
X41006000Y-94623510D01*
X42059017Y-94623510D01*
X42132643Y-94788849D01*
X42317912Y-94892210D01*
X42519784Y-94957441D01*
X42730504Y-94982035D01*
X42941973Y-94965048D01*
X43146065Y-94907131D01*
X43334936Y-94810510D01*
X43367357Y-94788849D01*
X43440983Y-94623510D01*
X42750000Y-93932527D01*
X42059017Y-94623510D01*
X41006000Y-94623510D01*
X41006000Y-93880504D01*
X41667965Y-93880504D01*
X41684952Y-94091973D01*
X41742869Y-94296065D01*
X41839490Y-94484936D01*
X41861151Y-94517357D01*
X42026490Y-94590983D01*
X42717473Y-93900000D01*
X42782527Y-93900000D01*
X43473510Y-94590983D01*
X43638849Y-94517357D01*
X43742210Y-94332088D01*
X43807441Y-94130216D01*
X43832035Y-93919496D01*
X43815048Y-93708027D01*
X43757131Y-93503935D01*
X43660510Y-93315064D01*
X43638849Y-93282643D01*
X43473510Y-93209017D01*
X42782527Y-93900000D01*
X42717473Y-93900000D01*
X42026490Y-93209017D01*
X41861151Y-93282643D01*
X41757790Y-93467912D01*
X41692559Y-93669784D01*
X41667965Y-93880504D01*
X41006000Y-93880504D01*
X41006000Y-93176490D01*
X42059017Y-93176490D01*
X42750000Y-93867473D01*
X43440983Y-93176490D01*
X43367357Y-93011151D01*
X43182088Y-92907790D01*
X42980216Y-92842559D01*
X42769496Y-92817965D01*
X42558027Y-92834952D01*
X42353935Y-92892869D01*
X42165064Y-92989490D01*
X42132643Y-93011151D01*
X42059017Y-93176490D01*
X41006000Y-93176490D01*
X41006000Y-82418757D01*
X55069000Y-82418757D01*
X55069000Y-82661243D01*
X55116307Y-82899069D01*
X55209102Y-83123097D01*
X55343820Y-83324717D01*
X55515283Y-83496180D01*
X55716903Y-83630898D01*
X55940931Y-83723693D01*
X56178757Y-83771000D01*
X56421243Y-83771000D01*
X56659069Y-83723693D01*
X56883097Y-83630898D01*
X57084717Y-83496180D01*
X57256180Y-83324717D01*
X57390898Y-83123097D01*
X57483693Y-82899069D01*
X57531000Y-82661243D01*
X57531000Y-82418757D01*
X57609000Y-82418757D01*
X57609000Y-82661243D01*
X57656307Y-82899069D01*
X57749102Y-83123097D01*
X57883820Y-83324717D01*
X58055283Y-83496180D01*
X58256903Y-83630898D01*
X58480931Y-83723693D01*
X58718757Y-83771000D01*
X58961243Y-83771000D01*
X59199069Y-83723693D01*
X59423097Y-83630898D01*
X59624717Y-83496180D01*
X59796180Y-83324717D01*
X59930898Y-83123097D01*
X60023693Y-82899069D01*
X60071000Y-82661243D01*
X60071000Y-82418757D01*
X60149000Y-82418757D01*
X60149000Y-82661243D01*
X60196307Y-82899069D01*
X60289102Y-83123097D01*
X60423820Y-83324717D01*
X60595283Y-83496180D01*
X60796903Y-83630898D01*
X61020931Y-83723693D01*
X61258757Y-83771000D01*
X61501243Y-83771000D01*
X61739069Y-83723693D01*
X61963097Y-83630898D01*
X62164717Y-83496180D01*
X62336180Y-83324717D01*
X62470898Y-83123097D01*
X62563693Y-82899069D01*
X62586641Y-82783702D01*
X65219000Y-82783702D01*
X65219000Y-83016338D01*
X65264386Y-83244505D01*
X65353412Y-83459433D01*
X65482658Y-83652863D01*
X65647157Y-83817362D01*
X65840587Y-83946608D01*
X66055515Y-84035634D01*
X66283682Y-84081020D01*
X66516318Y-84081020D01*
X66744485Y-84035634D01*
X66959413Y-83946608D01*
X67152843Y-83817362D01*
X67317342Y-83652863D01*
X67446588Y-83459433D01*
X67479068Y-83381020D01*
X75076354Y-83381020D01*
X75099980Y-83383347D01*
X75123606Y-83381020D01*
X75194272Y-83374060D01*
X75284941Y-83346556D01*
X75368502Y-83301892D01*
X75441744Y-83241784D01*
X75456810Y-83223426D01*
X80077102Y-78603134D01*
X80155515Y-78635614D01*
X80383682Y-78681000D01*
X80616318Y-78681000D01*
X80844485Y-78635614D01*
X81059413Y-78546588D01*
X81252843Y-78417342D01*
X81417342Y-78252843D01*
X81546588Y-78059413D01*
X81635614Y-77844485D01*
X81681000Y-77616318D01*
X81681000Y-77383682D01*
X81635614Y-77155515D01*
X81546588Y-76940587D01*
X81417342Y-76747157D01*
X81252843Y-76582658D01*
X81059413Y-76453412D01*
X80844485Y-76364386D01*
X80616318Y-76319000D01*
X80383682Y-76319000D01*
X80155515Y-76364386D01*
X79940587Y-76453412D01*
X79747157Y-76582658D01*
X79582658Y-76747157D01*
X79453412Y-76940587D01*
X79364386Y-77155515D01*
X79319000Y-77383682D01*
X79319000Y-77616318D01*
X79364386Y-77844485D01*
X79396866Y-77922898D01*
X74900744Y-82419020D01*
X67479068Y-82419020D01*
X67446588Y-82340607D01*
X67317342Y-82147177D01*
X67152843Y-81982678D01*
X66959413Y-81853432D01*
X66744485Y-81764406D01*
X66516318Y-81719020D01*
X66283682Y-81719020D01*
X66055515Y-81764406D01*
X65840587Y-81853432D01*
X65647157Y-81982678D01*
X65482658Y-82147177D01*
X65353412Y-82340607D01*
X65264386Y-82555535D01*
X65219000Y-82783702D01*
X62586641Y-82783702D01*
X62611000Y-82661243D01*
X62611000Y-82418757D01*
X62563693Y-82180931D01*
X62470898Y-81956903D01*
X62336180Y-81755283D01*
X62164717Y-81583820D01*
X61963097Y-81449102D01*
X61739069Y-81356307D01*
X61501243Y-81309000D01*
X61258757Y-81309000D01*
X61020931Y-81356307D01*
X60796903Y-81449102D01*
X60595283Y-81583820D01*
X60423820Y-81755283D01*
X60289102Y-81956903D01*
X60196307Y-82180931D01*
X60149000Y-82418757D01*
X60071000Y-82418757D01*
X60023693Y-82180931D01*
X59930898Y-81956903D01*
X59796180Y-81755283D01*
X59624717Y-81583820D01*
X59423097Y-81449102D01*
X59199069Y-81356307D01*
X58961243Y-81309000D01*
X58718757Y-81309000D01*
X58480931Y-81356307D01*
X58256903Y-81449102D01*
X58055283Y-81583820D01*
X57883820Y-81755283D01*
X57749102Y-81956903D01*
X57656307Y-82180931D01*
X57609000Y-82418757D01*
X57531000Y-82418757D01*
X57483693Y-82180931D01*
X57390898Y-81956903D01*
X57256180Y-81755283D01*
X57084717Y-81583820D01*
X56883097Y-81449102D01*
X56659069Y-81356307D01*
X56421243Y-81309000D01*
X56178757Y-81309000D01*
X55940931Y-81356307D01*
X55716903Y-81449102D01*
X55515283Y-81583820D01*
X55343820Y-81755283D01*
X55209102Y-81956903D01*
X55116307Y-82180931D01*
X55069000Y-82418757D01*
X41006000Y-82418757D01*
X41006000Y-80850000D01*
X55121418Y-80850000D01*
X55127732Y-80914103D01*
X55146430Y-80975743D01*
X55176794Y-81032550D01*
X55217657Y-81082343D01*
X55267450Y-81123206D01*
X55324257Y-81153570D01*
X55385897Y-81172268D01*
X55450000Y-81178582D01*
X56195250Y-81177000D01*
X56277000Y-81095250D01*
X56277000Y-80023000D01*
X56323000Y-80023000D01*
X56323000Y-81095250D01*
X56404750Y-81177000D01*
X57150000Y-81178582D01*
X57214103Y-81172268D01*
X57275743Y-81153570D01*
X57332550Y-81123206D01*
X57382343Y-81082343D01*
X57423206Y-81032550D01*
X57453570Y-80975743D01*
X57472268Y-80914103D01*
X57478582Y-80850000D01*
X57477217Y-80206805D01*
X57681310Y-80206805D01*
X57743920Y-80428881D01*
X57848651Y-80634475D01*
X57991479Y-80815686D01*
X58166916Y-80965551D01*
X58368219Y-81078310D01*
X58587652Y-81149630D01*
X58633195Y-81158689D01*
X58817000Y-81095008D01*
X58817000Y-80023000D01*
X58863000Y-80023000D01*
X58863000Y-81095008D01*
X59046805Y-81158689D01*
X59092348Y-81149630D01*
X59311781Y-81078310D01*
X59513084Y-80965551D01*
X59688521Y-80815686D01*
X59831349Y-80634475D01*
X59936080Y-80428881D01*
X59998690Y-80206805D01*
X59935026Y-80023000D01*
X58863000Y-80023000D01*
X58817000Y-80023000D01*
X57744974Y-80023000D01*
X57681310Y-80206805D01*
X57477217Y-80206805D01*
X57477000Y-80104750D01*
X57395250Y-80023000D01*
X56323000Y-80023000D01*
X56277000Y-80023000D01*
X55204750Y-80023000D01*
X55123000Y-80104750D01*
X55121418Y-80850000D01*
X41006000Y-80850000D01*
X41006000Y-79150000D01*
X55121418Y-79150000D01*
X55123000Y-79895250D01*
X55204750Y-79977000D01*
X56277000Y-79977000D01*
X56277000Y-78904750D01*
X56323000Y-78904750D01*
X56323000Y-79977000D01*
X57395250Y-79977000D01*
X57477000Y-79895250D01*
X57477216Y-79793195D01*
X57681310Y-79793195D01*
X57744974Y-79977000D01*
X58817000Y-79977000D01*
X58817000Y-78904992D01*
X58863000Y-78904992D01*
X58863000Y-79977000D01*
X59935026Y-79977000D01*
X59969054Y-79878757D01*
X60149000Y-79878757D01*
X60149000Y-80121243D01*
X60196307Y-80359069D01*
X60289102Y-80583097D01*
X60423820Y-80784717D01*
X60595283Y-80956180D01*
X60796903Y-81090898D01*
X61020931Y-81183693D01*
X61258757Y-81231000D01*
X61501243Y-81231000D01*
X61739069Y-81183693D01*
X61963097Y-81090898D01*
X62164717Y-80956180D01*
X62336180Y-80784717D01*
X62470898Y-80583097D01*
X62563693Y-80359069D01*
X62611000Y-80121243D01*
X62611000Y-79878757D01*
X62563693Y-79640931D01*
X62470898Y-79416903D01*
X62336180Y-79215283D01*
X62164717Y-79043820D01*
X61963097Y-78909102D01*
X61739069Y-78816307D01*
X61501243Y-78769000D01*
X61258757Y-78769000D01*
X61020931Y-78816307D01*
X60796903Y-78909102D01*
X60595283Y-79043820D01*
X60423820Y-79215283D01*
X60289102Y-79416903D01*
X60196307Y-79640931D01*
X60149000Y-79878757D01*
X59969054Y-79878757D01*
X59998690Y-79793195D01*
X59936080Y-79571119D01*
X59831349Y-79365525D01*
X59688521Y-79184314D01*
X59513084Y-79034449D01*
X59311781Y-78921690D01*
X59092348Y-78850370D01*
X59046805Y-78841311D01*
X58863000Y-78904992D01*
X58817000Y-78904992D01*
X58633195Y-78841311D01*
X58587652Y-78850370D01*
X58368219Y-78921690D01*
X58166916Y-79034449D01*
X57991479Y-79184314D01*
X57848651Y-79365525D01*
X57743920Y-79571119D01*
X57681310Y-79793195D01*
X57477216Y-79793195D01*
X57478582Y-79150000D01*
X57472268Y-79085897D01*
X57453570Y-79024257D01*
X57423206Y-78967450D01*
X57382343Y-78917657D01*
X57332550Y-78876794D01*
X57275743Y-78846430D01*
X57214103Y-78827732D01*
X57150000Y-78821418D01*
X56404750Y-78823000D01*
X56323000Y-78904750D01*
X56277000Y-78904750D01*
X56195250Y-78823000D01*
X55450000Y-78821418D01*
X55385897Y-78827732D01*
X55324257Y-78846430D01*
X55267450Y-78876794D01*
X55217657Y-78917657D01*
X55176794Y-78967450D01*
X55146430Y-79024257D01*
X55127732Y-79085897D01*
X55121418Y-79150000D01*
X41006000Y-79150000D01*
X41006000Y-75819854D01*
X41027077Y-75604889D01*
X42119000Y-75604889D01*
X42119000Y-75995111D01*
X42195129Y-76377836D01*
X42344461Y-76738355D01*
X42561257Y-77062814D01*
X42837186Y-77338743D01*
X43161645Y-77555539D01*
X43522164Y-77704871D01*
X43904889Y-77781000D01*
X44295111Y-77781000D01*
X44677836Y-77704871D01*
X45038355Y-77555539D01*
X45362814Y-77338743D01*
X45638743Y-77062814D01*
X45855539Y-76738355D01*
X46004871Y-76377836D01*
X46081000Y-75995111D01*
X46081000Y-75604889D01*
X98219000Y-75604889D01*
X98219000Y-75995111D01*
X98295129Y-76377836D01*
X98444461Y-76738355D01*
X98661257Y-77062814D01*
X98937186Y-77338743D01*
X99261645Y-77555539D01*
X99622164Y-77704871D01*
X100004889Y-77781000D01*
X100395111Y-77781000D01*
X100777836Y-77704871D01*
X101138355Y-77555539D01*
X101462814Y-77338743D01*
X101738743Y-77062814D01*
X101955539Y-76738355D01*
X102104871Y-76377836D01*
X102181000Y-75995111D01*
X102181000Y-75604889D01*
X102104871Y-75222164D01*
X101955539Y-74861645D01*
X101738743Y-74537186D01*
X101462814Y-74261257D01*
X101138355Y-74044461D01*
X100777836Y-73895129D01*
X100395111Y-73819000D01*
X100004889Y-73819000D01*
X99622164Y-73895129D01*
X99261645Y-74044461D01*
X98937186Y-74261257D01*
X98661257Y-74537186D01*
X98444461Y-74861645D01*
X98295129Y-75222164D01*
X98219000Y-75604889D01*
X46081000Y-75604889D01*
X46004871Y-75222164D01*
X45855539Y-74861645D01*
X45638743Y-74537186D01*
X45362814Y-74261257D01*
X45038355Y-74044461D01*
X44677836Y-73895129D01*
X44295111Y-73819000D01*
X43904889Y-73819000D01*
X43522164Y-73895129D01*
X43161645Y-74044461D01*
X42837186Y-74261257D01*
X42561257Y-74537186D01*
X42344461Y-74861645D01*
X42195129Y-75222164D01*
X42119000Y-75604889D01*
X41027077Y-75604889D01*
X41066834Y-75199420D01*
X41241255Y-74621712D01*
X41524566Y-74088882D01*
X41905972Y-73621230D01*
X42370946Y-73236571D01*
X42901781Y-72949550D01*
X43478255Y-72771102D01*
X44097545Y-72706011D01*
X44100837Y-72706000D01*
X100180146Y-72706000D01*
X100800580Y-72766834D01*
G37*
%TD.AperFunction*%
%TD*%
M02*
